SplineFontDB: 3.2
FontName: SourceCodeProShr-Bold
FullName: Source Code Pro Share Bold
FamilyName: Source Code Pro Share
Weight: Bold
Copyright: (c) 2023 Adobe (http://www.adobe.com/), with Reserved Font Name `Source'\n"Fair and Share" tax glyphs by Vector Hasting under Creative Commons 4.0 BY-SA
Version: 1.026;hotconv 1.1.0;makeotfexe 2.6.0
ItalicAngle: 0
UnderlinePosition: -76.8
UnderlineWidth: 51.2
Ascent: 819
Descent: 205
InvalidEm: 0
sfntRevision: 0x000106a8
LayerCount: 2
Layer: 0 1 "Back" 1
Layer: 1 1 "Fore" 0
XUID: [1021 508 542950195 627]
BaseHoriz: 2 'ideo' 'romn'
BaseScript: 'DFLT' 1  -174 0
BaseScript: 'cyrl' 1  -174 0
BaseScript: 'grek' 1  -174 0
BaseScript: 'latn' 1  -174 0
StyleMap: 0x0020
FSType: 0
OS2Version: 4
OS2_WeightWidthSlopeOnly: 0
OS2_UseTypoMetrics: 1
CreationTime: 1680669365
ModificationTime: 1758701770
PfmFamily: 17
TTFWeight: 700
TTFWidth: 5
LineGap: 0
VLineGap: 0
Panose: 2 11 3 9 3 4 3 2 2 4
OS2TypoAscent: 1008
OS2TypoAOffset: 0
OS2TypoDescent: -280
OS2TypoDOffset: 0
OS2TypoLinegap: 0
OS2WinAscent: 1085
OS2WinAOffset: 0
OS2WinDescent: 465
OS2WinDOffset: 0
HheadAscent: 1008
HheadAOffset: 0
HheadDescent: -280
HheadDOffset: 0
OS2SubXSize: 666
OS2SubYSize: 614
OS2SubXOff: 0
OS2SubYOff: 77
OS2SupXSize: 666
OS2SupYSize: 614
OS2SupXOff: 0
OS2SupYOff: 358
OS2StrikeYSize: 51
OS2StrikeYPos: 304
OS2CapHeight: 676
OS2XHeight: 508
OS2Vendor: 'ADBO'
OS2CodePages: 6000019f.00000000
OS2UnicodeRanges: 200002f7.02003803.00000000.00000000
Lookup: 1 0 0 "'ss05' Style Set 5 lookup 0" { "'ss05' Style Set 5 lookup 0 subtable"  } ['cv06' ('DFLT' <'dflt' > 'cyrl' <'SRB ' 'dflt' > 'grek' <'dflt' > 'latn' <'NSM ' 'SKS ' 'dflt' > ) 'locl' ('latn' <'NSM ' 'SKS ' > ) 'salt' ('DFLT' <'dflt' > 'cyrl' <'SRB ' 'dflt' > 'grek' <'dflt' > 'latn' <'NSM ' 'SKS ' 'dflt' > ) 'ss05' ('DFLT' <'dflt' > 'cyrl' <'SRB ' 'dflt' > 'grek' <'dflt' > 'latn' <'NSM ' 'SKS ' 'dflt' > ) ]

StartChar: .notdef
Encoding: 1114112 -1 0
Width: 614
GlyphClass: 1
Flags: W
LayerCount: 2
Fore
SplineSet
36 0 m 1,0,-1
 36 676 l 1,1,-1
 579 676 l 1,2,-1
 579 0 l 1,3,-1
 36 0 l 1,0,-1
223 93 m 1,4,-1
 391 93 l 1,5,-1
 350 172 l 1,6,-1
 309 272 l 1,7,-1
 305 272 l 1,8,-1
 263 172 l 1,9,-1
 223 93 l 1,4,-1
136 159 m 1,10,-1
 233 348 l 1,11,-1
 136 539 l 1,12,-1
 136 159 l 1,10,-1
305 424 m 1,13,-1
 309 424 l 1,14,-1
 353 521 l 1,15,-1
 385 582 l 1,16,-1
 229 582 l 1,17,-1
 261 521 l 1,18,-1
 305 424 l 1,13,-1
381 348 m 1,19,-1
 477 159 l 1,20,-1
 477 539 l 1,21,-1
 381 348 l 1,19,-1
EndSplineSet
EndChar

StartChar: A
Encoding: 65 65 2
Width: 614
GlyphClass: 2
Flags: W
AnchorPoint: "Anchor-6" 506 0 basechar 0
AnchorPoint: "Anchor-3" 307 -20 basechar 0
AnchorPoint: "Anchor-2" 528 0 basechar 0
AnchorPoint: "Anchor-0" 307 688 basechar 0
LayerCount: 2
Fore
SplineSet
9 0 m 1,0,-1
 217 668 l 1,1,-1
 397 668 l 1,2,-1
 605 0 l 1,3,-1
 445 0 l 1,4,-1
 359 338 l 2,5,6
 347 388 347 388 332.5 444.5 c 128,-1,7
 318 501 318 501 306 553 c 1,8,-1
 302 553 l 1,9,10
 290 501 290 501 276.5 444.5 c 128,-1,11
 263 388 263 388 250 338 c 2,12,-1
 163 0 l 1,13,-1
 9 0 l 1,0,-1
146 159 m 1,14,-1
 146 276 l 1,15,-1
 466 276 l 1,16,-1
 466 159 l 1,17,-1
 146 159 l 1,14,-1
EndSplineSet
EndChar

StartChar: B
Encoding: 66 66 3
Width: 614
GlyphClass: 2
Flags: W
AnchorPoint: "Anchor-3" 316 -20 basechar 0
AnchorPoint: "Anchor-0" 315 688 basechar 0
LayerCount: 2
Fore
SplineSet
76 0 m 1,0,-1
 76 668 l 1,1,-1
 300 668 l 2,2,3
 370 668 370 668 425 653 c 128,-1,4
 480 638 480 638 512.5 602 c 128,-1,5
 545 566 545 566 545 502 c 0,6,7
 545 457 545 457 517 415 c 128,-1,8
 489 373 489 373 430 357 c 1,9,-1
 430 353 l 1,10,11
 502 341 502 341 538.5 302.5 c 128,-1,12
 575 264 575 264 575 197 c 256,13,14
 575 129 575 129 541.5 85.5 c 128,-1,15
 508 42 508 42 450 21 c 128,-1,16
 392 0 392 0 319 0 c 2,17,-1
 76 0 l 1,0,-1
226 399 m 1,18,-1
 293 399 l 2,19,20
 348 399 348 399 372.5 421 c 128,-1,21
 397 443 397 443 397 481 c 0,22,23
 397 518 397 518 372 534 c 128,-1,24
 347 550 347 550 294 550 c 2,25,-1
 226 550 l 1,26,-1
 226 399 l 1,18,-1
226 118 m 1,27,-1
 307 118 l 2,28,29
 368 118 368 118 398 140.5 c 128,-1,30
 428 163 428 163 428 208 c 0,31,32
 428 252 428 252 398.5 271.5 c 128,-1,33
 369 291 369 291 307 291 c 2,34,-1
 226 291 l 1,35,-1
 226 118 l 1,27,-1
EndSplineSet
EndChar

StartChar: C
Encoding: 67 67 4
Width: 614
GlyphClass: 2
Flags: W
AnchorPoint: "Anchor-3" 349 -20 basechar 0
AnchorPoint: "Anchor-2" 351 0 basechar 0
AnchorPoint: "Anchor-0" 361 688 basechar 0
LayerCount: 2
Fore
SplineSet
365 -12 m 0,0,1
 303 -12 303 -12 246.5 9.5 c 128,-1,2
 190 31 190 31 147 74.5 c 128,-1,3
 104 118 104 118 79.5 182 c 128,-1,4
 55 246 55 246 55 330 c 0,5,6
 55 441 55 441 97.5 519 c 128,-1,7
 140 597 140 597 212.5 638.5 c 128,-1,8
 285 680 285 680 374 680 c 0,9,10
 437 680 437 680 488.5 654 c 128,-1,11
 540 628 540 628 573 595 c 1,12,-1
 490 502 l 1,13,14
 466 525 466 525 438.5 537.5 c 128,-1,15
 411 550 411 550 374 550 c 0,16,17
 327 550 327 550 290 524 c 128,-1,18
 253 498 253 498 231.5 449.5 c 128,-1,19
 210 401 210 401 210 335 c 0,20,21
 210 266 210 266 231.5 217.5 c 128,-1,22
 253 169 253 169 291.5 143.5 c 128,-1,23
 330 118 330 118 380 118 c 0,24,25
 417 118 417 118 446.5 134.5 c 128,-1,26
 476 151 476 151 501 177 c 1,27,-1
 584 86 l 1,28,29
 543 38 543 38 488 13 c 128,-1,30
 433 -12 433 -12 365 -12 c 0,0,1
EndSplineSet
EndChar

StartChar: D
Encoding: 68 68 5
Width: 614
GlyphClass: 2
Flags: W
AnchorPoint: "Anchor-3" 305 -20 basechar 0
AnchorPoint: "Anchor-2" 289 0 basechar 0
AnchorPoint: "Anchor-0" 307 688 basechar 0
LayerCount: 2
Fore
SplineSet
72 0 m 1,0,-1
 72 668 l 1,1,-1
 256 668 l 2,2,3
 353 668 353 668 425.5 633 c 128,-1,4
 498 598 498 598 538 525 c 128,-1,5
 578 452 578 452 578 337 c 256,6,7
 578 222 578 222 538.5 147.5 c 128,-1,8
 499 73 499 73 428 36.5 c 128,-1,9
 357 0 357 0 265 0 c 2,10,-1
 72 0 l 1,0,-1
223 122 m 1,11,-1
 248 122 l 2,12,13
 301 122 301 122 340 142.5 c 128,-1,14
 379 163 379 163 401 210 c 128,-1,15
 423 257 423 257 423 337 c 256,16,17
 423 417 423 417 401 462.5 c 128,-1,18
 379 508 379 508 340 527 c 128,-1,19
 301 546 301 546 248 546 c 2,20,-1
 223 546 l 1,21,-1
 223 122 l 1,11,-1
EndSplineSet
EndChar

StartChar: E
Encoding: 69 69 6
Width: 614
GlyphClass: 2
Flags: W
AnchorPoint: "Anchor-6" 440 0 basechar 0
AnchorPoint: "Anchor-3" 332 -20 basechar 0
AnchorPoint: "Anchor-2" 330 0 basechar 0
AnchorPoint: "Anchor-0" 331 688 basechar 0
LayerCount: 2
Fore
SplineSet
94 0 m 1,0,-1
 94 668 l 1,1,-1
 537 668 l 1,2,-1
 537 541 l 1,3,-1
 246 541 l 1,4,-1
 246 407 l 1,5,-1
 493 407 l 1,6,-1
 493 281 l 1,7,-1
 246 281 l 1,8,-1
 246 127 l 1,9,-1
 547 127 l 1,10,-1
 547 0 l 1,11,-1
 94 0 l 1,0,-1
EndSplineSet
EndChar

StartChar: F
Encoding: 70 70 7
Width: 614
GlyphClass: 2
Flags: W
AnchorPoint: "Anchor-3" 184 -20 basechar 0
AnchorPoint: "Anchor-2" 181 0 basechar 0
AnchorPoint: "Anchor-0" 341 688 basechar 0
LayerCount: 2
Fore
SplineSet
108 0 m 1,0,-1
 108 668 l 1,1,-1
 551 668 l 1,2,-1
 551 541 l 1,3,-1
 258 541 l 1,4,-1
 258 386 l 1,5,-1
 508 386 l 1,6,-1
 508 259 l 1,7,-1
 258 259 l 1,8,-1
 258 0 l 1,9,-1
 108 0 l 1,0,-1
EndSplineSet
EndChar

StartChar: G
Encoding: 71 71 8
Width: 614
GlyphClass: 2
Flags: W
AnchorPoint: "Anchor-3" 331 -20 basechar 0
AnchorPoint: "Anchor-0" 338 688 basechar 0
LayerCount: 2
Fore
SplineSet
351 -12 m 0,0,1
 266 -12 266 -12 196.5 26.5 c 128,-1,2
 127 65 127 65 86 141 c 128,-1,3
 45 217 45 217 45 330 c 0,4,5
 45 442 45 442 86 520 c 128,-1,6
 127 598 127 598 197 639 c 128,-1,7
 267 680 267 680 353 680 c 0,8,9
 421 680 421 680 469 654 c 128,-1,10
 517 628 517 628 549 595 c 1,11,-1
 466 502 l 1,12,13
 444 524 444 524 418.5 537 c 128,-1,14
 393 550 393 550 353 550 c 0,15,16
 310 550 310 550 275.5 524 c 128,-1,17
 241 498 241 498 221 449.5 c 128,-1,18
 201 401 201 401 201 335 c 0,19,20
 201 266 201 266 218.5 217.5 c 128,-1,21
 236 169 236 169 271.5 143.5 c 128,-1,22
 307 118 307 118 359 118 c 0,23,24
 378 118 378 118 396.5 123 c 128,-1,25
 415 128 415 128 425 138 c 1,26,-1
 425 253 l 1,27,-1
 328 253 l 1,28,-1
 328 376 l 1,29,-1
 560 376 l 1,30,-1
 560 69 l 1,31,32
 526 37 526 37 470 12.5 c 128,-1,33
 414 -12 414 -12 351 -12 c 0,0,1
EndSplineSet
EndChar

StartChar: H
Encoding: 72 72 9
Width: 614
GlyphClass: 2
Flags: W
AnchorPoint: "Anchor-3" 307 -20 basechar 0
AnchorPoint: "Anchor-2" 142 0 basechar 0
AnchorPoint: "Anchor-0" 307 688 basechar 0
LayerCount: 2
Fore
SplineSet
66 0 m 1,0,-1
 66 668 l 1,1,-1
 216 668 l 1,2,-1
 216 410 l 1,3,-1
 398 410 l 1,4,-1
 398 668 l 1,5,-1
 549 668 l 1,6,-1
 549 0 l 1,7,-1
 398 0 l 1,8,-1
 398 279 l 1,9,-1
 216 279 l 1,10,-1
 216 0 l 1,11,-1
 66 0 l 1,0,-1
EndSplineSet
EndChar

StartChar: I
Encoding: 73 73 10
Width: 614
GlyphClass: 2
Flags: W
AnchorPoint: "Anchor-6" 307 0 basechar 0
AnchorPoint: "Anchor-3" 307 -20 basechar 0
AnchorPoint: "Anchor-2" 307 0 basechar 0
AnchorPoint: "Anchor-0" 307 688 basechar 0
LayerCount: 2
Fore
SplineSet
76 0 m 1,0,-1
 76 127 l 1,1,-1
 231 127 l 1,2,-1
 231 541 l 1,3,-1
 76 541 l 1,4,-1
 76 668 l 1,5,-1
 539 668 l 1,6,-1
 539 541 l 1,7,-1
 383 541 l 1,8,-1
 383 127 l 1,9,-1
 539 127 l 1,10,-1
 539 0 l 1,11,-1
 76 0 l 1,0,-1
EndSplineSet
EndChar

StartChar: J
Encoding: 74 74 11
Width: 614
GlyphClass: 2
Flags: W
AnchorPoint: "Anchor-3" 307 -20 basechar 0
AnchorPoint: "Anchor-0" 336 688 basechar 0
LayerCount: 2
Fore
SplineSet
280 -12 m 0,0,1
 225 -12 225 -12 164.5 12.5 c 128,-1,2
 104 37 104 37 60 98 c 1,3,-1
 147 191 l 1,4,5
 176 155 176 155 209 136.5 c 128,-1,6
 242 118 242 118 274 118 c 0,7,8
 325 118 325 118 351.5 144.5 c 128,-1,9
 378 171 378 171 378 240 c 2,10,-1
 378 542 l 1,11,-1
 117 542 l 1,12,-1
 117 668 l 1,13,-1
 528 668 l 1,14,-1
 528 227 l 2,15,16
 528 161 528 161 504 107 c 128,-1,17
 480 53 480 53 426.5 20.5 c 128,-1,18
 373 -12 373 -12 280 -12 c 0,0,1
EndSplineSet
EndChar

StartChar: K
Encoding: 75 75 12
Width: 614
GlyphClass: 2
Flags: W
AnchorPoint: "Anchor-3" 333 -20 basechar 0
AnchorPoint: "Anchor-0" 330 688 basechar 0
LayerCount: 2
Fore
SplineSet
70 0 m 1,0,-1
 70 668 l 1,1,-1
 222 668 l 1,2,-1
 222 394 l 1,3,-1
 225 394 l 1,4,-1
 423 668 l 1,5,-1
 590 668 l 1,6,-1
 222 182 l 1,7,-1
 222 0 l 1,8,-1
 70 0 l 1,0,-1
441 0 m 1,9,-1
 286 310 l 1,10,-1
 375 428 l 1,11,-1
 608 0 l 1,12,-1
 441 0 l 1,9,-1
EndSplineSet
EndChar

StartChar: L
Encoding: 76 76 13
Width: 614
GlyphClass: 2
Flags: W
AnchorPoint: "Anchor-4" 183 354 basechar 0
AnchorPoint: "Anchor-3" 343 -20 basechar 0
AnchorPoint: "Anchor-2" 343 0 basechar 0
AnchorPoint: "Anchor-0" 198 688 basechar 0
LayerCount: 2
Fore
SplineSet
110 0 m 1,0,-1
 110 668 l 1,1,-1
 260 668 l 1,2,-1
 260 127 l 1,3,-1
 557 127 l 1,4,-1
 557 0 l 1,5,-1
 110 0 l 1,0,-1
EndSplineSet
EndChar

StartChar: M
Encoding: 77 77 14
Width: 614
GlyphClass: 2
Flags: W
AnchorPoint: "Anchor-3" 307 -20 basechar 0
AnchorPoint: "Anchor-2" 492 0 basechar 0
AnchorPoint: "Anchor-0" 307 688 basechar 0
LayerCount: 2
Fore
SplineSet
59 0 m 1,0,-1
 59 668 l 1,1,-1
 217 668 l 1,2,-1
 283 431 l 1,3,-1
 305 339 l 1,4,-1
 309 339 l 1,5,-1
 332 431 l 1,6,-1
 397 668 l 1,7,-1
 555 668 l 1,8,-1
 555 0 l 1,9,-1
 428 0 l 1,10,-1
 428 207 l 2,11,12
 428 235 428 235 430 276 c 128,-1,13
 432 317 432 317 435 362.5 c 128,-1,14
 438 408 438 408 441.5 448.5 c 128,-1,15
 445 489 445 489 447 516 c 1,16,-1
 444 516 l 1,17,-1
 393 338 l 1,18,-1
 342 177 l 1,19,-1
 268 177 l 1,20,-1
 216 338 l 1,21,-1
 168 516 l 1,22,-1
 165 516 l 1,23,24
 167 489 167 489 170.5 448.5 c 128,-1,25
 174 408 174 408 177 362.5 c 128,-1,26
 180 317 180 317 182 275.5 c 128,-1,27
 184 234 184 234 184 207 c 2,28,-1
 184 0 l 1,29,-1
 59 0 l 1,0,-1
EndSplineSet
EndChar

StartChar: N
Encoding: 78 78 15
Width: 614
GlyphClass: 2
Flags: W
AnchorPoint: "Anchor-3" 307 -20 basechar 0
AnchorPoint: "Anchor-2" 475 0 basechar 0
AnchorPoint: "Anchor-0" 317 688 basechar 0
LayerCount: 2
Fore
SplineSet
68 0 m 1,0,-1
 68 668 l 1,1,-1
 222 668 l 1,2,-1
 362 336 l 1,3,-1
 420 188 l 1,4,-1
 424 188 l 1,5,6
 419 241 419 241 410.5 307 c 128,-1,7
 402 373 402 373 402 431 c 2,8,-1
 402 668 l 1,9,-1
 547 668 l 1,10,-1
 547 0 l 1,11,-1
 392 0 l 1,12,-1
 252 333 l 1,13,-1
 195 478 l 1,14,-1
 190 478 l 1,15,16
 195 424 195 424 203.5 360 c 128,-1,17
 212 296 212 296 212 237 c 2,18,-1
 212 0 l 1,19,-1
 68 0 l 1,0,-1
EndSplineSet
EndChar

StartChar: O
Encoding: 79 79 16
Width: 614
GlyphClass: 2
Flags: W
AnchorPoint: "Anchor-6" 307 0 basechar 0
AnchorPoint: "Anchor-5" 434 657 basechar 0
AnchorPoint: "Anchor-3" 307 -20 basechar 0
AnchorPoint: "Anchor-2" 307 0 basechar 0
AnchorPoint: "Anchor-0" 307 688 basechar 0
LayerCount: 2
Fore
SplineSet
307 -12 m 256,0,1
 227 -12 227 -12 166.5 28 c 128,-1,2
 106 68 106 68 72.5 145 c 128,-1,3
 39 222 39 222 39 337 c 0,4,5
 39 449 39 449 72.5 525 c 128,-1,6
 106 601 106 601 166.5 640.5 c 128,-1,7
 227 680 227 680 307 680 c 256,8,9
 387 680 387 680 447.5 640.5 c 128,-1,10
 508 601 508 601 541.5 525 c 128,-1,11
 575 449 575 449 575 337 c 0,12,13
 575 222 575 222 541.5 145 c 128,-1,14
 508 68 508 68 447.5 28 c 128,-1,15
 387 -12 387 -12 307 -12 c 256,0,1
307 118 m 256,16,17
 342 118 342 118 367.5 143 c 128,-1,18
 393 168 393 168 407 216.5 c 128,-1,19
 421 265 421 265 421 337 c 0,20,21
 421 407 421 407 407 454 c 128,-1,22
 393 501 393 501 367.5 525.5 c 128,-1,23
 342 550 342 550 307 550 c 256,24,25
 272 550 272 550 246.5 525.5 c 128,-1,26
 221 501 221 501 207.5 454 c 128,-1,27
 194 407 194 407 194 337 c 0,28,29
 194 265 194 265 207.5 216.5 c 128,-1,30
 221 168 221 168 246.5 143 c 128,-1,31
 272 118 272 118 307 118 c 256,16,17
EndSplineSet
EndChar

StartChar: P
Encoding: 80 80 17
Width: 614
GlyphClass: 2
Flags: W
AnchorPoint: "Anchor-3" 143 -20 basechar 0
AnchorPoint: "Anchor-0" 328 688 basechar 0
LayerCount: 2
Fore
SplineSet
77 0 m 1,0,-1
 77 668 l 1,1,-1
 313 668 l 2,2,3
 386 668 386 668 445 648 c 128,-1,4
 504 628 504 628 539 581 c 128,-1,5
 574 534 574 534 574 453 c 0,6,7
 574 375 574 375 538.5 324.5 c 128,-1,8
 503 274 503 274 443.5 250 c 128,-1,9
 384 226 384 226 313 226 c 2,10,-1
 227 226 l 1,11,-1
 227 0 l 1,12,-1
 77 0 l 1,0,-1
227 346 m 1,13,-1
 304 346 l 2,14,15
 366 346 366 346 396.5 373.5 c 128,-1,16
 427 401 427 401 427 453 c 0,17,18
 427 506 427 506 396 527 c 128,-1,19
 365 548 365 548 304 548 c 2,20,-1
 227 548 l 1,21,-1
 227 346 l 1,13,-1
EndSplineSet
EndChar

StartChar: Q
Encoding: 81 81 18
Width: 614
GlyphClass: 2
Flags: W
AnchorPoint: "Anchor-0" 312 690 basechar 0
LayerCount: 2
Fore
SplineSet
307 -12 m 256,0,1
 227 -12 227 -12 166.5 28 c 128,-1,2
 106 68 106 68 72.5 145 c 128,-1,3
 39 222 39 222 39 337 c 0,4,5
 39 449 39 449 72.5 525 c 128,-1,6
 106 601 106 601 166.5 640.5 c 128,-1,7
 227 680 227 680 307 680 c 256,8,9
 387 680 387 680 447.5 640.5 c 128,-1,10
 508 601 508 601 541.5 525 c 128,-1,11
 575 449 575 449 575 337 c 0,12,13
 575 222 575 222 541.5 145 c 128,-1,14
 508 68 508 68 447.5 28 c 128,-1,15
 387 -12 387 -12 307 -12 c 256,0,1
307 111 m 256,16,17
 342 111 342 111 367.5 135.5 c 128,-1,18
 393 160 393 160 407 209.5 c 128,-1,19
 421 259 421 259 421 337 c 0,20,21
 421 407 421 407 407 454 c 128,-1,22
 393 501 393 501 367.5 525.5 c 128,-1,23
 342 550 342 550 307 550 c 256,24,25
 272 550 272 550 246.5 525.5 c 128,-1,26
 221 501 221 501 207.5 454 c 128,-1,27
 194 407 194 407 194 337 c 0,28,29
 194 259 194 259 207.5 209.5 c 128,-1,30
 221 160 221 160 246.5 135.5 c 128,-1,31
 272 111 272 111 307 111 c 256,16,17
499 -182 m 0,32,33
 400 -182 400 -182 332.5 -130 c 128,-1,34
 265 -78 265 -78 234 4 c 1,35,-1
 387 19 l 1,36,37
 397 -12 397 -12 417 -29.5 c 128,-1,38
 437 -47 437 -47 463 -54 c 128,-1,39
 489 -61 489 -61 517 -61 c 0,40,41
 532 -61 532 -61 546 -57 c 128,-1,42
 560 -53 560 -53 570 -48 c 1,43,-1
 597 -161 l 1,44,45
 581 -170 581 -170 556.5 -176 c 128,-1,46
 532 -182 532 -182 499 -182 c 0,32,33
EndSplineSet
EndChar

StartChar: R
Encoding: 82 82 19
Width: 614
GlyphClass: 2
Flags: W
AnchorPoint: "Anchor-3" 328 -20 basechar 0
AnchorPoint: "Anchor-2" 147 0 basechar 0
AnchorPoint: "Anchor-0" 308 688 basechar 0
LayerCount: 2
Fore
SplineSet
72 0 m 1,0,-1
 72 668 l 1,1,-1
 308 668 l 2,2,3
 379 668 379 668 437.5 649 c 128,-1,4
 496 630 496 630 531 584.5 c 128,-1,5
 566 539 566 539 566 460 c 0,6,7
 566 383 566 383 531 335 c 128,-1,8
 496 287 496 287 437.5 264 c 128,-1,9
 379 241 379 241 308 241 c 2,10,-1
 222 241 l 1,11,-1
 222 0 l 1,12,-1
 72 0 l 1,0,-1
222 360 m 1,13,-1
 296 360 l 2,14,15
 355 360 355 360 386.5 385.5 c 128,-1,16
 418 411 418 411 418 460 c 256,17,18
 418 509 418 509 386.5 528.5 c 128,-1,19
 355 548 355 548 296 548 c 2,20,-1
 222 548 l 1,21,-1
 222 360 l 1,13,-1
281 280 m 1,22,-1
 385 377 l 1,23,-1
 598 0 l 1,24,-1
 429 0 l 1,25,-1
 281 280 l 1,22,-1
EndSplineSet
EndChar

StartChar: S
Encoding: 83 83 20
Width: 614
GlyphClass: 2
Flags: W
AnchorPoint: "Anchor-3" 311 -20 basechar 0
AnchorPoint: "Anchor-2" 312 0 basechar 0
AnchorPoint: "Anchor-0" 327 688 basechar 0
LayerCount: 2
Fore
SplineSet
305 -12 m 0,0,1
 237 -12 237 -12 171 12.5 c 128,-1,2
 105 37 105 37 51 84 c 1,3,-1
 138 187 l 1,4,5
 176 156 176 156 221.5 137 c 128,-1,6
 267 118 267 118 315 118 c 256,7,8
 363 118 363 118 386.5 134.5 c 128,-1,9
 410 151 410 151 410 176 c 0,10,11
 410 200 410 200 397.5 213.5 c 128,-1,12
 385 227 385 227 361.5 238 c 128,-1,13
 338 249 338 249 306 262 c 2,14,-1
 220 299 l 2,15,16
 183 313 183 313 150.5 337 c 128,-1,17
 118 361 118 361 98 396.5 c 128,-1,18
 78 432 78 432 78 481 c 0,19,20
 78 536 78 536 109 581 c 128,-1,21
 140 626 140 626 195 653 c 128,-1,22
 250 680 250 680 323 680 c 0,23,24
 383 680 383 680 441.5 657.5 c 128,-1,25
 500 635 500 635 545 592 c 1,26,-1
 468 497 l 1,27,28
 433 523 433 523 398.5 536.5 c 128,-1,29
 364 550 364 550 314 550 c 0,30,31
 277 550 277 550 253.5 534.5 c 128,-1,32
 230 519 230 519 230 489 c 0,33,34
 230 470 230 470 244.5 456.5 c 128,-1,35
 259 443 259 443 283.5 433 c 128,-1,36
 308 423 308 423 340 411 c 2,37,-1
 421 376 l 2,38,39
 466 360 466 360 497.5 335.5 c 128,-1,40
 529 311 529 311 546.5 276.5 c 128,-1,41
 564 242 564 242 564 195 c 0,42,43
 564 140 564 140 534 92.5 c 128,-1,44
 504 45 504 45 446 16.5 c 128,-1,45
 388 -12 388 -12 305 -12 c 0,0,1
EndSplineSet
EndChar

StartChar: T
Encoding: 84 84 21
Width: 614
GlyphClass: 2
Flags: W
AnchorPoint: "Anchor-3" 307 -20 basechar 0
AnchorPoint: "Anchor-2" 307 0 basechar 0
AnchorPoint: "Anchor-0" 307 688 basechar 0
LayerCount: 2
Fore
SplineSet
231 0 m 1,0,-1
 231 541 l 1,1,-1
 32 541 l 1,2,-1
 32 668 l 1,3,-1
 583 668 l 1,4,-1
 583 541 l 1,5,-1
 383 541 l 1,6,-1
 383 0 l 1,7,-1
 231 0 l 1,0,-1
EndSplineSet
EndChar

StartChar: U
Encoding: 85 85 22
Width: 614
GlyphClass: 2
Flags: W
AnchorPoint: "Anchor-6" 307 0 basechar 0
AnchorPoint: "Anchor-5" 524 678 basechar 0
AnchorPoint: "Anchor-3" 307 -20 basechar 0
AnchorPoint: "Anchor-2" 307 0 basechar 0
AnchorPoint: "Anchor-0" 307 688 basechar 0
LayerCount: 2
Fore
SplineSet
309 -12 m 0,0,1
 248 -12 248 -12 202.5 6 c 128,-1,2
 157 24 157 24 126.5 58 c 128,-1,3
 96 92 96 92 81 141.5 c 128,-1,4
 66 191 66 191 66 257 c 2,5,-1
 66 668 l 1,6,-1
 216 668 l 1,7,-1
 216 242 l 2,8,9
 216 202 216 202 226.5 174 c 128,-1,10
 237 146 237 146 257.5 132 c 128,-1,11
 278 118 278 118 309 118 c 256,12,13
 341 118 341 118 362 132 c 128,-1,14
 383 146 383 146 393 174 c 128,-1,15
 403 202 403 202 403 242 c 2,16,-1
 403 668 l 1,17,-1
 549 668 l 1,18,-1
 549 257 l 2,19,20
 549 191 549 191 534.5 141.5 c 128,-1,21
 520 92 520 92 490 58 c 128,-1,22
 460 24 460 24 414.5 6 c 128,-1,23
 369 -12 369 -12 309 -12 c 0,0,1
EndSplineSet
EndChar

StartChar: V
Encoding: 86 86 23
Width: 614
GlyphClass: 2
Flags: W
AnchorPoint: "Anchor-3" 308 -20 basechar 0
AnchorPoint: "Anchor-0" 307 688 basechar 0
LayerCount: 2
Fore
SplineSet
217 0 m 1,0,-1
 15 668 l 1,1,-1
 175 668 l 1,2,-1
 255 356 l 2,3,4
 270 301 270 301 282 249.5 c 128,-1,5
 294 198 294 198 308 142 c 1,6,-1
 312 142 l 1,7,8
 328 197 328 197 340 249 c 128,-1,9
 352 301 352 301 367 356 c 2,10,-1
 445 668 l 1,11,-1
 599 668 l 1,12,-1
 398 0 l 1,13,-1
 217 0 l 1,0,-1
EndSplineSet
EndChar

StartChar: W
Encoding: 87 87 24
Width: 614
GlyphClass: 2
Flags: W
AnchorPoint: "Anchor-3" 308 -20 basechar 0
AnchorPoint: "Anchor-0" 307 688 basechar 0
LayerCount: 2
Fore
SplineSet
93 0 m 1,0,-1
 4 668 l 1,1,-1
 161 668 l 1,2,-1
 181 312 l 2,3,4
 181 283 181 283 182 256 c 128,-1,5
 183 229 183 229 183.5 202 c 128,-1,6
 184 175 184 175 184 144 c 1,7,-1
 188 144 l 1,8,9
 192 175 192 175 198 202 c 128,-1,10
 204 229 204 229 210 257 c 128,-1,11
 216 285 216 285 221 312 c 2,12,-1
 266 499 l 1,13,-1
 362 499 l 1,14,-1
 404 312 l 2,15,16
 410 284 410 284 415.5 257.5 c 128,-1,17
 421 231 421 231 427 203 c 128,-1,18
 433 175 433 175 437 144 c 1,19,-1
 441 144 l 1,20,21
 442 175 442 175 442.5 203 c 128,-1,22
 443 231 443 231 443.5 258 c 128,-1,23
 444 285 444 285 445 312 c 2,24,-1
 464 668 l 1,25,-1
 610 668 l 1,26,-1
 528 0 l 1,27,-1
 367 0 l 1,28,-1
 328 207 l 2,29,30
 322 239 322 239 316.5 271.5 c 128,-1,31
 311 304 311 304 309 334 c 1,32,-1
 306 334 l 1,33,34
 303 304 303 304 299 271.5 c 128,-1,35
 295 239 295 239 289 207 c 2,36,-1
 250 0 l 1,37,-1
 93 0 l 1,0,-1
EndSplineSet
EndChar

StartChar: X
Encoding: 88 88 25
Width: 614
GlyphClass: 2
Flags: W
AnchorPoint: "Anchor-3" 307 -20 basechar 0
AnchorPoint: "Anchor-2" 508 0 basechar 0
AnchorPoint: "Anchor-0" 307 688 basechar 0
LayerCount: 2
Fore
SplineSet
18 0 m 1,0,-1
 213 343 l 1,1,-1
 30 668 l 1,2,-1
 199 668 l 1,3,-1
 263 542 l 2,4,5
 274 519 274 519 286.5 492.5 c 128,-1,6
 299 466 299 466 314 434 c 1,7,-1
 318 434 l 1,8,9
 329 466 329 466 340.5 492.5 c 128,-1,10
 352 519 352 519 364 542 c 2,11,-1
 423 668 l 1,12,-1
 585 668 l 1,13,-1
 401 336 l 1,14,-1
 596 0 l 1,15,-1
 428 0 l 1,16,-1
 355 136 l 2,17,18
 342 163 342 163 329 189 c 128,-1,19
 316 215 316 215 302 246 c 1,20,-1
 298 246 l 1,21,22
 286 215 286 215 273.5 189 c 128,-1,23
 261 163 261 163 249 136 c 2,24,-1
 179 0 l 1,25,-1
 18 0 l 1,0,-1
EndSplineSet
EndChar

StartChar: Y
Encoding: 89 89 26
Width: 614
GlyphClass: 2
Flags: W
AnchorPoint: "Anchor-6" 307 0 basechar 0
AnchorPoint: "Anchor-3" 307 -20 basechar 0
AnchorPoint: "Anchor-0" 307 688 basechar 0
LayerCount: 2
Fore
SplineSet
231 0 m 1,0,-1
 231 225 l 1,1,-1
 16 668 l 1,2,-1
 178 668 l 1,3,-1
 246 507 l 2,4,5
 261 469 261 469 276 431.5 c 128,-1,6
 291 394 291 394 306 354 c 1,7,-1
 310 354 l 1,8,9
 326 394 326 394 342 431.5 c 128,-1,10
 358 469 358 469 373 507 c 2,11,-1
 440 668 l 1,12,-1
 598 668 l 1,13,-1
 383 225 l 1,14,-1
 383 0 l 1,15,-1
 231 0 l 1,0,-1
EndSplineSet
EndChar

StartChar: Z
Encoding: 90 90 27
Width: 614
GlyphClass: 2
Flags: W
AnchorPoint: "Anchor-3" 319 -20 basechar 0
AnchorPoint: "Anchor-2" 328 0 basechar 0
AnchorPoint: "Anchor-0" 327 688 basechar 0
LayerCount: 2
Fore
SplineSet
57 0 m 1,0,-1
 57 91 l 1,1,-1
 370 542 l 1,2,-1
 87 542 l 1,3,-1
 87 668 l 1,4,-1
 556 668 l 1,5,-1
 556 577 l 1,6,-1
 244 127 l 1,7,-1
 560 127 l 1,8,-1
 560 0 l 1,9,-1
 57 0 l 1,0,-1
EndSplineSet
EndChar

StartChar: a
Encoding: 97 97 28
Width: 614
GlyphClass: 2
Flags: W
AnchorPoint: "Anchor-6" 442 0 basechar 0
AnchorPoint: "Anchor-3" 307 -20 basechar 0
AnchorPoint: "Anchor-2" 482 0 basechar 0
AnchorPoint: "Anchor-0" 328 528 basechar 0
LayerCount: 2
Fore
SplineSet
229 -12 m 0,0,1
 178 -12 178 -12 140.5 8.5 c 128,-1,2
 103 29 103 29 82.5 63.5 c 128,-1,3
 62 98 62 98 62 141 c 0,4,5
 62 226 62 226 139.5 271 c 128,-1,6
 217 316 217 316 397 327 c 1,7,8
 394 351 394 351 382 367 c 128,-1,9
 370 383 370 383 347 391.5 c 128,-1,10
 324 400 324 400 289 400 c 0,11,12
 264 400 264 400 239.5 394.5 c 128,-1,13
 215 389 215 389 189 378.5 c 128,-1,14
 163 368 163 368 134 353 c 1,15,-1
 81 452 l 1,16,17
 116 472 116 472 154.5 487.5 c 128,-1,18
 193 503 193 503 234 511.5 c 128,-1,19
 275 520 275 520 318 520 c 0,20,21
 390 520 390 520 441.5 495 c 128,-1,22
 493 470 493 470 520.5 419.5 c 128,-1,23
 548 369 548 369 548 291 c 2,24,-1
 548 0 l 1,25,-1
 425 0 l 1,26,-1
 414 57 l 1,27,-1
 410 57 l 1,28,29
 372 28 372 28 325.5 8 c 128,-1,30
 279 -12 279 -12 229 -12 c 0,0,1
278 104 m 0,31,32
 312 104 312 104 341.5 118 c 128,-1,33
 371 132 371 132 397 153 c 1,34,-1
 397 237 l 1,35,36
 322 233 322 233 281 221.5 c 128,-1,37
 240 210 240 210 223.5 192.5 c 128,-1,38
 207 175 207 175 207 153 c 0,39,40
 207 138 207 138 215.5 126.5 c 128,-1,41
 224 115 224 115 240 109.5 c 128,-1,42
 256 104 256 104 278 104 c 0,31,32
EndSplineSet
Substitution2: "'ss02' Style Set 2 lookup 29 subtable" a.a
Substitution2: "'sups' Superscript lookup 23 subtable" a.sups
EndChar

StartChar: b
Encoding: 98 98 29
Width: 614
GlyphClass: 2
Flags: W
AnchorPoint: "Anchor-3" 317 -20 basechar 0
AnchorPoint: "Anchor-0" 150 750 basechar 0
LayerCount: 2
Fore
SplineSet
346 -12 m 0,0,1
 311 -12 311 -12 275 5.5 c 128,-1,2
 239 23 239 23 208 55 c 1,3,-1
 204 55 l 1,4,-1
 191 0 l 1,5,-1
 74 0 l 1,6,-1
 74 718 l 1,7,-1
 224 718 l 1,8,-1
 224 542 l 1,9,-1
 219 462 l 1,10,-1
 222 462 l 1,11,12
 252 490 252 490 288.5 505 c 128,-1,13
 325 520 325 520 361 520 c 0,14,15
 426 520 426 520 471.5 488.5 c 128,-1,16
 517 457 517 457 541.5 399 c 128,-1,17
 566 341 566 341 566 263 c 0,18,19
 566 176 566 176 535 114 c 128,-1,20
 504 52 504 52 453.5 20 c 128,-1,21
 403 -12 403 -12 346 -12 c 0,0,1
312 111 m 0,22,23
 340 111 340 111 362.5 126 c 128,-1,24
 385 141 385 141 398.5 174.5 c 128,-1,25
 412 208 412 208 412 260 c 0,26,27
 412 306 412 306 401.5 336.5 c 128,-1,28
 391 367 391 367 371 382 c 128,-1,29
 351 397 351 397 318 397 c 0,30,31
 293 397 293 397 270.5 386.5 c 128,-1,32
 248 376 248 376 224 350 c 1,33,-1
 224 144 l 1,34,35
 246 127 246 127 269 119 c 128,-1,36
 292 111 292 111 312 111 c 0,22,23
EndSplineSet
Substitution2: "'sups' Superscript lookup 23 subtable" b.sups
EndChar

StartChar: c
Encoding: 99 99 30
Width: 614
GlyphClass: 2
Flags: W
AnchorPoint: "Anchor-3" 348 -20 basechar 0
AnchorPoint: "Anchor-2" 350 0 basechar 0
AnchorPoint: "Anchor-0" 350 528 basechar 0
LayerCount: 2
Fore
SplineSet
351 -12 m 0,0,1
 271 -12 271 -12 207 19 c 128,-1,2
 143 50 143 50 106 110 c 128,-1,3
 69 170 69 170 69 254 c 256,4,5
 69 338 69 338 110 398 c 128,-1,6
 151 458 151 458 218 489 c 128,-1,7
 285 520 285 520 362 520 c 0,8,9
 422 520 422 520 471.5 501 c 128,-1,10
 521 482 521 482 553 452 c 1,11,-1
 483 358 l 1,12,13
 453 378 453 378 426 388 c 128,-1,14
 399 398 399 398 371 398 c 0,15,16
 328 398 328 398 294 381 c 128,-1,17
 260 364 260 364 241.5 331 c 128,-1,18
 223 298 223 298 223 254 c 256,19,20
 223 210 223 210 241 177 c 128,-1,21
 259 144 259 144 291.5 127 c 128,-1,22
 324 110 324 110 366 110 c 0,23,24
 406 110 406 110 439 124 c 128,-1,25
 472 138 472 138 500 158 c 1,26,-1
 560 62 l 1,27,28
 515 24 515 24 459 6 c 128,-1,29
 403 -12 403 -12 351 -12 c 0,0,1
EndSplineSet
Substitution2: "'sups' Superscript lookup 23 subtable" c.sups
EndChar

StartChar: d
Encoding: 100 100 31
Width: 614
GlyphClass: 2
Flags: W
AnchorPoint: "Anchor-3" 315 -20 basechar 0
AnchorPoint: "Anchor-2" 284 0 basechar 0
AnchorPoint: "Anchor-0" 456 750 basechar 0
LayerCount: 2
Fore
SplineSet
262 -12 m 0,0,1
 166 -12 166 -12 107 59 c 128,-1,2
 48 130 48 130 48 254 c 0,3,4
 48 337 48 337 79.5 396.5 c 128,-1,5
 111 456 111 456 161 488 c 128,-1,6
 211 520 211 520 265 520 c 0,7,8
 307 520 307 520 338 506 c 128,-1,9
 369 492 369 492 393 466 c 1,10,-1
 397 466 l 1,11,-1
 390 545 l 1,12,-1
 390 718 l 1,13,-1
 541 718 l 1,14,-1
 541 0 l 1,15,-1
 418 0 l 1,16,-1
 407 52 l 1,17,-1
 403 52 l 1,18,19
 375 24 375 24 338 6 c 128,-1,20
 301 -12 301 -12 262 -12 c 0,0,1
301 111 m 0,21,22
 327 111 327 111 349 121.5 c 128,-1,23
 371 132 371 132 390 158 c 1,24,-1
 390 364 l 1,25,26
 370 382 370 382 349 389.5 c 128,-1,27
 328 397 328 397 305 397 c 0,28,29
 277 397 277 397 253.5 382 c 128,-1,30
 230 367 230 367 216.5 335.5 c 128,-1,31
 203 304 203 304 203 256 c 0,32,33
 203 181 203 181 228.5 146 c 128,-1,34
 254 111 254 111 301 111 c 0,21,22
EndSplineSet
Substitution2: "'sups' Superscript lookup 23 subtable" d.sups
EndChar

StartChar: e
Encoding: 101 101 32
Width: 614
GlyphClass: 2
Flags: W
AnchorPoint: "Anchor-6" 411 0 basechar 0
AnchorPoint: "Anchor-3" 319 -20 basechar 0
AnchorPoint: "Anchor-2" 319 0 basechar 0
AnchorPoint: "Anchor-0" 319 528 basechar 0
LayerCount: 2
Fore
SplineSet
338 -12 m 0,0,1
 259 -12 259 -12 195 19 c 128,-1,2
 131 50 131 50 93.5 110 c 128,-1,3
 56 170 56 170 56 254 c 0,4,5
 56 337 56 337 94 397 c 128,-1,6
 132 457 132 457 192.5 488.5 c 128,-1,7
 253 520 253 520 321 520 c 0,8,9
 400 520 400 520 453 488 c 128,-1,10
 506 456 506 456 533 401 c 128,-1,11
 560 346 560 346 560 276 c 0,12,13
 560 256 560 256 557.5 237 c 128,-1,14
 555 218 555 218 553 209 c 1,15,-1
 168 209 l 1,16,-1
 168 310 l 1,17,-1
 452 310 l 1,18,-1
 428 282 l 1,19,20
 428 343 428 343 402 374.5 c 128,-1,21
 376 406 376 406 326 406 c 0,22,23
 289 406 289 406 261 389.5 c 128,-1,24
 233 373 233 373 218 339 c 128,-1,25
 203 305 203 305 203 254 c 0,26,27
 203 202 203 202 221.5 168.5 c 128,-1,28
 240 135 240 135 274.5 118.5 c 128,-1,29
 309 102 309 102 358 102 c 0,30,31
 393 102 393 102 424.5 111.5 c 128,-1,32
 456 121 456 121 489 138 c 1,33,-1
 540 47 l 1,34,35
 496 19 496 19 442.5 3.5 c 128,-1,36
 389 -12 389 -12 338 -12 c 0,0,1
EndSplineSet
Substitution2: "'sups' Superscript lookup 23 subtable" e.sups
EndChar

StartChar: f
Encoding: 102 102 33
Width: 614
GlyphClass: 2
Flags: W
AnchorPoint: "Anchor-3" 300 -20 basechar 0
AnchorPoint: "Anchor-2" 302 0 basechar 0
AnchorPoint: "Anchor-0" 423 750 basechar 0
LayerCount: 2
Fore
SplineSet
218 0 m 1,0,-1
 218 521 l 2,1,2
 218 579 218 579 242 627 c 128,-1,3
 266 675 266 675 316 702.5 c 128,-1,4
 366 730 366 730 445 730 c 0,5,6
 489 730 489 730 528 721.5 c 128,-1,7
 567 713 567 713 599 702 c 1,8,-1
 570 592 l 1,9,10
 545 601 545 601 519.5 606 c 128,-1,11
 494 611 494 611 464 611 c 0,12,13
 416 611 416 611 392.5 589.5 c 128,-1,14
 369 568 369 568 369 522 c 2,15,-1
 369 0 l 1,16,-1
 218 0 l 1,0,-1
84 390 m 1,17,-1
 84 502 l 1,18,-1
 223 508 l 1,19,-1
 544 508 l 1,20,-1
 544 390 l 1,21,-1
 84 390 l 1,17,-1
EndSplineSet
Substitution2: "'sups' Superscript lookup 23 subtable" f.sups
EndChar

StartChar: g
Encoding: 103 103 34
Width: 614
GlyphClass: 2
Flags: W
AnchorPoint: "Anchor-3" 312 -210 basechar 0
AnchorPoint: "Anchor-0" 311 528 basechar 0
LayerCount: 2
Fore
SplineSet
284 -216 m 0,0,1
 217 -216 217 -216 165.5 -202 c 128,-1,2
 114 -188 114 -188 83.5 -159.5 c 128,-1,3
 53 -131 53 -131 53 -86 c 0,4,5
 53 -55 53 -55 73 -29.5 c 128,-1,6
 93 -4 93 -4 132 15 c 1,7,-1
 132 19 l 1,8,9
 110 33 110 33 95.5 54 c 128,-1,10
 81 75 81 75 81 106 c 0,11,12
 81 132 81 132 98 157.5 c 128,-1,13
 115 183 115 183 141 202 c 1,14,-1
 141 206 l 1,15,16
 113 224 113 224 94 258 c 128,-1,17
 75 292 75 292 75 336 c 0,18,19
 75 397 75 397 105 438 c 128,-1,20
 135 479 135 479 184.5 499.5 c 128,-1,21
 234 520 234 520 292 520 c 0,22,23
 339 520 339 520 376 508 c 1,24,-1
 582 508 l 1,25,-1
 582 397 l 1,26,-1
 479 397 l 1,27,28
 488 386 488 386 495 368 c 128,-1,29
 502 350 502 350 502 331 c 0,30,31
 502 273 502 273 473.5 235.5 c 128,-1,32
 445 198 445 198 398 179.5 c 128,-1,33
 351 161 351 161 292 161 c 0,34,35
 278 161 278 161 259.5 163.5 c 128,-1,36
 241 166 241 166 222 171 c 1,37,38
 210 163 210 163 205 154.5 c 128,-1,39
 200 146 200 146 200 133 c 0,40,41
 200 114 200 114 221 104.5 c 128,-1,42
 242 95 242 95 286 95 c 2,43,-1
 380 95 l 2,44,45
 480 95 480 95 533 65.5 c 128,-1,46
 586 36 586 36 586 -33 c 0,47,48
 586 -86 586 -86 549 -127.5 c 128,-1,49
 512 -169 512 -169 444 -192.5 c 128,-1,50
 376 -216 376 -216 284 -216 c 0,0,1
292 252 m 0,51,52
 314 252 314 252 331 261 c 128,-1,53
 348 270 348 270 358.5 289 c 128,-1,54
 369 308 369 308 369 336 c 0,55,56
 369 363 369 363 358.5 381 c 128,-1,57
 348 399 348 399 330.5 409 c 128,-1,58
 313 419 313 419 292 419 c 0,59,60
 272 419 272 419 254.5 409 c 128,-1,61
 237 399 237 399 226.5 380.5 c 128,-1,62
 216 362 216 362 216 336 c 0,63,64
 216 308 216 308 226.5 289 c 128,-1,65
 237 270 237 270 254.5 261 c 128,-1,66
 272 252 272 252 292 252 c 0,51,52
305 -121 m 0,67,68
 346 -121 346 -121 377 -112.5 c 128,-1,69
 408 -104 408 -104 425 -90.5 c 128,-1,70
 442 -77 442 -77 442 -59 c 0,71,72
 442 -33 442 -33 419.5 -26.5 c 128,-1,73
 397 -20 397 -20 353 -20 c 2,74,-1
 290 -20 l 2,75,76
 262 -20 262 -20 244 -18 c 128,-1,77
 226 -16 226 -16 212 -13 c 1,78,79
 193 -25 193 -25 184.5 -37 c 128,-1,80
 176 -49 176 -49 176 -63 c 0,81,82
 176 -91 176 -91 211 -106 c 128,-1,83
 246 -121 246 -121 305 -121 c 0,67,68
EndSplineSet
Substitution2: "'ss03' Style Set 3 lookup 30 subtable" g.a
Substitution2: "'sups' Superscript lookup 23 subtable" g.sups
EndChar

StartChar: h
Encoding: 104 104 35
Width: 614
GlyphClass: 2
Flags: W
AnchorPoint: "Anchor-3" 315 -20 basechar 0
AnchorPoint: "Anchor-2" 148 0 basechar 0
AnchorPoint: "Anchor-0" 148 750 basechar 0
LayerCount: 2
Fore
SplineSet
74 0 m 1,0,-1
 74 718 l 1,1,-1
 224 718 l 1,2,-1
 224 542 l 1,3,-1
 216 444 l 1,4,-1
 219 444 l 1,5,6
 248 474 248 474 289.5 497 c 128,-1,7
 331 520 331 520 388 520 c 0,8,9
 474 520 474 520 513.5 465 c 128,-1,10
 553 410 553 410 553 313 c 2,11,-1
 553 0 l 1,12,-1
 402 0 l 1,13,-1
 402 294 l 2,14,15
 402 345 402 345 385.5 368.5 c 128,-1,16
 369 392 369 392 328 392 c 0,17,18
 297 392 297 392 274 378.5 c 128,-1,19
 251 365 251 365 224 339 c 1,20,-1
 224 0 l 1,21,-1
 74 0 l 1,0,-1
EndSplineSet
Substitution2: "'sups' Superscript lookup 23 subtable" h.sups
EndChar

StartChar: k
Encoding: 107 107 38
Width: 614
GlyphClass: 2
Flags: W
AnchorPoint: "Anchor-3" 332 -20 basechar 0
AnchorPoint: "Anchor-0" 169 750 basechar 0
LayerCount: 2
Fore
SplineSet
78 0 m 1,0,-1
 78 718 l 1,1,-1
 228 718 l 1,2,-1
 228 303 l 1,3,-1
 232 303 l 1,4,-1
 419 508 l 1,5,-1
 584 508 l 1,6,-1
 228 128 l 1,7,-1
 228 0 l 1,8,-1
 78 0 l 1,0,-1
436 0 m 1,9,-1
 289 230 l 1,10,-1
 375 324 l 1,11,-1
 599 0 l 1,12,-1
 436 0 l 1,9,-1
EndSplineSet
Substitution2: "'sups' Superscript lookup 23 subtable" k.sups
EndChar

StartChar: l
Encoding: 108 108 39
Width: 614
GlyphClass: 2
Flags: W
AnchorPoint: "Anchor-4" 285 376 basechar 0
AnchorPoint: "Anchor-3" 376 -20 basechar 0
AnchorPoint: "Anchor-2" 326 0 basechar 0
AnchorPoint: "Anchor-0" 281 750 basechar 0
LayerCount: 2
Fore
SplineSet
404 -12 m 0,0,1
 309 -12 309 -12 260 45 c 128,-1,2
 211 102 211 102 211 199 c 2,3,-1
 211 599 l 1,4,-1
 52 599 l 1,5,-1
 52 717 l 1,6,-1
 361 717 l 1,7,-1
 361 193 l 2,8,9
 361 146 361 146 387 128 c 128,-1,10
 413 110 413 110 443 110 c 0,11,12
 461 110 461 110 480.5 114 c 128,-1,13
 500 118 500 118 523 126 c 1,14,-1
 556 15 l 1,15,16
 517 3 517 3 484.5 -4.5 c 128,-1,17
 452 -12 452 -12 404 -12 c 0,0,1
EndSplineSet
Substitution2: "'ss04' Style Set 4 lookup 31 subtable" l.a
Substitution2: "'sups' Superscript lookup 23 subtable" l.sups
EndChar

StartChar: m
Encoding: 109 109 40
Width: 614
GlyphClass: 2
Flags: W
AnchorPoint: "Anchor-3" 309 -20 basechar 0
AnchorPoint: "Anchor-2" 520 0 basechar 0
AnchorPoint: "Anchor-0" 330 531 basechar 0
LayerCount: 2
Fore
SplineSet
36 0 m 1,0,-1
 36 508 l 1,1,-1
 150 508 l 1,2,-1
 160 445 l 1,3,-1
 164 445 l 1,4,5
 178 476 178 476 203.5 498 c 128,-1,6
 229 520 229 520 273 520 c 0,7,8
 306 520 306 520 329.5 499 c 128,-1,9
 353 478 353 478 361 437 c 1,10,11
 375 472 375 472 402.5 496 c 128,-1,12
 430 520 430 520 474 520 c 0,13,14
 528 520 528 520 558 476 c 128,-1,15
 588 432 588 432 588 356 c 2,16,-1
 588 0 l 1,17,-1
 444 0 l 1,18,-1
 444 346 l 2,19,20
 444 392 444 392 417 392 c 0,21,22
 403 392 403 392 392 380.5 c 128,-1,23
 381 369 381 369 371 343 c 1,24,-1
 371 0 l 1,25,-1
 253 0 l 1,26,-1
 253 346 l 2,27,28
 253 370 253 370 246 381 c 128,-1,29
 239 392 239 392 224 392 c 256,30,31
 210 392 210 392 199.5 380.5 c 128,-1,32
 189 369 189 369 179 343 c 1,33,-1
 179 0 l 1,34,-1
 36 0 l 1,0,-1
EndSplineSet
Substitution2: "'sups' Superscript lookup 23 subtable" m.sups
EndChar

StartChar: n
Encoding: 110 110 41
Width: 614
GlyphClass: 2
Flags: W
AnchorPoint: "Anchor-3" 313 -20 basechar 0
AnchorPoint: "Anchor-2" 481 0 basechar 0
AnchorPoint: "Anchor-0" 323 528 basechar 0
LayerCount: 2
Fore
SplineSet
74 0 m 1,0,-1
 74 508 l 1,1,-1
 197 508 l 1,2,-1
 208 440 l 1,3,-1
 212 440 l 1,4,5
 245 473 245 473 287.5 496.5 c 128,-1,6
 330 520 330 520 387 520 c 0,7,8
 473 520 473 520 513 465 c 128,-1,9
 553 410 553 410 553 313 c 2,10,-1
 553 0 l 1,11,-1
 402 0 l 1,12,-1
 402 294 l 2,13,14
 402 345 402 345 385.5 368.5 c 128,-1,15
 369 392 369 392 328 392 c 0,16,17
 297 392 297 392 274 378.5 c 128,-1,18
 251 365 251 365 224 339 c 1,19,-1
 224 0 l 1,20,-1
 74 0 l 1,0,-1
EndSplineSet
Substitution2: "'sups' Superscript lookup 23 subtable" n.sups
EndChar

StartChar: o
Encoding: 111 111 42
Width: 614
GlyphClass: 2
Flags: W
AnchorPoint: "Anchor-6" 307 0 basechar 0
AnchorPoint: "Anchor-5" 423 508 basechar 0
AnchorPoint: "Anchor-3" 307 -20 basechar 0
AnchorPoint: "Anchor-2" 307 0 basechar 0
AnchorPoint: "Anchor-0" 307 528 basechar 0
LayerCount: 2
Fore
SplineSet
307 -12 m 256,0,1
 240 -12 240 -12 181 19 c 128,-1,2
 122 50 122 50 85 110 c 128,-1,3
 48 170 48 170 48 254 c 256,4,5
 48 338 48 338 85 398 c 128,-1,6
 122 458 122 458 181.5 489 c 128,-1,7
 241 520 241 520 307 520 c 256,8,9
 374 520 374 520 433.5 489 c 128,-1,10
 493 458 493 458 529.5 398 c 128,-1,11
 566 338 566 338 566 254 c 256,12,13
 566 170 566 170 529.5 110 c 128,-1,14
 493 50 493 50 433.5 19 c 128,-1,15
 374 -12 374 -12 307 -12 c 256,0,1
307 110 m 256,16,17
 342 110 342 110 365 127 c 128,-1,18
 388 144 388 144 400 177 c 128,-1,19
 412 210 412 210 412 254 c 256,20,21
 412 298 412 298 400 331 c 128,-1,22
 388 364 388 364 365 381 c 128,-1,23
 342 398 342 398 307 398 c 256,24,25
 272 398 272 398 249 381 c 128,-1,26
 226 364 226 364 214.5 331 c 128,-1,27
 203 298 203 298 203 254 c 256,28,29
 203 210 203 210 214.5 177 c 128,-1,30
 226 144 226 144 249 127 c 128,-1,31
 272 110 272 110 307 110 c 256,16,17
EndSplineSet
Substitution2: "'sups' Superscript lookup 23 subtable" o.sups
EndChar

StartChar: p
Encoding: 112 112 43
Width: 614
GlyphClass: 2
Flags: W
AnchorPoint: "Anchor-3" 150 -210 basechar 0
AnchorPoint: "Anchor-0" 331 528 basechar 0
LayerCount: 2
Fore
SplineSet
74 -188 m 1,0,-1
 74 508 l 1,1,-1
 197 508 l 1,2,-1
 208 457 l 1,3,-1
 211 457 l 1,4,5
 243 485 243 485 282.5 502.5 c 128,-1,6
 322 520 322 520 362 520 c 0,7,8
 425 520 425 520 471 488.5 c 128,-1,9
 517 457 517 457 541.5 398.5 c 128,-1,10
 566 340 566 340 566 262 c 0,11,12
 566 175 566 175 535 113.5 c 128,-1,13
 504 52 504 52 453.5 20 c 128,-1,14
 403 -12 403 -12 346 -12 c 0,15,16
 312 -12 312 -12 280 2 c 128,-1,17
 248 16 248 16 221 43 c 1,18,-1
 217 43 l 1,19,-1
 224 -40 l 1,20,-1
 224 -188 l 1,21,-1
 74 -188 l 1,0,-1
311 111 m 0,22,23
 340 111 340 111 362.5 126 c 128,-1,24
 385 141 385 141 398.5 174.5 c 128,-1,25
 412 208 412 208 412 260 c 0,26,27
 412 306 412 306 401.5 336.5 c 128,-1,28
 391 367 391 367 371 382 c 128,-1,29
 351 397 351 397 318 397 c 0,30,31
 293 397 293 397 270.5 386.5 c 128,-1,32
 248 376 248 376 224 350 c 1,33,-1
 224 144 l 1,34,35
 246 127 246 127 269 119 c 128,-1,36
 292 111 292 111 311 111 c 0,22,23
EndSplineSet
Substitution2: "'sups' Superscript lookup 23 subtable" p.sups
EndChar

StartChar: q
Encoding: 113 113 44
Width: 614
GlyphClass: 2
Flags: W
AnchorPoint: "Anchor-3" 460 -210 basechar 0
AnchorPoint: "Anchor-0" 315 528 basechar 0
LayerCount: 2
Fore
SplineSet
390 -188 m 1,0,-1
 390 -36 l 1,1,-1
 397 46 l 1,2,-1
 393 46 l 1,3,4
 368 20 368 20 333 4 c 128,-1,5
 298 -12 298 -12 262 -12 c 0,6,7
 166 -12 166 -12 107 59 c 128,-1,8
 48 130 48 130 48 254 c 0,9,10
 48 337 48 337 79.5 396.5 c 128,-1,11
 111 456 111 456 161 488 c 128,-1,12
 211 520 211 520 265 520 c 0,13,14
 308 520 308 520 342 504.5 c 128,-1,15
 376 489 376 489 407 456 c 1,16,-1
 411 456 l 1,17,-1
 423 508 l 1,18,-1
 541 508 l 1,19,-1
 541 -188 l 1,20,-1
 390 -188 l 1,0,-1
301 111 m 0,21,22
 327 111 327 111 349 121.5 c 128,-1,23
 371 132 371 132 390 158 c 1,24,-1
 390 364 l 1,25,26
 370 382 370 382 349 389.5 c 128,-1,27
 328 397 328 397 305 397 c 0,28,29
 277 397 277 397 253.5 382 c 128,-1,30
 230 367 230 367 216.5 335.5 c 128,-1,31
 203 304 203 304 203 256 c 0,32,33
 203 181 203 181 228.5 146 c 128,-1,34
 254 111 254 111 301 111 c 0,21,22
EndSplineSet
Substitution2: "'sups' Superscript lookup 23 subtable" q.sups
EndChar

StartChar: r
Encoding: 114 114 45
Width: 614
GlyphClass: 2
Flags: W
AnchorPoint: "Anchor-3" 198 -20 basechar 0
AnchorPoint: "Anchor-2" 196 0 basechar 0
AnchorPoint: "Anchor-0" 360 528 basechar 0
LayerCount: 2
Fore
SplineSet
119 0 m 1,0,-1
 119 508 l 1,1,-1
 242 508 l 1,2,-1
 254 397 l 1,3,-1
 257 397 l 1,4,5
 295 459 295 459 348.5 489.5 c 128,-1,6
 402 520 402 520 463 520 c 0,7,8
 497 520 497 520 518 515 c 128,-1,9
 539 510 539 510 561 500 c 1,10,-1
 530 374 l 1,11,12
 506 381 506 381 487.5 384.5 c 128,-1,13
 469 388 469 388 440 388 c 0,14,15
 393 388 393 388 347.5 360.5 c 128,-1,16
 302 333 302 333 269 264 c 1,17,-1
 269 0 l 1,18,-1
 119 0 l 1,0,-1
EndSplineSet
Substitution2: "'sups' Superscript lookup 23 subtable" r.sups
EndChar

StartChar: s
Encoding: 115 115 46
Width: 614
GlyphClass: 2
Flags: W
AnchorPoint: "Anchor-3" 314 -20 basechar 0
AnchorPoint: "Anchor-2" 318 0 basechar 0
AnchorPoint: "Anchor-0" 319 528 basechar 0
LayerCount: 2
Fore
SplineSet
303 -12 m 0,0,1
 235 -12 235 -12 168.5 11 c 128,-1,2
 102 34 102 34 54 66 c 1,3,-1
 119 160 l 1,4,5
 165 130 165 130 216.5 114.5 c 128,-1,6
 268 99 268 99 324 99 c 0,7,8
 366 99 366 99 385 112 c 128,-1,9
 404 125 404 125 404 142 c 0,10,11
 404 153 404 153 398.5 161 c 128,-1,12
 393 169 393 169 379.5 175.5 c 128,-1,13
 366 182 366 182 341.5 188.5 c 128,-1,14
 317 195 317 195 280 203 c 0,15,16
 177 226 177 226 131.5 264.5 c 128,-1,17
 86 303 86 303 86 361 c 0,18,19
 86 433 86 433 148.5 476.5 c 128,-1,20
 211 520 211 520 319 520 c 0,21,22
 388 520 388 520 444 498 c 128,-1,23
 500 476 500 476 540 451 c 1,24,-1
 472 360 l 1,25,26
 434 384 434 384 391 396.5 c 128,-1,27
 348 409 348 409 306 409 c 0,28,29
 282 409 282 409 267 404 c 128,-1,30
 252 399 252 399 244 389.5 c 128,-1,31
 236 380 236 380 236 369 c 0,32,33
 236 349 236 349 262.5 339 c 128,-1,34
 289 329 289 329 353 314 c 0,35,36
 431 297 431 297 475 274.5 c 128,-1,37
 519 252 519 252 536 223 c 128,-1,38
 553 194 553 194 553 152 c 0,39,40
 553 106 553 106 525 69 c 128,-1,41
 497 32 497 32 441 10 c 128,-1,42
 385 -12 385 -12 303 -12 c 0,0,1
EndSplineSet
Substitution2: "'sups' Superscript lookup 23 subtable" s.sups
EndChar

StartChar: t
Encoding: 116 116 47
Width: 614
GlyphClass: 2
Flags: W
AnchorPoint: "Anchor-3" 378 -20 basechar 0
AnchorPoint: "Anchor-2" 384 0 basechar 0
AnchorPoint: "Anchor-0" 269 674 basechar 0
LayerCount: 2
Fore
SplineSet
397 -12 m 0,0,1
 316 -12 316 -12 268.5 16 c 128,-1,2
 221 44 221 44 199.5 94 c 128,-1,3
 178 144 178 144 178 211 c 2,4,-1
 178 390 l 1,5,-1
 51 390 l 1,6,-1
 51 502 l 1,7,-1
 185 508 l 1,8,-1
 205 664 l 1,9,-1
 329 664 l 1,10,-1
 329 508 l 1,11,-1
 544 508 l 1,12,-1
 544 390 l 1,13,-1
 329 390 l 1,14,-1
 329 212 l 2,15,16
 329 174 329 174 340 150.5 c 128,-1,17
 351 127 351 127 374.5 116 c 128,-1,18
 398 105 398 105 435 105 c 0,19,20
 465 105 465 105 489.5 110.5 c 128,-1,21
 514 116 514 116 537 124 c 1,22,-1
 563 15 l 1,23,24
 529 5 529 5 488.5 -3.5 c 128,-1,25
 448 -12 448 -12 397 -12 c 0,0,1
EndSplineSet
Substitution2: "'sups' Superscript lookup 23 subtable" t.sups
EndChar

StartChar: u
Encoding: 117 117 48
Width: 614
GlyphClass: 2
Flags: W
AnchorPoint: "Anchor-6" 432 0 basechar 0
AnchorPoint: "Anchor-3" 321 -20 basechar 0
AnchorPoint: "Anchor-2" 472 0 basechar 0
AnchorPoint: "Anchor-0" 303 528 basechar 0
LayerCount: 2
Fore
SplineSet
228 -12 m 0,0,1
 141 -12 141 -12 102 43 c 128,-1,2
 63 98 63 98 63 195 c 2,3,-1
 63 508 l 1,4,-1
 214 508 l 1,5,-1
 214 214 l 2,6,7
 214 163 214 163 230 139.5 c 128,-1,8
 246 116 246 116 288 116 c 0,9,10
 317 116 317 116 339 128 c 128,-1,11
 361 140 361 140 387 174 c 1,12,-1
 387 508 l 1,13,-1
 538 508 l 1,14,-1
 538 0 l 1,15,-1
 415 0 l 1,16,-1
 403 73 l 1,17,-1
 399 73 l 1,18,19
 365 35 365 35 324 11.5 c 128,-1,20
 283 -12 283 -12 228 -12 c 0,0,1
EndSplineSet
Substitution2: "'sups' Superscript lookup 23 subtable" u.sups
EndChar

StartChar: v
Encoding: 118 118 49
Width: 614
GlyphClass: 2
Flags: W
AnchorPoint: "Anchor-3" 307 -20 basechar 0
AnchorPoint: "Anchor-0" 307 528 basechar 0
LayerCount: 2
Fore
SplineSet
223 0 m 1,0,-1
 32 508 l 1,1,-1
 183 508 l 1,2,-1
 263 268 l 2,3,4
 275 230 275 230 286.5 191.5 c 128,-1,5
 298 153 298 153 309 112 c 1,6,-1
 313 112 l 1,7,8
 324 153 324 153 335 191.5 c 128,-1,9
 346 230 346 230 358 268 c 2,10,-1
 438 508 l 1,11,-1
 583 508 l 1,12,-1
 396 0 l 1,13,-1
 223 0 l 1,0,-1
EndSplineSet
Substitution2: "'sups' Superscript lookup 23 subtable" v.sups
EndChar

StartChar: w
Encoding: 119 119 50
Width: 614
GlyphClass: 2
Flags: W
AnchorPoint: "Anchor-3" 307 -20 basechar 0
AnchorPoint: "Anchor-0" 307 528 basechar 0
LayerCount: 2
Fore
SplineSet
87 0 m 1,0,-1
 4 508 l 1,1,-1
 150 508 l 1,2,-1
 181 272 l 2,3,4
 186 235 186 235 190 198 c 128,-1,5
 194 161 194 161 198 122 c 1,6,-1
 201 122 l 1,7,8
 206 161 206 161 211.5 199 c 128,-1,9
 217 237 217 237 224 272 c 2,10,-1
 256 440 l 1,11,-1
 366 440 l 1,12,-1
 398 272 l 2,13,14
 405 235 405 235 412 198 c 128,-1,15
 419 161 419 161 424 122 c 1,16,-1
 428 122 l 1,17,18
 433 161 433 161 435.5 198.5 c 128,-1,19
 438 236 438 236 442 272 c 2,20,-1
 471 508 l 1,21,-1
 610 508 l 1,22,-1
 532 0 l 1,23,-1
 355 0 l 1,24,-1
 328 165 l 2,25,26
 324 199 324 199 319 235.5 c 128,-1,27
 314 272 314 272 309 315 c 1,28,-1
 305 315 l 1,29,30
 302 283 302 283 298 248 c 128,-1,31
 294 213 294 213 288 165 c 2,32,-1
 261 0 l 1,33,-1
 87 0 l 1,0,-1
EndSplineSet
Substitution2: "'sups' Superscript lookup 23 subtable" w.sups
EndChar

StartChar: x
Encoding: 120 120 51
Width: 614
GlyphClass: 2
Flags: W
AnchorPoint: "Anchor-3" 307 -20 basechar 0
AnchorPoint: "Anchor-2" 484 0 basechar 0
AnchorPoint: "Anchor-0" 307 528 basechar 0
LayerCount: 2
Fore
SplineSet
38 0 m 1,0,-1
 214 264 l 1,1,-1
 49 508 l 1,2,-1
 211 508 l 1,3,-1
 263 426 l 2,4,5
 275 404 275 404 289.5 382 c 128,-1,6
 304 360 304 360 316 339 c 1,7,-1
 321 339 l 1,8,9
 330 361 330 361 341.5 383.5 c 128,-1,10
 353 406 353 406 362 426 c 2,11,-1
 408 508 l 1,12,-1
 565 508 l 1,13,-1
 399 247 l 1,14,-1
 575 0 l 1,15,-1
 414 0 l 1,16,-1
 355 84 l 2,17,18
 341 106 341 106 326 128.5 c 128,-1,19
 311 151 311 151 297 172 c 1,20,-1
 293 172 l 1,21,22
 282 150 282 150 269.5 128 c 128,-1,23
 257 106 257 106 246 84 c 2,24,-1
 196 0 l 1,25,-1
 38 0 l 1,0,-1
EndSplineSet
Substitution2: "'sups' Superscript lookup 23 subtable" x.sups
EndChar

StartChar: y
Encoding: 121 121 52
Width: 614
GlyphClass: 2
Flags: W
AnchorPoint: "Anchor-6" 296 -89 basechar 0
AnchorPoint: "Anchor-3" 274 -210 basechar 0
AnchorPoint: "Anchor-0" 315 528 basechar 0
LayerCount: 2
Fore
SplineSet
146 -199 m 0,0,1
 123 -199 123 -199 104 -196 c 128,-1,2
 85 -193 85 -193 69 -188 c 1,3,-1
 95 -74 l 1,4,5
 105 -77 105 -77 115.5 -78.5 c 128,-1,6
 126 -80 126 -80 135 -80 c 0,7,8
 179 -80 179 -80 204 -61 c 128,-1,9
 229 -42 229 -42 242 -13 c 2,10,-1
 252 13 l 1,11,-1
 32 508 l 1,12,-1
 181 508 l 1,13,-1
 266 290 l 2,14,15
 280 254 280 254 292.5 215.5 c 128,-1,16
 305 177 305 177 317 137 c 1,17,-1
 322 137 l 1,18,19
 332 175 332 175 344 214 c 128,-1,20
 356 253 356 253 368 290 c 2,21,-1
 442 508 l 1,22,-1
 585 508 l 1,23,-1
 384 -5 l 2,24,25
 360 -68 360 -68 329 -111.5 c 128,-1,26
 298 -155 298 -155 254.5 -177 c 128,-1,27
 211 -199 211 -199 146 -199 c 0,0,1
EndSplineSet
Substitution2: "'sups' Superscript lookup 23 subtable" y.sups
EndChar

StartChar: z
Encoding: 122 122 53
Width: 614
GlyphClass: 2
Flags: W
AnchorPoint: "Anchor-3" 318 -20 basechar 0
AnchorPoint: "Anchor-2" 328 0 basechar 0
AnchorPoint: "Anchor-0" 336 528 basechar 0
LayerCount: 2
Fore
SplineSet
72 0 m 1,0,-1
 72 81 l 1,1,-1
 337 390 l 1,2,-1
 103 390 l 1,3,-1
 103 508 l 1,4,-1
 546 508 l 1,5,-1
 546 428 l 1,6,-1
 280 118 l 1,7,-1
 553 118 l 1,8,-1
 553 0 l 1,9,-1
 72 0 l 1,0,-1
EndSplineSet
Substitution2: "'sups' Superscript lookup 23 subtable" z.sups
EndChar

StartChar: Aringacute
Encoding: 506 506 62
Width: 614
GlyphClass: 1
Flags: W
LayerCount: 2
Fore
SplineSet
270 864 m 1,0,-1
 223 887 l 1,1,-1
 384 1031 l 1,2,-1
 444 947 l 1,3,-1
 270 864 l 1,0,-1
9 0 m 1,4,-1
 217 668 l 1,5,-1
 397 668 l 1,6,-1
 605 0 l 1,7,-1
 445 0 l 1,8,-1
 359 338 l 2,9,10
 347 388 347 388 332.5 444.5 c 128,-1,11
 318 501 318 501 306 553 c 1,12,-1
 302 553 l 1,13,14
 290 501 290 501 276.5 444.5 c 128,-1,15
 263 388 263 388 250 338 c 2,16,-1
 163 0 l 1,17,-1
 9 0 l 1,4,-1
146 159 m 1,18,-1
 146 276 l 1,19,-1
 466 276 l 1,20,-1
 466 159 l 1,21,-1
 146 159 l 1,18,-1
307 714 m 0,22,23
 255 714 255 714 222.5 741.5 c 128,-1,24
 190 769 190 769 190 815 c 256,25,26
 190 861 190 861 222.5 888 c 128,-1,27
 255 915 255 915 307 915 c 0,28,29
 358 915 358 915 391 888 c 128,-1,30
 424 861 424 861 424 815 c 256,31,32
 424 769 424 769 391 741.5 c 128,-1,33
 358 714 358 714 307 714 c 0,22,23
307 770 m 0,34,35
 324 770 324 770 337 782 c 128,-1,36
 350 794 350 794 350 815 c 0,37,38
 350 834 350 834 337.5 846.5 c 128,-1,39
 325 859 325 859 307 859 c 0,40,41
 289 859 289 859 276.5 847 c 128,-1,42
 264 835 264 835 264 815 c 0,43,44
 264 793 264 793 276.5 781.5 c 128,-1,45
 289 770 289 770 307 770 c 0,34,35
EndSplineSet
EndChar

StartChar: Aogonek
Encoding: 260 260 64
Width: 614
GlyphClass: 2
Flags: W
AnchorPoint: "Anchor-0" 307 688 basechar 0
LayerCount: 2
Fore
SplineSet
519 -232 m 0,0,1
 469 -232 469 -232 434 -206.5 c 128,-1,2
 399 -181 399 -181 399 -134 c 0,3,4
 399 -101 399 -101 414 -74.5 c 128,-1,5
 429 -48 429 -48 449 -28.5 c 128,-1,6
 469 -9 469 -9 486 0 c 1,7,-1
 445 0 l 1,8,-1
 359 338 l 2,9,10
 346 388 346 388 332 444.5 c 128,-1,11
 318 501 318 501 306 553 c 1,12,-1
 302 553 l 1,13,14
 290 501 290 501 276.5 444.5 c 128,-1,15
 263 388 263 388 250 338 c 2,16,-1
 163 0 l 1,17,-1
 9 0 l 1,18,-1
 217 668 l 1,19,-1
 397 668 l 1,20,-1
 605 0 l 1,21,22
 562 -5 562 -5 536 -33.5 c 128,-1,23
 510 -62 510 -62 510 -95 c 0,24,25
 510 -113 510 -113 522.5 -124 c 128,-1,26
 535 -135 535 -135 552 -135 c 0,27,28
 564 -135 564 -135 575.5 -129.5 c 128,-1,29
 587 -124 587 -124 594 -119 c 1,30,-1
 630 -195 l 1,31,32
 610 -210 610 -210 579.5 -221 c 128,-1,33
 549 -232 549 -232 519 -232 c 0,0,1
145 159 m 1,34,-1
 145 276 l 1,35,-1
 467 276 l 1,36,-1
 467 159 l 1,37,-1
 145 159 l 1,34,-1
EndSplineSet
Ligature2: "'ccmp' Glyph Composition/Decomposition lookup 11 subtable" A uni0328
EndChar

StartChar: AE
Encoding: 198 198 77
Width: 614
GlyphClass: 2
Flags: W
AnchorPoint: "Anchor-3" 340 -20 basechar 0
AnchorPoint: "Anchor-2" 479 0 basechar 0
AnchorPoint: "Anchor-0" 400 688 basechar 0
LayerCount: 2
Fore
SplineSet
-3 0 m 1,0,-1
 220 668 l 1,1,-1
 600 668 l 1,2,-1
 600 541 l 1,3,-1
 452 541 l 1,4,-1
 452 409 l 1,5,-1
 572 409 l 1,6,-1
 572 282 l 1,7,-1
 452 282 l 1,8,-1
 452 127 l 1,9,-1
 609 127 l 1,10,-1
 609 0 l 1,11,-1
 318 0 l 1,12,-1
 318 554 l 1,13,-1
 315 554 l 1,14,15
 302 505 302 505 287.5 457 c 128,-1,16
 273 409 273 409 261 365 c 2,17,-1
 152 0 l 1,18,-1
 -3 0 l 1,0,-1
135 153 m 1,19,-1
 135 269 l 1,20,-1
 377 269 l 1,21,-1
 377 153 l 1,22,-1
 135 153 l 1,19,-1
EndSplineSet
EndChar

StartChar: uni0243
Encoding: 579 579 80
Width: 614
GlyphClass: 1
Flags: W
LayerCount: 2
Fore
SplineSet
86 0 m 1,0,-1
 86 668 l 1,1,-1
 302 668 l 2,2,3
 371 668 371 668 426 653 c 128,-1,4
 481 638 481 638 513 602.5 c 128,-1,5
 545 567 545 567 545 507 c 0,6,7
 545 464 545 464 517.5 425.5 c 128,-1,8
 490 387 490 387 432 373 c 1,9,-1
 432 369 l 1,10,11
 504 356 504 356 541 315 c 128,-1,12
 578 274 578 274 578 204 c 0,13,14
 578 134 578 134 543.5 88.5 c 128,-1,15
 509 43 509 43 451 21.5 c 128,-1,16
 393 0 393 0 321 0 c 2,17,-1
 86 0 l 1,0,-1
9 175 m 1,18,-1
 9 246 l 1,19,-1
 88 252 l 1,20,-1
 345 252 l 1,21,-1
 345 175 l 1,22,-1
 9 175 l 1,18,-1
237 111 m 1,23,-1
 308 111 l 2,24,25
 369 111 369 111 398.5 137 c 128,-1,26
 428 163 428 163 428 215 c 256,27,28
 428 267 428 267 399.5 290 c 128,-1,29
 371 313 371 313 308 313 c 2,30,-1
 237 313 l 1,31,-1
 237 111 l 1,23,-1
237 407 m 1,32,-1
 295 407 l 2,33,34
 349 407 349 407 374.5 428 c 128,-1,35
 400 449 400 449 400 488 c 0,36,37
 400 525 400 525 374 541 c 128,-1,38
 348 557 348 557 296 557 c 2,39,-1
 237 557 l 1,40,-1
 237 407 l 1,32,-1
EndSplineSet
EndChar

StartChar: uni018A
Encoding: 394 394 92
Width: 614
GlyphClass: 2
Flags: W
AnchorPoint: "Anchor-3" 379 -20 basechar 0
AnchorPoint: "Anchor-0" 353 688 basechar 0
LayerCount: 2
Fore
SplineSet
193 0 m 1,0,-1
 193 600 l 1,1,-1
 329 600 l 1,2,-1
 329 122 l 1,3,-1
 342 122 l 2,4,5
 376 122 376 122 401 142.5 c 128,-1,6
 426 163 426 163 440.5 211.5 c 128,-1,7
 455 260 455 260 455 343 c 0,8,9
 455 423 455 423 438.5 470 c 128,-1,10
 422 517 422 517 389.5 537.5 c 128,-1,11
 357 558 357 558 310 558 c 2,12,-1
 249 558 l 2,13,14
 203 558 203 558 174 543.5 c 128,-1,15
 145 529 145 529 132 505 c 128,-1,16
 119 481 119 481 119 451 c 0,17,18
 119 416 119 416 132 394 c 128,-1,19
 145 372 145 372 173 355 c 1,20,-1
 117 259 l 1,21,22
 64 286 64 286 34 329.5 c 128,-1,23
 4 373 4 373 4 441 c 0,24,25
 4 511 4 511 33.5 564.5 c 128,-1,26
 63 618 63 618 125 649 c 128,-1,27
 187 680 187 680 287 680 c 0,28,29
 385 680 385 680 453.5 643.5 c 128,-1,30
 522 607 522 607 558.5 533 c 128,-1,31
 595 459 595 459 595 343 c 0,32,33
 595 225 595 225 560 149.5 c 128,-1,34
 525 74 525 74 463.5 37 c 128,-1,35
 402 0 402 0 322 0 c 2,36,-1
 193 0 l 1,0,-1
EndSplineSet
EndChar

StartChar: Eogonek
Encoding: 280 280 101
Width: 614
GlyphClass: 2
Flags: W
AnchorPoint: "Anchor-0" 330 688 basechar 0
LayerCount: 2
Fore
SplineSet
460 -232 m 0,0,1
 410 -232 410 -232 375 -206.5 c 128,-1,2
 340 -181 340 -181 340 -134 c 0,3,4
 340 -102 340 -102 353.5 -76 c 128,-1,5
 367 -50 367 -50 386.5 -30.5 c 128,-1,6
 406 -11 406 -11 424 0 c 1,7,-1
 96 0 l 1,8,-1
 96 668 l 1,9,-1
 537 668 l 1,10,-1
 537 541 l 1,11,-1
 247 541 l 1,12,-1
 247 407 l 1,13,-1
 493 407 l 1,14,-1
 493 281 l 1,15,-1
 247 281 l 1,16,-1
 247 127 l 1,17,-1
 547 127 l 1,18,-1
 547 0 l 1,19,-1
 542 0 l 2,20,21
 517 -1 517 -1 496.5 -15.5 c 128,-1,22
 476 -30 476 -30 463.5 -51 c 128,-1,23
 451 -72 451 -72 451 -95 c 0,24,25
 451 -115 451 -115 464.5 -125 c 128,-1,26
 478 -135 478 -135 496 -135 c 0,27,28
 507 -135 507 -135 517 -129.5 c 128,-1,29
 527 -124 527 -124 535 -119 c 1,30,-1
 570 -195 l 1,31,32
 550 -210 550 -210 520 -221 c 128,-1,33
 490 -232 490 -232 460 -232 c 0,0,1
EndSplineSet
Ligature2: "'ccmp' Glyph Composition/Decomposition lookup 11 subtable" E uni0328
EndChar

StartChar: uni0193
Encoding: 403 403 119
Width: 614
GlyphClass: 1
Flags: W
LayerCount: 2
Fore
SplineSet
549 595 m 1,0,-1
 427 591 l 1,1,2
 412 618 412 618 401.5 647.5 c 128,-1,3
 391 677 391 677 391 701 c 0,4,5
 391 739 391 739 408.5 770 c 128,-1,6
 426 801 426 801 458 819.5 c 128,-1,7
 490 838 490 838 536 838 c 0,8,9
 568 838 568 838 587.5 833.5 c 128,-1,10
 607 829 607 829 623 824 c 1,11,-1
 596 713 l 1,12,13
 589 716 589 716 583 718 c 128,-1,14
 577 720 577 720 567 720 c 0,15,16
 544 720 544 720 529.5 707.5 c 128,-1,17
 515 695 515 695 515 671 c 0,18,19
 515 647 515 647 525.5 629 c 128,-1,20
 536 611 536 611 549 595 c 1,0,-1
351 -12 m 0,21,22
 266 -12 266 -12 196.5 26.5 c 128,-1,23
 127 65 127 65 86 141 c 128,-1,24
 45 217 45 217 45 330 c 0,25,26
 45 442 45 442 86 520 c 128,-1,27
 127 598 127 598 197 639 c 128,-1,28
 267 680 267 680 353 680 c 0,29,30
 421 680 421 680 469 654 c 128,-1,31
 517 628 517 628 549 595 c 1,32,-1
 466 502 l 1,33,34
 444 524 444 524 418.5 537 c 128,-1,35
 393 550 393 550 353 550 c 0,36,37
 310 550 310 550 275.5 524 c 128,-1,38
 241 498 241 498 221 449.5 c 128,-1,39
 201 401 201 401 201 335 c 0,40,41
 201 266 201 266 218.5 217.5 c 128,-1,42
 236 169 236 169 271.5 143.5 c 128,-1,43
 307 118 307 118 359 118 c 0,44,45
 378 118 378 118 396.5 123 c 128,-1,46
 415 128 415 128 425 138 c 1,47,-1
 425 253 l 1,48,-1
 328 253 l 1,49,-1
 328 376 l 1,50,-1
 560 376 l 1,51,-1
 560 69 l 1,52,53
 526 37 526 37 470 12.5 c 128,-1,54
 414 -12 414 -12 351 -12 c 0,21,22
EndSplineSet
EndChar

StartChar: Hbar
Encoding: 294 294 125
Width: 614
GlyphClass: 1
Flags: W
LayerCount: 2
Fore
SplineSet
3 496 m 1,0,-1
 3 566 l 1,1,-1
 72 572 l 1,2,-1
 611 572 l 1,3,-1
 611 496 l 1,4,-1
 3 496 l 1,0,-1
66 0 m 1,5,-1
 66 668 l 1,6,-1
 216 668 l 1,7,-1
 216 410 l 1,8,-1
 398 410 l 1,9,-1
 398 668 l 1,10,-1
 549 668 l 1,11,-1
 549 0 l 1,12,-1
 398 0 l 1,13,-1
 398 279 l 1,14,-1
 216 279 l 1,15,-1
 216 0 l 1,16,-1
 66 0 l 1,5,-1
EndSplineSet
EndChar

StartChar: Iogonek
Encoding: 302 302 134
Width: 614
GlyphClass: 2
Flags: W
AnchorPoint: "Anchor-0" 307 688 basechar 0
LayerCount: 2
Fore
SplineSet
314 -232 m 0,0,1
 264 -232 264 -232 230 -206.5 c 128,-1,2
 196 -181 196 -181 196 -134 c 0,3,4
 196 -101 196 -101 208.5 -75 c 128,-1,5
 221 -49 221 -49 239 -30 c 128,-1,6
 257 -11 257 -11 272 0 c 1,7,-1
 76 0 l 1,8,-1
 76 127 l 1,9,-1
 231 127 l 1,10,-1
 231 541 l 1,11,-1
 76 541 l 1,12,-1
 76 668 l 1,13,-1
 539 668 l 1,14,-1
 539 541 l 1,15,-1
 383 541 l 1,16,-1
 383 127 l 1,17,-1
 539 127 l 1,18,-1
 539 0 l 1,19,-1
 384 0 l 1,20,21
 342 -17 342 -17 323.5 -43.5 c 128,-1,22
 305 -70 305 -70 305 -95 c 0,23,24
 305 -115 305 -115 319.5 -125 c 128,-1,25
 334 -135 334 -135 350 -135 c 0,26,27
 361 -135 361 -135 372 -129.5 c 128,-1,28
 383 -124 383 -124 390 -119 c 1,29,-1
 425 -195 l 1,30,31
 405 -210 405 -210 374.5 -221 c 128,-1,32
 344 -232 344 -232 314 -232 c 0,0,1
EndSplineSet
Ligature2: "'ccmp' Glyph Composition/Decomposition lookup 11 subtable" I uni0328
EndChar

StartChar: Lslash
Encoding: 321 321 148
Width: 614
GlyphClass: 2
Flags: W
AnchorPoint: "Anchor-3" 343 -20 basechar 0
AnchorPoint: "Anchor-0" 198 688 basechar 0
LayerCount: 2
Fore
SplineSet
44 174 m 1,0,-1
 -7 264 l 1,1,-1
 126 339 l 1,2,-1
 245 390 l 1,3,-1
 444 501 l 1,4,-1
 495 411 l 1,5,-1
 245 273 l 1,6,-1
 126 222 l 1,7,-1
 44 174 l 1,0,-1
110 0 m 1,8,-1
 110 668 l 1,9,-1
 260 668 l 1,10,-1
 260 127 l 1,11,-1
 557 127 l 1,12,-1
 557 0 l 1,13,-1
 110 0 l 1,8,-1
EndSplineSet
EndChar

StartChar: uni01EA
Encoding: 490 490 170
Width: 614
GlyphClass: 2
Flags: W
AnchorPoint: "Anchor-0" 307 688 basechar 0
LayerCount: 2
Fore
SplineSet
330 -232 m 0,0,1
 280 -232 280 -232 245.5 -206.5 c 128,-1,2
 211 -181 211 -181 211 -134 c 0,3,4
 211 -92 211 -92 233 -61.5 c 128,-1,5
 255 -31 255 -31 279 -10 c 1,6,7
 198 -1 198 -1 144.5 47.5 c 128,-1,8
 91 96 91 96 65 171.5 c 128,-1,9
 39 247 39 247 39 337 c 0,10,11
 39 446 39 446 72.5 522.5 c 128,-1,12
 106 599 106 599 166.5 639.5 c 128,-1,13
 227 680 227 680 307 680 c 256,14,15
 387 680 387 680 447.5 639.5 c 128,-1,16
 508 599 508 599 541.5 522 c 128,-1,17
 575 445 575 445 575 337 c 0,18,19
 575 201 575 201 526 120 c 128,-1,20
 477 39 477 39 395 2 c 0,21,22
 355 -15 355 -15 338 -42.5 c 128,-1,23
 321 -70 321 -70 321 -95 c 0,24,25
 321 -115 321 -115 334.5 -125 c 128,-1,26
 348 -135 348 -135 366 -135 c 0,27,28
 377 -135 377 -135 387 -129.5 c 128,-1,29
 397 -124 397 -124 404 -119 c 1,30,-1
 440 -195 l 1,31,32
 420 -210 420 -210 390 -221 c 128,-1,33
 360 -232 360 -232 330 -232 c 0,0,1
307 115 m 256,34,35
 342 115 342 115 367.5 139 c 128,-1,36
 393 163 393 163 407 211.5 c 128,-1,37
 421 260 421 260 421 337 c 0,38,39
 421 407 421 407 407 454 c 128,-1,40
 393 501 393 501 367.5 525.5 c 128,-1,41
 342 550 342 550 307 550 c 256,42,43
 272 550 272 550 246.5 525.5 c 128,-1,44
 221 501 221 501 207.5 454 c 128,-1,45
 194 407 194 407 194 337 c 0,46,47
 194 260 194 260 207.5 211.5 c 128,-1,48
 221 163 221 163 246.5 139 c 128,-1,49
 272 115 272 115 307 115 c 256,34,35
EndSplineSet
Ligature2: "'ccmp' Glyph Composition/Decomposition lookup 11 subtable" O uni0328
EndChar

StartChar: Ohorn
Encoding: 416 416 178
Width: 614
GlyphClass: 2
Flags: W
AnchorPoint: "Anchor-3" 307 -20 basechar 0
AnchorPoint: "Anchor-0" 307 688 basechar 0
LayerCount: 2
Fore
SplineSet
489 602 m 1,0,-1
 420 652 l 1,1,2
 452 661 452 661 467.5 681 c 128,-1,3
 483 701 483 701 483 739 c 0,4,5
 483 758 483 758 478 776.5 c 128,-1,6
 473 795 473 795 468 806 c 1,7,-1
 580 851 l 1,8,9
 591 835 591 835 600 807.5 c 128,-1,10
 609 780 609 780 609 750 c 0,11,12
 609 693 609 693 579.5 655.5 c 128,-1,13
 550 618 550 618 489 602 c 1,0,-1
307 -12 m 256,14,15
 227 -12 227 -12 166.5 28 c 128,-1,16
 106 68 106 68 72.5 145 c 128,-1,17
 39 222 39 222 39 337 c 0,18,19
 39 449 39 449 72.5 525 c 128,-1,20
 106 601 106 601 166.5 640.5 c 128,-1,21
 227 680 227 680 307 680 c 256,22,23
 387 680 387 680 447.5 640.5 c 128,-1,24
 508 601 508 601 541.5 525 c 128,-1,25
 575 449 575 449 575 337 c 0,26,27
 575 222 575 222 541.5 145 c 128,-1,28
 508 68 508 68 447.5 28 c 128,-1,29
 387 -12 387 -12 307 -12 c 256,14,15
307 118 m 256,30,31
 342 118 342 118 367.5 143 c 128,-1,32
 393 168 393 168 407 216 c 128,-1,33
 421 264 421 264 421 337 c 0,34,35
 421 407 421 407 407 454 c 128,-1,36
 393 501 393 501 367.5 525.5 c 128,-1,37
 342 550 342 550 307 550 c 256,38,39
 272 550 272 550 246.5 525.5 c 128,-1,40
 221 501 221 501 207.5 454 c 128,-1,41
 194 407 194 407 194 337 c 0,42,43
 194 264 194 264 207.5 216 c 128,-1,44
 221 168 221 168 246.5 143 c 128,-1,45
 272 118 272 118 307 118 c 256,30,31
EndSplineSet
EndChar

StartChar: Oslash
Encoding: 216 216 185
Width: 614
GlyphClass: 2
Flags: W
AnchorPoint: "Anchor-2" 307 0 basechar 0
AnchorPoint: "Anchor-0" 307 688 basechar 0
LayerCount: 2
Fore
SplineSet
19 10 m 1,0,-1
 512 711 l 1,1,-1
 594 657 l 1,2,-1
 101 -43 l 1,3,-1
 19 10 l 1,0,-1
307 -12 m 256,4,5
 227 -12 227 -12 166.5 28 c 128,-1,6
 106 68 106 68 72.5 145 c 128,-1,7
 39 222 39 222 39 337 c 0,8,9
 39 449 39 449 72.5 525 c 128,-1,10
 106 601 106 601 166.5 640.5 c 128,-1,11
 227 680 227 680 307 680 c 256,12,13
 387 680 387 680 447.5 640.5 c 128,-1,14
 508 601 508 601 541.5 525 c 128,-1,15
 575 449 575 449 575 337 c 0,16,17
 575 222 575 222 541.5 145 c 128,-1,18
 508 68 508 68 447.5 28 c 128,-1,19
 387 -12 387 -12 307 -12 c 256,4,5
307 118 m 256,20,21
 342 118 342 118 367.5 143 c 128,-1,22
 393 168 393 168 407 216.5 c 128,-1,23
 421 265 421 265 421 337 c 0,24,25
 421 407 421 407 407 454 c 128,-1,26
 393 501 393 501 367.5 525.5 c 128,-1,27
 342 550 342 550 307 550 c 256,28,29
 272 550 272 550 246.5 525.5 c 128,-1,30
 221 501 221 501 207.5 454 c 128,-1,31
 194 407 194 407 194 337 c 0,32,33
 194 265 194 265 207.5 216.5 c 128,-1,34
 221 168 221 168 246.5 143 c 128,-1,35
 272 118 272 118 307 118 c 256,20,21
EndSplineSet
EndChar

StartChar: OE
Encoding: 338 338 187
Width: 614
GlyphClass: 2
Flags: W
AnchorPoint: "Anchor-2" 439 0 basechar 0
AnchorPoint: "Anchor-0" 383 688 basechar 0
LayerCount: 2
Fore
SplineSet
294 0 m 2,0,1
 215 0 215 0 153 36.5 c 128,-1,2
 91 73 91 73 55 147.5 c 128,-1,3
 19 222 19 222 19 337 c 256,4,5
 19 452 19 452 56 525 c 128,-1,6
 93 598 93 598 157 633 c 128,-1,7
 221 668 221 668 302 668 c 2,8,-1
 599 668 l 1,9,-1
 599 542 l 1,10,-1
 435 542 l 1,11,-1
 435 407 l 1,12,-1
 559 407 l 1,13,-1
 559 281 l 1,14,-1
 435 281 l 1,15,-1
 435 127 l 1,16,-1
 609 127 l 1,17,-1
 609 0 l 1,18,-1
 294 0 l 2,0,1
285 122 m 2,19,-1
 301 122 l 1,20,-1
 301 546 l 1,21,-1
 285 546 l 2,22,23
 251 546 251 546 226.5 527 c 128,-1,24
 202 508 202 508 188 462.5 c 128,-1,25
 174 417 174 417 174 337 c 0,26,27
 174 256 174 256 188 209 c 128,-1,28
 202 162 202 162 226.5 142 c 128,-1,29
 251 122 251 122 285 122 c 2,19,-1
EndSplineSet
EndChar

StartChar: uni1E9E
Encoding: 7838 7838 203
Width: 614
GlyphClass: 1
Flags: W
LayerCount: 2
Fore
SplineSet
402 -12 m 0,0,1
 352 -12 352 -12 311 6.5 c 128,-1,2
 270 25 270 25 246 53 c 1,3,-1
 307 144 l 1,4,5
 324 127 324 127 342 118.5 c 128,-1,6
 360 110 360 110 383 110 c 256,7,8
 406 110 406 110 421.5 127.5 c 128,-1,9
 437 145 437 145 437 175 c 0,10,11
 437 197 437 197 425.5 217.5 c 128,-1,12
 414 238 414 238 387 254 c 128,-1,13
 360 270 360 270 316 282 c 1,14,-1
 305 370 l 1,15,-1
 411 523 l 1,16,-1
 397 475 l 1,17,18
 393 520 393 520 368 539 c 128,-1,19
 343 558 343 558 310 558 c 0,20,21
 264 558 264 558 240 525.5 c 128,-1,22
 216 493 216 493 216 424 c 2,23,-1
 216 0 l 1,24,-1
 66 0 l 1,25,-1
 66 444 l 2,26,27
 66 513 66 513 91.5 565.5 c 128,-1,28
 117 618 117 618 171 649 c 128,-1,29
 225 680 225 680 308 680 c 0,30,31
 402 680 402 680 462 628.5 c 128,-1,32
 522 577 522 577 543 493 c 1,33,-1
 440 342 l 1,34,-1
 434 382 l 1,35,36
 491 354 491 354 526.5 324.5 c 128,-1,37
 562 295 562 295 578 258 c 128,-1,38
 594 221 594 221 594 173 c 0,39,40
 594 121 594 121 573.5 79.5 c 128,-1,41
 553 38 553 38 510.5 13 c 128,-1,42
 468 -12 468 -12 402 -12 c 0,0,1
EndSplineSet
EndChar

StartChar: Tbar
Encoding: 358 358 209
Width: 614
GlyphClass: 2
Flags: W
AnchorPoint: "Anchor-3" 307 -20 basechar 0
AnchorPoint: "Anchor-0" 307 688 basechar 0
LayerCount: 2
Fore
SplineSet
95 290 m 1,0,-1
 95 360 l 1,1,-1
 191 367 l 1,2,-1
 519 367 l 1,3,-1
 519 290 l 1,4,-1
 95 290 l 1,0,-1
231 0 m 1,5,-1
 231 541 l 1,6,-1
 32 541 l 1,7,-1
 32 668 l 1,8,-1
 583 668 l 1,9,-1
 583 541 l 1,10,-1
 383 541 l 1,11,-1
 383 0 l 1,12,-1
 231 0 l 1,5,-1
EndSplineSet
EndChar

StartChar: Uogonek
Encoding: 370 370 220
Width: 614
GlyphClass: 2
Flags: W
AnchorPoint: "Anchor-0" 307 688 basechar 0
LayerCount: 2
Fore
SplineSet
330 -232 m 0,0,1
 280 -232 280 -232 245.5 -206.5 c 128,-1,2
 211 -181 211 -181 211 -134 c 0,3,4
 211 -102 211 -102 223.5 -77.5 c 128,-1,5
 236 -53 236 -53 252 -35.5 c 128,-1,6
 268 -18 268 -18 278 -10 c 1,7,8
 208 -5 208 -5 161 27.5 c 128,-1,9
 114 60 114 60 90 117.5 c 128,-1,10
 66 175 66 175 66 257 c 2,11,-1
 66 668 l 1,12,-1
 216 668 l 1,13,-1
 216 242 l 2,14,15
 216 202 216 202 226.5 174 c 128,-1,16
 237 146 237 146 257.5 132 c 128,-1,17
 278 118 278 118 308 118 c 0,18,19
 341 118 341 118 361.5 132 c 128,-1,20
 382 146 382 146 392.5 174 c 128,-1,21
 403 202 403 202 403 242 c 2,22,-1
 403 668 l 1,23,-1
 549 668 l 1,24,-1
 549 257 l 2,25,26
 549 194 549 194 534.5 145 c 128,-1,27
 520 96 520 96 491.5 62 c 128,-1,28
 463 28 463 28 418 7 c 0,29,30
 377 -11 377 -11 356.5 -29 c 128,-1,31
 336 -47 336 -47 328.5 -63.5 c 128,-1,32
 321 -80 321 -80 321 -95 c 0,33,34
 321 -115 321 -115 334.5 -125 c 128,-1,35
 348 -135 348 -135 366 -135 c 0,36,37
 377 -135 377 -135 387 -129.5 c 128,-1,38
 397 -124 397 -124 404 -119 c 1,39,-1
 440 -195 l 1,40,41
 420 -210 420 -210 390 -221 c 128,-1,42
 360 -232 360 -232 330 -232 c 0,0,1
EndSplineSet
Ligature2: "'ccmp' Glyph Composition/Decomposition lookup 11 subtable" U uni0328
EndChar

StartChar: Uhorn
Encoding: 431 431 227
Width: 614
GlyphClass: 2
Flags: W
AnchorPoint: "Anchor-3" 307 -20 basechar 0
AnchorPoint: "Anchor-0" 307 688 basechar 0
LayerCount: 2
Fore
SplineSet
549 612 m 1,0,-1
 475 668 l 1,1,2
 494 669 494 669 511 674.5 c 128,-1,3
 528 680 528 680 539 696 c 128,-1,4
 550 712 550 712 550 742 c 0,5,6
 550 762 550 762 545 780 c 128,-1,7
 540 798 540 798 535 809 c 1,8,-1
 646 854 l 1,9,10
 657 838 657 838 666.5 811 c 128,-1,11
 676 784 676 784 676 754 c 0,12,13
 676 712 676 712 661 683 c 128,-1,14
 646 654 646 654 617.5 636.5 c 128,-1,15
 589 619 589 619 549 612 c 1,0,-1
309 -12 m 0,16,17
 248 -12 248 -12 202.5 6 c 128,-1,18
 157 24 157 24 126.5 58 c 128,-1,19
 96 92 96 92 81 141.5 c 128,-1,20
 66 191 66 191 66 257 c 2,21,-1
 66 668 l 1,22,-1
 216 668 l 1,23,-1
 216 242 l 2,24,25
 216 202 216 202 226.5 174 c 128,-1,26
 237 146 237 146 257.5 132 c 128,-1,27
 278 118 278 118 309 118 c 256,28,29
 341 118 341 118 362 132 c 128,-1,30
 383 146 383 146 393 174 c 128,-1,31
 403 202 403 202 403 242 c 2,32,-1
 403 668 l 1,33,-1
 549 668 l 1,34,-1
 549 257 l 2,35,36
 549 191 549 191 534.5 141.5 c 128,-1,37
 520 92 520 92 490 58 c 128,-1,38
 460 24 460 24 414.5 6 c 128,-1,39
 369 -12 369 -12 309 -12 c 0,16,17
EndSplineSet
EndChar

StartChar: Eth
Encoding: 208 208 252
Width: 614
GlyphClass: 2
Flags: W
AnchorPoint: "Anchor-3" 297 -20 basechar 0
AnchorPoint: "Anchor-0" 304 688 basechar 0
LayerCount: 2
Fore
SplineSet
72 0 m 1,0,-1
 72 305 l 1,1,-1
 0 305 l 1,2,-1
 0 376 l 1,3,-1
 72 382 l 1,4,-1
 72 668 l 1,5,-1
 257 668 l 2,6,7
 353 668 353 668 425.5 633 c 128,-1,8
 498 598 498 598 538 525 c 128,-1,9
 578 452 578 452 578 337 c 256,10,11
 578 222 578 222 538 147.5 c 128,-1,12
 498 73 498 73 427.5 36.5 c 128,-1,13
 357 0 357 0 265 0 c 2,14,-1
 72 0 l 1,0,-1
223 122 m 1,15,-1
 248 122 l 2,16,17
 300 122 300 122 339 142.5 c 128,-1,18
 378 163 378 163 400.5 210 c 128,-1,19
 423 257 423 257 423 337 c 256,20,21
 423 417 423 417 400.5 462.5 c 128,-1,22
 378 508 378 508 339 527 c 128,-1,23
 300 546 300 546 248 546 c 2,24,-1
 223 546 l 1,25,-1
 223 382 l 1,26,-1
 334 382 l 1,27,-1
 334 305 l 1,28,-1
 223 305 l 1,29,-1
 223 122 l 1,15,-1
EndSplineSet
EndChar

StartChar: Thorn
Encoding: 222 222 253
Width: 614
GlyphClass: 1
Flags: W
LayerCount: 2
Fore
SplineSet
75 0 m 1,0,-1
 75 668 l 1,1,-1
 225 668 l 1,2,-1
 225 566 l 1,3,-1
 318 566 l 2,4,5
 391 566 391 566 450 546 c 128,-1,6
 509 526 509 526 544.5 479.5 c 128,-1,7
 580 433 580 433 580 352 c 0,8,9
 580 273 580 273 544 223.5 c 128,-1,10
 508 174 508 174 448.5 150 c 128,-1,11
 389 126 389 126 318 126 c 2,12,-1
 225 126 l 1,13,-1
 225 0 l 1,14,-1
 75 0 l 1,0,-1
225 246 m 1,15,-1
 309 246 l 2,16,17
 371 246 371 246 401 273 c 128,-1,18
 431 300 431 300 431 352 c 256,19,20
 431 404 431 404 400.5 425 c 128,-1,21
 370 446 370 446 309 446 c 2,22,-1
 225 446 l 1,23,-1
 225 246 l 1,15,-1
EndSplineSet
EndChar

StartChar: uni018F
Encoding: 399 399 254
Width: 614
GlyphClass: 2
Flags: W
AnchorPoint: "Anchor-6" 317 0 basechar 0
AnchorPoint: "Anchor-3" 315 -20 basechar 0
AnchorPoint: "Anchor-2" 317 0 basechar 0
AnchorPoint: "Anchor-0" 327 688 basechar 0
LayerCount: 2
Fore
SplineSet
310 -12 m 0,0,1
 234 -12 234 -12 175.5 29 c 128,-1,2
 117 70 117 70 84 146.5 c 128,-1,3
 51 223 51 223 51 331 c 0,4,5
 51 343 51 343 52 355.5 c 128,-1,6
 53 368 53 368 54 381 c 1,7,-1
 462 381 l 1,8,-1
 462 270 l 1,9,-1
 176 270 l 1,10,-1
 197 335 l 1,11,12
 197 251 197 251 211 204 c 128,-1,13
 225 157 225 157 250.5 137.5 c 128,-1,14
 276 118 276 118 310 118 c 0,15,16
 343 118 343 118 368.5 137.5 c 128,-1,17
 394 157 394 157 409 204 c 128,-1,18
 424 251 424 251 424 335 c 0,19,20
 424 410 424 410 409.5 457.5 c 128,-1,21
 395 505 395 505 366 527.5 c 128,-1,22
 337 550 337 550 295 550 c 0,23,24
 259 550 259 550 231.5 536 c 128,-1,25
 204 522 204 522 183 502 c 1,26,-1
 114 605 l 1,27,28
 149 638 149 638 196.5 659 c 128,-1,29
 244 680 244 680 307 680 c 0,30,31
 387 680 387 680 447 639 c 128,-1,32
 507 598 507 598 540 521 c 128,-1,33
 573 444 573 444 573 335 c 0,34,35
 573 226 573 226 539.5 148.5 c 128,-1,36
 506 71 506 71 446.5 29.5 c 128,-1,37
 387 -12 387 -12 310 -12 c 0,0,1
EndSplineSet
EndChar

StartChar: Eng
Encoding: 330 330 255
Width: 614
GlyphClass: 2
Flags: W
AnchorPoint: "Anchor-3" 309 -20 basechar 0
AnchorPoint: "Anchor-0" 327 688 basechar 0
LayerCount: 2
Fore
SplineSet
370 -12 m 0,0,1
 348 -12 348 -12 324 -8 c 128,-1,2
 300 -4 300 -4 286 5 c 1,3,-1
 318 136 l 1,4,5
 324 133 324 133 332.5 130.5 c 128,-1,6
 341 128 341 128 352 128 c 0,7,8
 372 128 372 128 386 145 c 128,-1,9
 400 162 400 162 407.5 207.5 c 128,-1,10
 415 253 415 253 415 339 c 0,11,12
 415 417 415 417 403.5 463 c 128,-1,13
 392 509 392 509 371.5 529.5 c 128,-1,14
 351 550 351 550 322 550 c 0,15,16
 305 550 305 550 286 541 c 128,-1,17
 267 532 267 532 249.5 515.5 c 128,-1,18
 232 499 232 499 218 474 c 1,19,-1
 218 0 l 1,20,-1
 67 0 l 1,21,-1
 67 668 l 1,22,-1
 213 668 l 1,23,-1
 213 604 l 1,24,25
 233 629 233 629 256.5 646 c 128,-1,26
 280 663 280 663 305.5 671.5 c 128,-1,27
 331 680 331 680 360 680 c 0,28,29
 419 680 419 680 466.5 646.5 c 128,-1,30
 514 613 514 613 541.5 538.5 c 128,-1,31
 569 464 569 464 569 339 c 0,32,33
 569 221 569 221 549 143 c 128,-1,34
 529 65 529 65 486.5 26.5 c 128,-1,35
 444 -12 444 -12 370 -12 c 0,0,1
EndSplineSet
Substitution2: "'ss05' Style Set 5 lookup 0 subtable" uni014A.a
EndChar

StartChar: IJ
Encoding: 306 306 256
Width: 614
GlyphClass: 1
Flags: W
LayerCount: 2
Fore
SplineSet
76 0 m 1,0,-1
 76 668 l 1,1,-1
 227 668 l 1,2,-1
 227 0 l 1,3,-1
 76 0 l 1,0,-1
351 -186 m 0,4,5
 317 -186 317 -186 294.5 -181 c 128,-1,6
 272 -176 272 -176 255 -170 c 1,7,-1
 282 -58 l 1,8,9
 294 -62 294 -62 305.5 -65 c 128,-1,10
 317 -68 317 -68 328 -68 c 0,11,12
 362 -68 362 -68 374.5 -48 c 128,-1,13
 387 -28 387 -28 387 14 c 2,14,-1
 387 668 l 1,15,-1
 539 668 l 1,16,-1
 539 18 l 2,17,18
 539 -37 539 -37 522 -83.5 c 128,-1,19
 505 -130 505 -130 464 -158 c 128,-1,20
 423 -186 423 -186 351 -186 c 0,4,5
EndSplineSet
EndChar

StartChar: uni004C00B7004C
Encoding: 1114114 -1 257
Width: 614
GlyphClass: 1
Flags: W
LayerCount: 2
Fore
SplineSet
39 0 m 1,0,-1
 39 668 l 1,1,-1
 173 668 l 1,2,-1
 173 127 l 1,3,-1
 281 127 l 1,4,-1
 281 0 l 1,5,-1
 39 0 l 1,0,-1
261 304 m 256,6,7
 228 304 228 304 207 325.5 c 128,-1,8
 186 347 186 347 186 379 c 0,9,10
 186 412 186 412 207 433.5 c 128,-1,11
 228 455 228 455 261 455 c 256,12,13
 294 455 294 455 314.5 433.5 c 128,-1,14
 335 412 335 412 335 379 c 0,15,16
 335 347 335 347 314.5 325.5 c 128,-1,17
 294 304 294 304 261 304 c 256,6,7
349 0 m 1,18,-1
 349 668 l 1,19,-1
 483 668 l 1,20,-1
 483 127 l 1,21,-1
 591 127 l 1,22,-1
 591 0 l 1,23,-1
 349 0 l 1,18,-1
EndSplineSet
Ligature2: "'ccmp' Glyph Composition/Decomposition lookup 11 subtable" L periodcentered L
EndChar

StartChar: aringacute
Encoding: 507 507 267
Width: 614
GlyphClass: 1
Flags: W
LayerCount: 2
Fore
SplineSet
299 752 m 1,0,-1
 236 768 l 1,1,-1
 396 899 l 1,2,-1
 457 823 l 1,3,-1
 299 752 l 1,0,-1
229 -12 m 0,4,5
 178 -12 178 -12 140.5 8.5 c 128,-1,6
 103 29 103 29 82.5 63.5 c 128,-1,7
 62 98 62 98 62 141 c 0,8,9
 62 226 62 226 139.5 271 c 128,-1,10
 217 316 217 316 397 327 c 1,11,12
 394 351 394 351 382 367 c 128,-1,13
 370 383 370 383 347 391.5 c 128,-1,14
 324 400 324 400 289 400 c 0,15,16
 264 400 264 400 239.5 394.5 c 128,-1,17
 215 389 215 389 189 378.5 c 128,-1,18
 163 368 163 368 134 353 c 1,19,-1
 81 452 l 1,20,21
 116 472 116 472 154.5 487.5 c 128,-1,22
 193 503 193 503 234 511.5 c 128,-1,23
 275 520 275 520 318 520 c 0,24,25
 390 520 390 520 441.5 495 c 128,-1,26
 493 470 493 470 520.5 419.5 c 128,-1,27
 548 369 548 369 548 291 c 2,28,-1
 548 0 l 1,29,-1
 425 0 l 1,30,-1
 414 57 l 1,31,-1
 410 57 l 1,32,33
 372 28 372 28 325.5 8 c 128,-1,34
 279 -12 279 -12 229 -12 c 0,4,5
278 104 m 0,35,36
 312 104 312 104 341.5 118 c 128,-1,37
 371 132 371 132 397 153 c 1,38,-1
 397 237 l 1,39,40
 322 233 322 233 281 221.5 c 128,-1,41
 240 210 240 210 223.5 192.5 c 128,-1,42
 207 175 207 175 207 153 c 0,43,44
 207 138 207 138 215.5 126.5 c 128,-1,45
 224 115 224 115 240 109.5 c 128,-1,46
 256 104 256 104 278 104 c 0,35,36
328 582 m 0,47,48
 261 582 261 582 227 613 c 128,-1,49
 193 644 193 644 193 688 c 256,50,51
 193 732 193 732 227 763 c 128,-1,52
 261 794 261 794 328 794 c 0,53,54
 396 794 396 794 429.5 763 c 128,-1,55
 463 732 463 732 463 688 c 256,56,57
 463 644 463 644 429.5 613 c 128,-1,58
 396 582 396 582 328 582 c 0,47,48
328 638 m 256,59,60
 346 638 346 638 359 652.5 c 128,-1,61
 372 667 372 667 372 688 c 256,62,63
 372 710 372 710 359 723.5 c 128,-1,64
 346 737 346 737 328 737 c 256,65,66
 310 737 310 737 297 723.5 c 128,-1,67
 284 710 284 710 284 688 c 256,68,69
 284 666 284 666 297 652 c 128,-1,70
 310 638 310 638 328 638 c 256,59,60
EndSplineSet
Substitution2: "'ss02' Style Set 2 lookup 29 subtable" aringacute.a
EndChar

StartChar: aogonek
Encoding: 261 261 269
Width: 614
GlyphClass: 2
Flags: W
AnchorPoint: "Anchor-0" 328 528 basechar 0
LayerCount: 2
Fore
SplineSet
457 -232 m 0,0,1
 408 -232 408 -232 372.5 -206.5 c 128,-1,2
 337 -181 337 -181 337 -131 c 0,3,4
 337 -98 337 -98 351 -73.5 c 128,-1,5
 365 -49 365 -49 386.5 -30.5 c 128,-1,6
 408 -12 408 -12 426 -2 c 1,7,-1
 414 57 l 1,8,-1
 410 57 l 1,9,10
 372 28 372 28 326 8 c 128,-1,11
 280 -12 280 -12 229 -12 c 0,12,13
 178 -12 178 -12 140.5 8.5 c 128,-1,14
 103 29 103 29 82.5 63.5 c 128,-1,15
 62 98 62 98 62 141 c 0,16,17
 62 226 62 226 139.5 271 c 128,-1,18
 217 316 217 316 397 327 c 1,19,20
 394 351 394 351 382 367 c 128,-1,21
 370 383 370 383 347 391.5 c 128,-1,22
 324 400 324 400 289 400 c 0,23,24
 264 400 264 400 239.5 394.5 c 128,-1,25
 215 389 215 389 189 378.5 c 128,-1,26
 163 368 163 368 134 353 c 1,27,-1
 81 452 l 1,28,29
 116 472 116 472 154.5 487.5 c 128,-1,30
 193 503 193 503 234 511.5 c 128,-1,31
 275 520 275 520 318 520 c 0,32,33
 390 520 390 520 441.5 495 c 128,-1,34
 493 470 493 470 520.5 419.5 c 128,-1,35
 548 369 548 369 548 291 c 2,36,-1
 548 0 l 1,37,38
 490 -16 490 -16 464 -43.5 c 128,-1,39
 438 -71 438 -71 438 -96 c 0,40,41
 438 -121 438 -121 455 -132 c 128,-1,42
 472 -143 472 -143 493 -143 c 0,43,44
 506 -143 506 -143 519 -138.5 c 128,-1,45
 532 -134 532 -134 540 -129 c 1,46,-1
 571 -196 l 1,47,48
 551 -213 551 -213 518.5 -222.5 c 128,-1,49
 486 -232 486 -232 457 -232 c 0,0,1
278 104 m 0,50,51
 312 104 312 104 341.5 118 c 128,-1,52
 371 132 371 132 397 153 c 1,53,-1
 397 237 l 1,54,55
 322 233 322 233 281 221.5 c 128,-1,56
 240 210 240 210 223.5 192.5 c 128,-1,57
 207 175 207 175 207 153 c 0,58,59
 207 138 207 138 215.5 126.5 c 128,-1,60
 224 115 224 115 240 109.5 c 128,-1,61
 256 104 256 104 278 104 c 0,50,51
EndSplineSet
Substitution2: "'ss02' Style Set 2 lookup 29 subtable" aogonek.a
Ligature2: "'ccmp' Glyph Composition/Decomposition lookup 11 subtable" a uni0328
EndChar

StartChar: ae
Encoding: 230 230 282
Width: 614
GlyphClass: 2
Flags: W
AnchorPoint: "Anchor-3" 315 -20 basechar 0
AnchorPoint: "Anchor-2" 445 0 basechar 0
AnchorPoint: "Anchor-0" 317 528 basechar 0
LayerCount: 2
Fore
SplineSet
153 -12 m 0,0,1
 93 -12 93 -12 54.5 29 c 128,-1,2
 16 70 16 70 16 133 c 0,3,4
 16 189 16 189 44.5 228 c 128,-1,5
 73 267 73 267 129.5 291 c 128,-1,6
 186 315 186 315 273 325 c 1,7,-1
 273 236 l 1,8,9
 226 231 226 231 199.5 219 c 128,-1,10
 173 207 173 207 162 189.5 c 128,-1,11
 151 172 151 172 151 152 c 0,12,13
 151 128 151 128 164.5 116 c 128,-1,14
 178 104 178 104 199 104 c 0,15,16
 215 104 215 104 235 115 c 128,-1,17
 255 126 255 126 281 158 c 1,18,-1
 323 90 l 1,19,20
 278 35 278 35 237 11.5 c 128,-1,21
 196 -12 196 -12 153 -12 c 0,0,1
456 -12 m 0,22,23
 390 -12 390 -12 344 21 c 128,-1,24
 298 54 298 54 273.5 108.5 c 128,-1,25
 249 163 249 163 249 227 c 2,26,-1
 249 299 l 2,27,28
 249 360 249 360 230.5 380 c 128,-1,29
 212 400 212 400 185 400 c 0,30,31
 157 400 157 400 133.5 391 c 128,-1,32
 110 382 110 382 83 366 c 1,33,-1
 30 464 l 1,34,35
 72 490 72 490 113.5 505 c 128,-1,36
 155 520 155 520 196 520 c 0,37,38
 242 520 242 520 274.5 497 c 128,-1,39
 307 474 307 474 331 416 c 1,40,-1
 300 416 l 1,41,42
 331 474 331 474 367.5 497 c 128,-1,43
 404 520 404 520 446 520 c 0,44,45
 499 520 499 520 535 487 c 128,-1,46
 571 454 571 454 589 398 c 128,-1,47
 607 342 607 342 607 275 c 0,48,49
 607 255 607 255 605 237 c 128,-1,50
 603 219 603 219 601 209 c 1,51,-1
 336 209 l 1,52,-1
 336 304 l 1,53,-1
 514 304 l 1,54,-1
 489 284 l 1,55,56
 489 350 489 350 476.5 378 c 128,-1,57
 464 406 464 406 434 406 c 0,58,59
 416 406 416 406 399 391.5 c 128,-1,60
 382 377 382 377 371 343.5 c 128,-1,61
 360 310 360 310 360 254 c 0,62,63
 360 205 360 205 373.5 172 c 128,-1,64
 387 139 387 139 409.5 122 c 128,-1,65
 432 105 432 105 462 105 c 0,66,67
 482 105 482 105 501 112.5 c 128,-1,68
 520 120 520 120 540 133 c 1,69,-1
 592 36 l 1,70,71
 562 12 562 12 525.5 0 c 128,-1,72
 489 -12 489 -12 456 -12 c 0,22,23
EndSplineSet
EndChar

StartChar: uni0180
Encoding: 384 384 285
Width: 614
GlyphClass: 1
Flags: W
LayerCount: 2
Fore
SplineSet
346 -12 m 0,0,1
 311 -12 311 -12 275.5 5.5 c 128,-1,2
 240 23 240 23 208 55 c 1,3,-1
 204 55 l 1,4,-1
 191 0 l 1,5,-1
 74 0 l 1,6,-1
 74 717 l 1,7,-1
 224 717 l 1,8,-1
 221 516 l 1,9,-1
 219 441 l 1,10,-1
 223 441 l 1,11,12
 252 469 252 469 288.5 484.5 c 128,-1,13
 325 500 325 500 361 500 c 0,14,15
 426 500 426 500 471.5 469.5 c 128,-1,16
 517 439 517 439 541.5 383.5 c 128,-1,17
 566 328 566 328 566 253 c 0,18,19
 566 169 566 169 535 109.5 c 128,-1,20
 504 50 504 50 453.5 19 c 128,-1,21
 403 -12 403 -12 346 -12 c 0,0,1
312 111 m 0,22,23
 340 111 340 111 362.5 125 c 128,-1,24
 385 139 385 139 398.5 170.5 c 128,-1,25
 412 202 412 202 412 250 c 0,26,27
 412 293 412 293 401.5 320.5 c 128,-1,28
 391 348 391 348 370.5 362.5 c 128,-1,29
 350 377 350 377 318 377 c 0,30,31
 293 377 293 377 271 366 c 128,-1,32
 249 355 249 355 224 330 c 1,33,-1
 224 144 l 1,34,35
 246 126 246 126 269 118.5 c 128,-1,36
 292 111 292 111 312 111 c 0,22,23
6 566 m 1,37,-1
 6 638 l 1,38,-1
 84 644 l 1,39,-1
 411 644 l 1,40,-1
 411 566 l 1,41,-1
 6 566 l 1,37,-1
EndSplineSet
EndChar

StartChar: dcaron
Encoding: 271 271 292
Width: 614
GlyphClass: 1
Flags: W
LayerCount: 2
Fore
SplineSet
224 -12 m 0,0,1
 137 -12 137 -12 86 59 c 128,-1,2
 35 130 35 130 35 254 c 0,3,4
 35 337 35 337 62.5 396.5 c 128,-1,5
 90 456 90 456 134 488 c 128,-1,6
 178 520 178 520 226 520 c 0,7,8
 263 520 263 520 288 505 c 128,-1,9
 313 490 313 490 338 466 c 1,10,-1
 341 466 l 1,11,-1
 335 545 l 1,12,-1
 335 718 l 1,13,-1
 476 718 l 1,14,-1
 476 0 l 1,15,-1
 362 0 l 1,16,-1
 351 52 l 1,17,-1
 347 52 l 1,18,19
 321 26 321 26 289.5 7 c 128,-1,20
 258 -12 258 -12 224 -12 c 0,0,1
262 111 m 0,21,22
 282 111 282 111 298.5 122.5 c 128,-1,23
 315 134 315 134 335 158 c 1,24,-1
 335 364 l 1,25,26
 316 380 316 380 300 388.5 c 128,-1,27
 284 397 284 397 266 397 c 0,28,29
 243 397 243 397 223.5 382 c 128,-1,30
 204 367 204 367 192 335.5 c 128,-1,31
 180 304 180 304 180 256 c 0,32,33
 180 181 180 181 202 146 c 128,-1,34
 224 111 224 111 262 111 c 0,21,22
521 561 m 1,35,-1
 516 842 l 1,36,-1
 649 842 l 1,37,-1
 648 741 l 1,38,-1
 624 561 l 1,39,-1
 521 561 l 1,35,-1
EndSplineSet
Ligature2: "'ccmp' Glyph Composition/Decomposition lookup 11 subtable" d uni030C
EndChar

StartChar: dcroat
Encoding: 273 273 296
Width: 614
GlyphClass: 2
Flags: W
AnchorPoint: "Anchor-3" 315 -20 basechar 0
AnchorPoint: "Anchor-0" 456 750 basechar 0
LayerCount: 2
Fore
SplineSet
263 -12 m 0,0,1
 166 -12 166 -12 107 56 c 128,-1,2
 48 124 48 124 48 244 c 0,3,4
 48 324 48 324 80 381 c 128,-1,5
 112 438 112 438 161.5 469 c 128,-1,6
 211 500 211 500 265 500 c 0,7,8
 308 500 308 500 338.5 485 c 128,-1,9
 369 470 369 470 393 444 c 1,10,-1
 397 444 l 1,11,-1
 390 523 l 1,12,-1
 390 717 l 1,13,-1
 541 717 l 1,14,-1
 541 0 l 1,15,-1
 418 0 l 1,16,-1
 407 52 l 1,17,-1
 403 52 l 1,18,19
 375 24 375 24 338 6 c 128,-1,20
 301 -12 301 -12 263 -12 c 0,0,1
301 111 m 0,21,22
 327 111 327 111 349 121.5 c 128,-1,23
 371 132 371 132 390 159 c 1,24,-1
 390 343 l 1,25,26
 370 361 370 361 349 369 c 128,-1,27
 328 377 328 377 307 377 c 0,28,29
 279 377 279 377 255 362.5 c 128,-1,30
 231 348 231 348 217 319.5 c 128,-1,31
 203 291 203 291 203 245 c 0,32,33
 203 176 203 176 228.5 143.5 c 128,-1,34
 254 111 254 111 301 111 c 0,21,22
230 566 m 1,35,-1
 230 644 l 1,36,-1
 608 644 l 1,37,-1
 608 572 l 1,38,-1
 532 566 l 1,39,-1
 230 566 l 1,35,-1
EndSplineSet
EndChar

StartChar: eogonek
Encoding: 281 281 304
Width: 614
GlyphClass: 2
Flags: W
AnchorPoint: "Anchor-0" 318 528 basechar 0
LayerCount: 2
Fore
SplineSet
425 -232 m 0,0,1
 373 -232 373 -232 339 -206.5 c 128,-1,2
 305 -181 305 -181 305 -131 c 0,3,4
 305 -88 305 -88 329.5 -55.5 c 128,-1,5
 354 -23 354 -23 398 11 c 1,6,-1
 407 -1 l 1,7,8
 382 -9 382 -9 364.5 -10.5 c 128,-1,9
 347 -12 347 -12 338 -12 c 0,10,11
 259 -12 259 -12 195 19 c 128,-1,12
 131 50 131 50 93.5 110 c 128,-1,13
 56 170 56 170 56 254 c 0,14,15
 56 337 56 337 94 397 c 128,-1,16
 132 457 132 457 192.5 488.5 c 128,-1,17
 253 520 253 520 321 520 c 0,18,19
 400 520 400 520 453 488 c 128,-1,20
 506 456 506 456 533 401 c 128,-1,21
 560 346 560 346 560 276 c 0,22,23
 560 256 560 256 557.5 237 c 128,-1,24
 555 218 555 218 553 209 c 1,25,-1
 168 209 l 1,26,-1
 168 310 l 1,27,-1
 452 310 l 1,28,-1
 428 282 l 1,29,30
 428 343 428 343 402 374.5 c 128,-1,31
 376 406 376 406 326 406 c 0,32,33
 289 406 289 406 261 389.5 c 128,-1,34
 233 373 233 373 218 339 c 128,-1,35
 203 305 203 305 203 254 c 0,36,37
 203 202 203 202 221.5 168.5 c 128,-1,38
 240 135 240 135 274.5 118.5 c 128,-1,39
 309 102 309 102 358 102 c 0,40,41
 393 102 393 102 424.5 111.5 c 128,-1,42
 456 121 456 121 489 138 c 1,43,-1
 540 47 l 1,44,45
 488 12 488 12 459 -11.5 c 128,-1,46
 430 -35 430 -35 418.5 -55 c 128,-1,47
 407 -75 407 -75 407 -96 c 0,48,49
 407 -120 407 -120 422.5 -131.5 c 128,-1,50
 438 -143 438 -143 461 -143 c 0,51,52
 474 -143 474 -143 486.5 -139 c 128,-1,53
 499 -135 499 -135 508 -128 c 1,54,-1
 541 -196 l 1,55,56
 519 -213 519 -213 486.5 -222.5 c 128,-1,57
 454 -232 454 -232 425 -232 c 0,0,1
EndSplineSet
Substitution2: "'sups' Superscript lookup 23 subtable" eogonek.sups
Ligature2: "'ccmp' Glyph Composition/Decomposition lookup 11 subtable" e uni0328
EndChar

StartChar: hbar
Encoding: 295 295 329
Width: 614
GlyphClass: 1
Flags: W
LayerCount: 2
Fore
SplineSet
74 0 m 1,0,-1
 74 717 l 1,1,-1
 224 717 l 1,2,-1
 224 522 l 1,3,-1
 215 424 l 1,4,-1
 219 424 l 1,5,6
 248 454 248 454 289.5 477 c 128,-1,7
 331 500 331 500 388 500 c 0,8,9
 474 500 474 500 513.5 444.5 c 128,-1,10
 553 389 553 389 553 293 c 2,11,-1
 553 0 l 1,12,-1
 402 0 l 1,13,-1
 402 273 l 2,14,15
 402 324 402 324 385.5 348 c 128,-1,16
 369 372 369 372 328 372 c 0,17,18
 297 372 297 372 274 358 c 128,-1,19
 251 344 251 344 224 318 c 1,20,-1
 224 0 l 1,21,-1
 74 0 l 1,0,-1
6 566 m 1,22,-1
 6 638 l 1,23,-1
 84 644 l 1,24,-1
 411 644 l 1,25,-1
 411 566 l 1,26,-1
 6 566 l 1,22,-1
EndSplineSet
EndChar

StartChar: dotlessi
Encoding: 305 305 341
Width: 614
GlyphClass: 2
Flags: W
AnchorPoint: "Anchor-6" 360 0 basechar 0
AnchorPoint: "Anchor-3" 353 -20 basechar 0
AnchorPoint: "Anchor-2" 362 0 basechar 0
AnchorPoint: "Anchor-0" 353 528 basechar 0
LayerCount: 2
Fore
SplineSet
285 0 m 1,0,-1
 285 390 l 1,1,-1
 80 390 l 1,2,-1
 80 508 l 1,3,-1
 435 508 l 1,4,-1
 435 0 l 1,5,-1
 285 0 l 1,0,-1
EndSplineSet
Substitution2: "'ss04' Style Set 4 lookup 31 subtable" dotlessi.a
EndChar

StartChar: kgreenlandic
Encoding: 312 312 346
Width: 614
GlyphClass: 1
Flags: W
LayerCount: 2
Fore
SplineSet
78 0 m 1,0,-1
 78 508 l 1,1,-1
 228 508 l 1,2,-1
 228 306 l 1,3,-1
 231 307 l 1,4,-1
 419 508 l 1,5,-1
 584 508 l 1,6,-1
 391 299 l 1,7,-1
 599 0 l 1,8,-1
 436 0 l 1,9,-1
 304 200 l 1,10,-1
 228 126 l 1,11,-1
 228 0 l 1,12,-1
 78 0 l 1,0,-1
EndSplineSet
EndChar

StartChar: lslash
Encoding: 322 322 353
Width: 614
GlyphClass: 2
Flags: W
AnchorPoint: "Anchor-3" 376 -20 basechar 0
AnchorPoint: "Anchor-0" 281 750 basechar 0
LayerCount: 2
Fore
SplineSet
124 236 m 1,0,-1
 73 329 l 1,1,-1
 218 410 l 1,2,-1
 333 461 l 1,3,-1
 486 547 l 1,4,-1
 538 453 l 1,5,-1
 333 341 l 1,6,-1
 218 290 l 1,7,-1
 124 236 l 1,0,-1
404 -12 m 0,8,9
 309 -12 309 -12 260 45 c 128,-1,10
 211 102 211 102 211 199 c 2,11,-1
 211 599 l 1,12,-1
 51 599 l 1,13,-1
 51 718 l 1,14,-1
 361 718 l 1,15,-1
 361 193 l 2,16,17
 361 146 361 146 387 128 c 128,-1,18
 413 110 413 110 444 110 c 0,19,20
 461 110 461 110 480.5 114 c 128,-1,21
 500 118 500 118 523 126 c 1,22,-1
 557 15 l 1,23,24
 517 2 517 2 484.5 -5 c 128,-1,25
 452 -12 452 -12 404 -12 c 0,8,9
EndSplineSet
Substitution2: "'ss04' Style Set 4 lookup 31 subtable" lslash.a
EndChar

StartChar: napostrophe
Encoding: 329 329 366
Width: 614
GlyphClass: 1
Flags: W
LayerCount: 2
Fore
SplineSet
221 0 m 1,0,-1
 221 508 l 1,1,-1
 344 508 l 1,2,-1
 355 442 l 1,3,-1
 359 442 l 1,4,5
 389 474 389 474 425.5 497 c 128,-1,6
 462 520 462 520 513 520 c 0,7,8
 589 520 589 520 624 465.5 c 128,-1,9
 659 411 659 411 659 315 c 2,10,-1
 659 0 l 1,11,-1
 509 0 l 1,12,-1
 509 296 l 2,13,14
 509 346 509 346 496 369 c 128,-1,15
 483 392 483 392 453 392 c 0,16,17
 428 392 428 392 411 379 c 128,-1,18
 394 366 394 366 372 341 c 1,19,-1
 372 0 l 1,20,-1
 221 0 l 1,0,-1
-8 297 m 1,21,-1
 -47 377 l 1,22,23
 9 403 9 403 38.5 441 c 128,-1,24
 68 479 68 479 68 532 c 2,25,-1
 60 630 l 1,26,-1
 122 547 l 1,27,28
 108 535 108 535 87 525.5 c 128,-1,29
 66 516 66 516 46 516 c 0,30,31
 5 516 5 516 -21 542 c 128,-1,32
 -47 568 -47 568 -47 610 c 0,33,34
 -47 656 -47 656 -19.5 685 c 128,-1,35
 8 714 8 714 51 714 c 0,36,37
 107 714 107 714 139 671 c 128,-1,38
 171 628 171 628 171 550 c 0,39,40
 171 466 171 466 126 402 c 128,-1,41
 81 338 81 338 -8 297 c 1,21,-1
EndSplineSet
EndChar

StartChar: uni01EB
Encoding: 491 491 375
Width: 614
GlyphClass: 2
Flags: W
AnchorPoint: "Anchor-0" 307 528 basechar 0
LayerCount: 2
Fore
SplineSet
328 -232 m 0,0,1
 279 -232 279 -232 245 -207 c 128,-1,2
 211 -182 211 -182 211 -131 c 0,3,4
 211 -89 211 -89 232.5 -58.5 c 128,-1,5
 254 -28 254 -28 275 -10 c 1,6,7
 214 -2 214 -2 162.5 31.5 c 128,-1,8
 111 65 111 65 79.5 121.5 c 128,-1,9
 48 178 48 178 48 254 c 0,10,11
 48 338 48 338 85 398 c 128,-1,12
 122 458 122 458 181.5 489 c 128,-1,13
 241 520 241 520 307 520 c 0,14,15
 375 520 375 520 434 489 c 128,-1,16
 493 458 493 458 529.5 398 c 128,-1,17
 566 338 566 338 566 254 c 0,18,19
 566 186 566 186 543.5 138.5 c 128,-1,20
 521 91 521 91 481.5 57.5 c 128,-1,21
 442 24 442 24 389 1 c 0,22,23
 350 -17 350 -17 331.5 -44.5 c 128,-1,24
 313 -72 313 -72 313 -96 c 256,25,26
 313 -121 313 -121 329.5 -132 c 128,-1,27
 346 -143 346 -143 364 -143 c 256,28,29
 381 -143 381 -143 394 -138.5 c 128,-1,30
 407 -134 407 -134 414 -129 c 1,31,-1
 446 -196 l 1,32,33
 426 -212 426 -212 393.5 -222 c 128,-1,34
 361 -232 361 -232 328 -232 c 0,0,1
307 105 m 256,35,36
 342 105 342 105 365 123.5 c 128,-1,37
 388 142 388 142 400 175 c 128,-1,38
 412 208 412 208 412 254 c 0,39,40
 412 298 412 298 400 331 c 128,-1,41
 388 364 388 364 365 381 c 128,-1,42
 342 398 342 398 307 398 c 256,43,44
 272 398 272 398 249 381 c 128,-1,45
 226 364 226 364 214.5 331 c 128,-1,46
 203 298 203 298 203 254 c 0,47,48
 203 208 203 208 214.5 175 c 128,-1,49
 226 142 226 142 249 123.5 c 128,-1,50
 272 105 272 105 307 105 c 256,35,36
EndSplineSet
Ligature2: "'ccmp' Glyph Composition/Decomposition lookup 11 subtable" o uni0328
EndChar

StartChar: ohorn
Encoding: 417 417 385
Width: 614
GlyphClass: 2
Flags: W
AnchorPoint: "Anchor-3" 307 -20 basechar 0
AnchorPoint: "Anchor-0" 307 528 basechar 0
LayerCount: 2
Fore
SplineSet
474 446 m 1,0,-1
 403 496 l 1,1,2
 438 505 438 505 459.5 528.5 c 128,-1,3
 481 552 481 552 481 600 c 0,4,5
 481 619 481 619 477.5 637.5 c 128,-1,6
 474 656 474 656 466 667 c 1,7,-1
 577 716 l 1,8,9
 590 698 590 698 598.5 670 c 128,-1,10
 607 642 607 642 607 610 c 0,11,12
 607 566 607 566 589.5 533.5 c 128,-1,13
 572 501 572 501 542.5 479 c 128,-1,14
 513 457 513 457 474 446 c 1,0,-1
307 -12 m 256,15,16
 240 -12 240 -12 181 19 c 128,-1,17
 122 50 122 50 85 110 c 128,-1,18
 48 170 48 170 48 254 c 256,19,20
 48 338 48 338 85 398 c 128,-1,21
 122 458 122 458 181.5 489 c 128,-1,22
 241 520 241 520 307 520 c 256,23,24
 374 520 374 520 433.5 489 c 128,-1,25
 493 458 493 458 529.5 398 c 128,-1,26
 566 338 566 338 566 254 c 256,27,28
 566 170 566 170 529.5 110 c 128,-1,29
 493 50 493 50 433.5 19 c 128,-1,30
 374 -12 374 -12 307 -12 c 256,15,16
307 110 m 256,31,32
 342 110 342 110 365 127 c 128,-1,33
 388 144 388 144 400 177 c 128,-1,34
 412 210 412 210 412 254 c 256,35,36
 412 298 412 298 400 331 c 128,-1,37
 388 364 388 364 365 381 c 128,-1,38
 342 398 342 398 307 398 c 256,39,40
 272 398 272 398 249 381 c 128,-1,41
 226 364 226 364 214.5 331 c 128,-1,42
 203 298 203 298 203 254 c 256,43,44
 203 210 203 210 214.5 177 c 128,-1,45
 226 144 226 144 249 127 c 128,-1,46
 272 110 272 110 307 110 c 256,31,32
EndSplineSet
EndChar

StartChar: oslash
Encoding: 248 248 391
Width: 614
GlyphClass: 2
Flags: W
AnchorPoint: "Anchor-3" 307 -20 basechar 0
AnchorPoint: "Anchor-2" 307 0 basechar 0
AnchorPoint: "Anchor-0" 307 528 basechar 0
LayerCount: 2
Fore
SplineSet
307 -12 m 256,0,1
 240 -12 240 -12 181 19 c 128,-1,2
 122 50 122 50 85 110 c 128,-1,3
 48 170 48 170 48 254 c 256,4,5
 48 338 48 338 85 398 c 128,-1,6
 122 458 122 458 181.5 489 c 128,-1,7
 241 520 241 520 307 520 c 256,8,9
 374 520 374 520 433.5 489 c 128,-1,10
 493 458 493 458 529.5 398 c 128,-1,11
 566 338 566 338 566 254 c 256,12,13
 566 170 566 170 529.5 110 c 128,-1,14
 493 50 493 50 433.5 19 c 128,-1,15
 374 -12 374 -12 307 -12 c 256,0,1
307 104 m 256,16,17
 342 104 342 104 365 123 c 128,-1,18
 388 142 388 142 400 176 c 128,-1,19
 412 210 412 210 412 254 c 256,20,21
 412 298 412 298 400 332 c 128,-1,22
 388 366 388 366 365 384.5 c 128,-1,23
 342 403 342 403 307 403 c 256,24,25
 272 403 272 403 249 384.5 c 128,-1,26
 226 366 226 366 214.5 332 c 128,-1,27
 203 298 203 298 203 254 c 256,28,29
 203 210 203 210 214.5 176 c 128,-1,30
 226 142 226 142 249 123 c 128,-1,31
 272 104 272 104 307 104 c 256,16,17
121 -28 m 1,32,-1
 62 19 l 1,33,-1
 494 538 l 1,34,-1
 552 489 l 1,35,-1
 121 -28 l 1,32,-1
EndSplineSet
EndChar

StartChar: oe
Encoding: 339 339 393
Width: 614
GlyphClass: 2
Flags: W
AnchorPoint: "Anchor-3" 315 -20 basechar 0
AnchorPoint: "Anchor-2" 447 0 basechar 0
AnchorPoint: "Anchor-0" 323 528 basechar 0
LayerCount: 2
Fore
SplineSet
210 110 m 0,0,1
 228 110 228 110 240.5 127 c 128,-1,2
 253 144 253 144 259.5 177 c 128,-1,3
 266 210 266 210 266 254 c 256,4,5
 266 298 266 298 259.5 331 c 128,-1,6
 253 364 253 364 240.5 381.5 c 128,-1,7
 228 399 228 399 210 399 c 0,8,9
 178 399 178 399 162.5 360 c 128,-1,10
 147 321 147 321 147 254 c 0,11,12
 147 188 147 188 162.5 149 c 128,-1,13
 178 110 178 110 210 110 c 0,0,1
199 -12 m 0,14,15
 147 -12 147 -12 104.5 19 c 128,-1,16
 62 50 62 50 37 110 c 128,-1,17
 12 170 12 170 12 254 c 256,18,19
 12 338 12 338 37.5 398 c 128,-1,20
 63 458 63 458 107 489 c 128,-1,21
 151 520 151 520 202 520 c 0,22,23
 247 520 247 520 280 492.5 c 128,-1,24
 313 465 313 465 333 401 c 1,25,-1
 315 401 l 1,26,27
 332 464 332 464 371 492 c 128,-1,28
 410 520 410 520 449 520 c 0,29,30
 501 520 501 520 536 487 c 128,-1,31
 571 454 571 454 589 398 c 128,-1,32
 607 342 607 342 607 275 c 0,33,34
 607 255 607 255 605 237 c 128,-1,35
 603 219 603 219 601 209 c 1,36,-1
 341 209 l 1,37,-1
 341 304 l 1,38,-1
 514 304 l 1,39,-1
 489 284 l 1,40,41
 489 350 489 350 476.5 378 c 128,-1,42
 464 406 464 406 434 406 c 0,43,44
 407 406 407 406 386 371 c 128,-1,45
 365 336 365 336 365 254 c 0,46,47
 365 178 365 178 394.5 141.5 c 128,-1,48
 424 105 424 105 464 105 c 0,49,50
 484 105 484 105 502 112.5 c 128,-1,51
 520 120 520 120 540 133 c 1,52,-1
 592 36 l 1,53,54
 563 12 563 12 526.5 0 c 128,-1,55
 490 -12 490 -12 459 -12 c 0,56,57
 431 -12 431 -12 402.5 -1.5 c 128,-1,58
 374 9 374 9 350.5 34 c 128,-1,59
 327 59 327 59 315 101 c 1,60,-1
 334 101 l 1,61,62
 315 39 315 39 280.5 13.5 c 128,-1,63
 246 -12 246 -12 199 -12 c 0,14,15
EndSplineSet
EndChar

StartChar: germandbls
Encoding: 223 223 409
Width: 614
GlyphClass: 1
Flags: W
LayerCount: 2
Fore
SplineSet
407 -12 m 0,0,1
 365 -12 365 -12 332 -2 c 128,-1,2
 299 8 299 8 264 26 c 1,3,-1
 314 128 l 1,4,5
 338 113 338 113 359.5 106 c 128,-1,6
 381 99 381 99 401 99 c 256,7,8
 421 99 421 99 433 111.5 c 128,-1,9
 445 124 445 124 445 143 c 256,10,11
 445 162 445 162 434 176.5 c 128,-1,12
 423 191 423 191 405 203.5 c 128,-1,13
 387 216 387 216 366 229.5 c 128,-1,14
 345 243 345 243 327 260.5 c 128,-1,15
 309 278 309 278 298 301.5 c 128,-1,16
 287 325 287 325 287 358 c 0,17,18
 287 389 287 389 296 411.5 c 128,-1,19
 305 434 305 434 317.5 454.5 c 128,-1,20
 330 475 330 475 339 497 c 128,-1,21
 348 519 348 519 348 549 c 0,22,23
 348 576 348 576 333.5 593.5 c 128,-1,24
 319 611 319 611 294 611 c 0,25,26
 253 611 253 611 233 580.5 c 128,-1,27
 213 550 213 550 213 498 c 2,28,-1
 213 0 l 1,29,-1
 62 0 l 1,30,-1
 62 507 l 2,31,32
 62 570 62 570 88 621 c 128,-1,33
 114 672 114 672 165.5 701 c 128,-1,34
 217 730 217 730 295 730 c 0,35,36
 361 730 361 730 403.5 705 c 128,-1,37
 446 680 446 680 467 640.5 c 128,-1,38
 488 601 488 601 488 557 c 0,39,40
 488 521 488 521 479 495 c 128,-1,41
 470 469 470 469 457 449.5 c 128,-1,42
 444 430 444 430 435 413.5 c 128,-1,43
 426 397 426 397 426 377 c 0,44,45
 426 361 426 361 437.5 347.5 c 128,-1,46
 449 334 449 334 466.5 322 c 128,-1,47
 484 310 484 310 504.5 297 c 128,-1,48
 525 284 525 284 543.5 265 c 128,-1,49
 562 246 562 246 573.5 219.5 c 128,-1,50
 585 193 585 193 585 156 c 0,51,52
 585 109 585 109 565 71 c 128,-1,53
 545 33 545 33 505 10.5 c 128,-1,54
 465 -12 465 -12 407 -12 c 0,0,1
EndSplineSet
EndChar

StartChar: longs
Encoding: 383 383 410
Width: 614
GlyphClass: 1
Flags: W
LayerCount: 2
Fore
SplineSet
218 0 m 1,0,-1
 218 521 l 2,1,2
 218 579 218 579 242 627 c 128,-1,3
 266 675 266 675 316 702.5 c 128,-1,4
 366 730 366 730 445 730 c 0,5,6
 489 730 489 730 528 721.5 c 128,-1,7
 567 713 567 713 599 702 c 1,8,-1
 570 592 l 1,9,10
 545 601 545 601 519.5 606 c 128,-1,11
 494 611 494 611 464 611 c 0,12,13
 416 611 416 611 392.5 589.5 c 128,-1,14
 369 568 369 568 369 522 c 2,15,-1
 369 0 l 1,16,-1
 218 0 l 1,0,-1
84 390 m 1,17,-1
 84 502 l 1,18,-1
 223 508 l 1,19,-1
 314 508 l 1,20,-1
 314 390 l 1,21,-1
 84 390 l 1,17,-1
EndSplineSet
EndChar

StartChar: tbar
Encoding: 359 359 417
Width: 614
GlyphClass: 2
Flags: W
AnchorPoint: "Anchor-3" 378 -20 basechar 0
AnchorPoint: "Anchor-0" 269 674 basechar 0
LayerCount: 2
Fore
SplineSet
51 222 m 1,0,-1
 51 294 l 1,1,-1
 189 300 l 1,2,-1
 523 300 l 1,3,-1
 523 222 l 1,4,-1
 51 222 l 1,0,-1
397 -12 m 0,5,6
 316 -12 316 -12 268.5 16 c 128,-1,7
 221 44 221 44 199.5 94 c 128,-1,8
 178 144 178 144 178 211 c 2,9,-1
 178 390 l 1,10,-1
 51 390 l 1,11,-1
 51 502 l 1,12,-1
 185 508 l 1,13,-1
 205 664 l 1,14,-1
 329 664 l 1,15,-1
 329 508 l 1,16,-1
 544 508 l 1,17,-1
 544 390 l 1,18,-1
 329 390 l 1,19,-1
 329 212 l 2,20,21
 329 174 329 174 340 150.5 c 128,-1,22
 351 127 351 127 374.5 116 c 128,-1,23
 398 105 398 105 435 105 c 0,24,25
 465 105 465 105 489.5 110.5 c 128,-1,26
 514 116 514 116 537 124 c 1,27,-1
 563 15 l 1,28,29
 529 5 529 5 488.5 -3.5 c 128,-1,30
 448 -12 448 -12 397 -12 c 0,5,6
EndSplineSet
EndChar

StartChar: uogonek
Encoding: 371 371 428
Width: 614
GlyphClass: 2
Flags: W
AnchorPoint: "Anchor-0" 303 528 basechar 0
LayerCount: 2
Fore
SplineSet
446 -232 m 0,0,1
 397 -232 397 -232 362 -206.5 c 128,-1,2
 327 -181 327 -181 327 -131 c 0,3,4
 327 -99 327 -99 340.5 -74.5 c 128,-1,5
 354 -50 354 -50 375.5 -32 c 128,-1,6
 397 -14 397 -14 416 -3 c 1,7,-1
 403 73 l 1,8,-1
 399 73 l 1,9,10
 365 35 365 35 324.5 11.5 c 128,-1,11
 284 -12 284 -12 228 -12 c 0,12,13
 141 -12 141 -12 102 43 c 128,-1,14
 63 98 63 98 63 195 c 2,15,-1
 63 508 l 1,16,-1
 214 508 l 1,17,-1
 214 214 l 2,18,19
 214 163 214 163 230 139.5 c 128,-1,20
 246 116 246 116 288 116 c 0,21,22
 317 116 317 116 339 128 c 128,-1,23
 361 140 361 140 387 174 c 1,24,-1
 387 508 l 1,25,-1
 538 508 l 1,26,-1
 538 -1 l 1,27,28
 480 -17 480 -17 454 -44.5 c 128,-1,29
 428 -72 428 -72 428 -96 c 0,30,31
 428 -120 428 -120 445 -131.5 c 128,-1,32
 462 -143 462 -143 482 -143 c 0,33,34
 495 -143 495 -143 508.5 -138.5 c 128,-1,35
 522 -134 522 -134 529 -129 c 1,36,-1
 561 -196 l 1,37,38
 541 -213 541 -213 508 -222.5 c 128,-1,39
 475 -232 475 -232 446 -232 c 0,0,1
EndSplineSet
Ligature2: "'ccmp' Glyph Composition/Decomposition lookup 11 subtable" u uni0328
EndChar

StartChar: uhorn
Encoding: 432 432 435
Width: 614
GlyphClass: 2
Flags: W
AnchorPoint: "Anchor-3" 321 -20 basechar 0
AnchorPoint: "Anchor-0" 303 528 basechar 0
LayerCount: 2
Fore
SplineSet
520 461 m 1,0,-1
 421 508 l 1,1,2
 441 509 441 509 462 516 c 128,-1,3
 483 523 483 523 497.5 543 c 128,-1,4
 512 563 512 563 512 602 c 0,5,6
 512 621 512 621 508 639.5 c 128,-1,7
 504 658 504 658 496 669 c 1,8,-1
 607 717 l 1,9,10
 620 700 620 700 628.5 671.5 c 128,-1,11
 637 643 637 643 637 612 c 0,12,13
 637 571 637 571 621.5 541.5 c 128,-1,14
 606 512 606 512 579.5 492 c 128,-1,15
 553 472 553 472 520 461 c 1,0,-1
228 -12 m 0,16,17
 141 -12 141 -12 102 43 c 128,-1,18
 63 98 63 98 63 195 c 2,19,-1
 63 508 l 1,20,-1
 214 508 l 1,21,-1
 214 214 l 2,22,23
 214 163 214 163 230 139.5 c 128,-1,24
 246 116 246 116 288 116 c 0,25,26
 317 116 317 116 339 128 c 128,-1,27
 361 140 361 140 387 174 c 1,28,-1
 387 508 l 1,29,-1
 538 508 l 1,30,-1
 538 0 l 1,31,-1
 415 0 l 1,32,-1
 403 73 l 1,33,-1
 399 73 l 1,34,35
 365 35 365 35 324 11.5 c 128,-1,36
 283 -12 283 -12 228 -12 c 0,16,17
EndSplineSet
EndChar

StartChar: eth
Encoding: 240 240 460
Width: 614
GlyphClass: 2
Flags: W
AnchorPoint: "Anchor-3" 309 -20 basechar 0
AnchorPoint: "Anchor-0" 338 750 basechar 0
LayerCount: 2
Fore
SplineSet
302 -12 m 0,0,1
 233 -12 233 -12 175.5 17.5 c 128,-1,2
 118 47 118 47 83 102.5 c 128,-1,3
 48 158 48 158 48 233 c 0,4,5
 48 306 48 306 80 358.5 c 128,-1,6
 112 411 112 411 163.5 438.5 c 128,-1,7
 215 466 215 466 274 466 c 0,8,9
 321 466 321 466 363.5 443.5 c 128,-1,10
 406 421 406 421 426 371 c 1,11,-1
 428 292 l 1,12,13
 400 326 400 326 370 340 c 128,-1,14
 340 354 340 354 305 354 c 0,15,16
 268 354 268 354 241 341 c 128,-1,17
 214 328 214 328 199.5 301 c 128,-1,18
 185 274 185 274 185 233 c 0,19,20
 185 193 185 193 201.5 165.5 c 128,-1,21
 218 138 218 138 245.5 124 c 128,-1,22
 273 110 273 110 307 110 c 0,23,24
 342 110 342 110 368 127 c 128,-1,25
 394 144 394 144 408.5 178.5 c 128,-1,26
 423 213 423 213 423 264 c 0,27,28
 423 343 423 343 405.5 403 c 128,-1,29
 388 463 388 463 353 509.5 c 128,-1,30
 318 556 318 556 264.5 594 c 128,-1,31
 211 632 211 632 138 667 c 1,32,-1
 204 758 l 1,33,34
 276 725 276 725 341 682 c 128,-1,35
 406 639 406 639 456 581 c 128,-1,36
 506 523 506 523 534.5 447.5 c 128,-1,37
 563 372 563 372 563 272 c 0,38,39
 563 190 563 190 532.5 125.5 c 128,-1,40
 502 61 502 61 443 24.5 c 128,-1,41
 384 -12 384 -12 302 -12 c 0,0,1
152 484 m 1,42,-1
 111 554 l 1,43,-1
 492 745 l 1,44,-1
 532 676 l 1,45,-1
 152 484 l 1,42,-1
EndSplineSet
EndChar

StartChar: thorn
Encoding: 254 254 461
Width: 614
GlyphClass: 2
Flags: W
AnchorPoint: "Anchor-3" 150 -210 basechar 0
AnchorPoint: "Anchor-0" 150 750 basechar 0
LayerCount: 2
Fore
SplineSet
74 -188 m 1,0,-1
 74 718 l 1,1,-1
 224 718 l 1,2,-1
 224 541 l 1,3,-1
 219 462 l 1,4,-1
 222 462 l 1,5,6
 252 490 252 490 288.5 505 c 128,-1,7
 325 520 325 520 362 520 c 0,8,9
 424 520 424 520 470.5 488.5 c 128,-1,10
 517 457 517 457 541.5 398.5 c 128,-1,11
 566 340 566 340 566 262 c 0,12,13
 566 175 566 175 534.5 113.5 c 128,-1,14
 503 52 503 52 452.5 20 c 128,-1,15
 402 -12 402 -12 347 -12 c 0,16,17
 309 -12 309 -12 278 3 c 128,-1,18
 247 18 247 18 222 43 c 1,19,-1
 219 43 l 1,20,-1
 224 -40 l 1,21,-1
 224 -188 l 1,22,-1
 74 -188 l 1,0,-1
311 111 m 0,23,24
 339 111 339 111 361.5 126 c 128,-1,25
 384 141 384 141 398 174.5 c 128,-1,26
 412 208 412 208 412 260 c 0,27,28
 412 306 412 306 402 336.5 c 128,-1,29
 392 367 392 367 371 382 c 128,-1,30
 350 397 350 397 317 397 c 0,31,32
 294 397 294 397 271 386.5 c 128,-1,33
 248 376 248 376 224 350 c 1,34,-1
 224 144 l 1,35,36
 244 127 244 127 268.5 119 c 128,-1,37
 293 111 293 111 311 111 c 0,23,24
EndSplineSet
EndChar

StartChar: eng
Encoding: 331 331 462
Width: 614
GlyphClass: 2
Flags: W
AnchorPoint: "Anchor-3" 332 -210 basechar 0
AnchorPoint: "Anchor-0" 323 528 basechar 0
LayerCount: 2
Fore
SplineSet
378 -191 m 0,0,1
 347 -191 347 -191 326 -186.5 c 128,-1,2
 305 -182 305 -182 290 -177 c 1,3,-1
 316 -66 l 1,4,5
 326 -69 326 -69 335.5 -71 c 128,-1,6
 345 -73 345 -73 354 -73 c 0,7,8
 380 -73 380 -73 391 -52.5 c 128,-1,9
 402 -32 402 -32 402 10 c 2,10,-1
 402 294 l 2,11,12
 402 345 402 345 385.5 368.5 c 128,-1,13
 369 392 369 392 328 392 c 0,14,15
 297 392 297 392 274 378.5 c 128,-1,16
 251 365 251 365 224 339 c 1,17,-1
 224 0 l 1,18,-1
 74 0 l 1,19,-1
 74 508 l 1,20,-1
 197 508 l 1,21,-1
 208 440 l 1,22,-1
 212 440 l 1,23,24
 245 473 245 473 287.5 496.5 c 128,-1,25
 330 520 330 520 387 520 c 0,26,27
 473 520 473 520 513 465 c 128,-1,28
 553 410 553 410 553 313 c 2,29,-1
 553 15 l 2,30,31
 553 -41 553 -41 536 -88 c 128,-1,32
 519 -135 519 -135 481 -163 c 128,-1,33
 443 -191 443 -191 378 -191 c 0,0,1
EndSplineSet
EndChar

StartChar: uni0237
Encoding: 567 567 463
Width: 614
GlyphClass: 2
Flags: W
AnchorPoint: "Anchor-3" 252 -210 basechar 0
AnchorPoint: "Anchor-0" 353 528 basechar 0
LayerCount: 2
Fore
SplineSet
200 -201 m 0,0,1
 153 -201 153 -201 114.5 -191 c 128,-1,2
 76 -181 76 -181 43 -166 c 1,3,-1
 87 -58 l 1,4,5
 118 -71 118 -71 143 -77 c 128,-1,6
 168 -83 168 -83 190 -83 c 0,7,8
 227 -83 227 -83 247.5 -71 c 128,-1,9
 268 -59 268 -59 276.5 -35.5 c 128,-1,10
 285 -12 285 -12 285 25 c 2,11,-1
 285 390 l 1,12,-1
 80 390 l 1,13,-1
 80 508 l 1,14,-1
 435 508 l 1,15,-1
 435 31 l 2,16,17
 435 -16 435 -16 424 -57.5 c 128,-1,18
 413 -99 413 -99 386 -131.5 c 128,-1,19
 359 -164 359 -164 314 -182.5 c 128,-1,20
 269 -201 269 -201 200 -201 c 0,0,1
EndSplineSet
EndChar

StartChar: ij
Encoding: 307 307 464
Width: 614
GlyphClass: 1
Flags: W
LayerCount: 2
Fore
SplineSet
79 0 m 1,0,-1
 79 508 l 1,1,-1
 229 508 l 1,2,-1
 229 0 l 1,3,-1
 79 0 l 1,0,-1
155 583 m 0,4,5
 117 583 117 583 92 605.5 c 128,-1,6
 67 628 67 628 67 663 c 0,7,8
 67 699 67 699 92 720.5 c 128,-1,9
 117 742 117 742 155 742 c 0,10,11
 194 742 194 742 218.5 720 c 128,-1,12
 243 698 243 698 243 663 c 0,13,14
 243 628 243 628 218.5 605.5 c 128,-1,15
 194 583 194 583 155 583 c 0,4,5
366 -201 m 0,16,17
 335 -201 335 -201 314 -197 c 128,-1,18
 293 -193 293 -193 276 -186 c 1,19,-1
 303 -76 l 1,20,21
 313 -79 313 -79 323 -81 c 128,-1,22
 333 -83 333 -83 343 -83 c 0,23,24
 373 -83 373 -83 384.5 -63 c 128,-1,25
 396 -43 396 -43 396 -1 c 2,26,-1
 396 508 l 1,27,-1
 547 508 l 1,28,-1
 547 3 l 2,29,30
 547 -52 547 -52 531 -98.5 c 128,-1,31
 515 -145 515 -145 475.5 -173 c 128,-1,32
 436 -201 436 -201 366 -201 c 0,16,17
472 583 m 0,33,34
 434 583 434 583 409 605.5 c 128,-1,35
 384 628 384 628 384 663 c 0,36,37
 384 699 384 699 409 720.5 c 128,-1,38
 434 742 434 742 472 742 c 0,39,40
 511 742 511 742 535.5 720 c 128,-1,41
 560 698 560 698 560 663 c 0,42,43
 560 628 560 628 535.5 605.5 c 128,-1,44
 511 583 511 583 472 583 c 0,33,34
EndSplineSet
EndChar

StartChar: uni006C00B7006C
Encoding: 1114117 -1 465
Width: 614
GlyphClass: 1
Flags: W
LayerCount: 2
Fore
SplineSet
238 -12 m 0,0,1
 153 -12 153 -12 110 45 c 128,-1,2
 67 102 67 102 67 199 c 2,3,-1
 67 599 l 1,4,-1
 -28 599 l 1,5,-1
 -28 717 l 1,6,-1
 201 717 l 1,7,-1
 201 193 l 2,8,9
 201 146 201 146 219.5 128 c 128,-1,10
 238 110 238 110 260 110 c 0,11,12
 268 110 268 110 276.5 112.5 c 128,-1,13
 285 115 285 115 297 119 c 1,14,-1
 331 8 l 1,15,16
 306 1 306 1 286.5 -5.5 c 128,-1,17
 267 -12 267 -12 238 -12 c 0,0,1
294 304 m 256,18,19
 261 304 261 304 240.5 325.5 c 128,-1,20
 220 347 220 347 220 379 c 0,21,22
 220 412 220 412 240.5 433.5 c 128,-1,23
 261 455 261 455 294 455 c 256,24,25
 327 455 327 455 348 433.5 c 128,-1,26
 369 412 369 412 369 379 c 0,27,28
 369 347 369 347 348 325.5 c 128,-1,29
 327 304 327 304 294 304 c 256,18,19
557 -12 m 0,30,31
 472 -12 472 -12 429 45 c 128,-1,32
 386 102 386 102 386 199 c 2,33,-1
 386 599 l 1,34,-1
 292 599 l 1,35,-1
 292 717 l 1,36,-1
 519 717 l 1,37,-1
 519 193 l 2,38,39
 519 146 519 146 537.5 128 c 128,-1,40
 556 110 556 110 579 110 c 0,41,42
 588 110 588 110 596 112.5 c 128,-1,43
 604 115 604 115 616 119 c 1,44,-1
 649 8 l 1,45,46
 625 1 625 1 605.5 -5.5 c 128,-1,47
 586 -12 586 -12 557 -12 c 0,30,31
EndSplineSet
Substitution2: "'ss04' Style Set 4 lookup 31 subtable" uni006C00B7006C.a
Ligature2: "'ccmp' Glyph Composition/Decomposition lookup 11 subtable" l periodcentered l
EndChar

StartChar: uni01330301
Encoding: 1114118 -1 466
Width: 614
GlyphClass: 1
Flags: W
LayerCount: 2
Fore
SplineSet
79 0 m 1,0,-1
 79 508 l 1,1,-1
 229 508 l 1,2,-1
 229 0 l 1,3,-1
 79 0 l 1,0,-1
366 -201 m 0,4,5
 335 -201 335 -201 314 -197 c 128,-1,6
 293 -193 293 -193 276 -186 c 1,7,-1
 303 -76 l 1,8,9
 313 -79 313 -79 323 -81 c 128,-1,10
 333 -83 333 -83 343 -83 c 0,11,12
 373 -83 373 -83 384.5 -63 c 128,-1,13
 396 -43 396 -43 396 -1 c 2,14,-1
 396 508 l 1,15,-1
 547 508 l 1,16,-1
 547 3 l 2,17,18
 547 -52 547 -52 531 -98.5 c 128,-1,19
 515 -145 515 -145 475.5 -173 c 128,-1,20
 436 -201 436 -201 366 -201 c 0,4,5
141 574 m 1,21,-1
 68 648 l 1,22,-1
 224 835 l 1,23,-1
 327 734 l 1,24,-1
 141 574 l 1,21,-1
459 574 m 1,25,-1
 385 648 l 1,26,-1
 542 835 l 1,27,-1
 644 734 l 1,28,-1
 459 574 l 1,25,-1
EndSplineSet
Substitution2: "'case' Case-Sensitive Forms lookup 28 subtable" uni01320301
Ligature2: "'ccmp' Glyph Composition/Decomposition lookup 11 subtable" ij uni0301
EndChar

StartChar: uni0250
Encoding: 592 592 467
Width: 614
GlyphClass: 2
Flags: W
AnchorPoint: "Anchor-3" 309 -20 basechar 0
AnchorPoint: "Anchor-0" 336 528 basechar 0
LayerCount: 2
Fore
SplineSet
303 -12 m 0,0,1
 232 -12 232 -12 180.5 13 c 128,-1,2
 129 38 129 38 101.5 88.5 c 128,-1,3
 74 139 74 139 74 217 c 2,4,-1
 74 508 l 1,5,-1
 197 508 l 1,6,-1
 208 451 l 1,7,-1
 212 451 l 1,8,9
 251 480 251 480 297 500 c 128,-1,10
 343 520 343 520 392 520 c 0,11,12
 443 520 443 520 480.5 499.5 c 128,-1,13
 518 479 518 479 538.5 444.5 c 128,-1,14
 559 410 559 410 559 368 c 0,15,16
 559 282 559 282 481.5 236.5 c 128,-1,17
 404 191 404 191 224 181 c 1,18,19
 227 157 227 157 239.5 141 c 128,-1,20
 252 125 252 125 275 116.5 c 128,-1,21
 298 108 298 108 333 108 c 0,22,23
 358 108 358 108 382.5 113.5 c 128,-1,24
 407 119 407 119 433 130 c 128,-1,25
 459 141 459 141 487 156 c 1,26,-1
 541 56 l 1,27,28
 506 36 506 36 467.5 21 c 128,-1,29
 429 6 429 6 387.5 -3 c 128,-1,30
 346 -12 346 -12 303 -12 c 0,0,1
224 271 m 1,31,32
 299 275 299 275 340.5 287 c 128,-1,33
 382 299 382 299 398.5 316.5 c 128,-1,34
 415 334 415 334 415 355 c 0,35,36
 415 371 415 371 406 382 c 128,-1,37
 397 393 397 393 381.5 398 c 128,-1,38
 366 403 366 403 344 403 c 0,39,40
 310 403 310 403 280.5 389.5 c 128,-1,41
 251 376 251 376 224 355 c 1,42,-1
 224 271 l 1,31,32
EndSplineSet
EndChar

StartChar: uni0252
Encoding: 594 594 468
Width: 614
GlyphClass: 2
Flags: W
AnchorPoint: "Anchor-3" 319 -20 basechar 0
AnchorPoint: "Anchor-0" 326 528 basechar 0
LayerCount: 2
Fore
SplineSet
345 -12 m 0,0,1
 311 -12 311 -12 275.5 5.5 c 128,-1,2
 240 23 240 23 208 55 c 1,3,-1
 204 55 l 1,4,-1
 191 0 l 1,5,-1
 74 0 l 1,6,-1
 74 508 l 1,7,-1
 197 508 l 1,8,-1
 208 456 l 1,9,-1
 211 456 l 1,10,11
 239 485 239 485 279 502.5 c 128,-1,12
 319 520 319 520 362 520 c 0,13,14
 425 520 425 520 471 488.5 c 128,-1,15
 517 457 517 457 541.5 399 c 128,-1,16
 566 341 566 341 566 264 c 0,17,18
 566 176 566 176 535 114.5 c 128,-1,19
 504 53 504 53 453 20.5 c 128,-1,20
 402 -12 402 -12 345 -12 c 0,0,1
310 111 m 0,21,22
 338 111 338 111 361.5 126 c 128,-1,23
 385 141 385 141 398.5 173 c 128,-1,24
 412 205 412 205 412 254 c 0,25,26
 412 302 412 302 401 334.5 c 128,-1,27
 390 367 390 367 368.5 382 c 128,-1,28
 347 397 347 397 315 397 c 0,29,30
 288 397 288 397 266 386.5 c 128,-1,31
 244 376 244 376 224 350 c 1,32,-1
 224 144 l 1,33,34
 246 126 246 126 268 118.5 c 128,-1,35
 290 111 290 111 310 111 c 0,21,22
EndSplineSet
EndChar

StartChar: uni0253
Encoding: 595 595 469
Width: 614
GlyphClass: 2
Flags: W
AnchorPoint: "Anchor-3" 319 -20 basechar 0
AnchorPoint: "Anchor-0" 291 750 basechar 0
LayerCount: 2
Fore
SplineSet
347 -12 m 0,0,1
 311 -12 311 -12 275 5 c 128,-1,2
 239 22 239 22 208 55 c 1,3,-1
 204 55 l 1,4,-1
 191 0 l 1,5,-1
 74 0 l 1,6,-1
 74 512 l 2,7,8
 74 571 74 571 96 621 c 128,-1,9
 118 671 118 671 166.5 700.5 c 128,-1,10
 215 730 215 730 295 730 c 0,11,12
 332 730 332 730 361.5 722.5 c 128,-1,13
 391 715 391 715 411 708 c 1,14,-1
 383 597 l 1,15,16
 367 603 367 603 349.5 607 c 128,-1,17
 332 611 332 611 316 611 c 0,18,19
 272 611 272 611 250 590.5 c 128,-1,20
 228 570 228 570 224 523 c 2,21,-1
 218 445 l 1,22,-1
 222 445 l 1,23,24
 252 473 252 473 288.5 488.5 c 128,-1,25
 325 504 325 504 361 504 c 0,26,27
 424 504 424 504 469.5 473 c 128,-1,28
 515 442 515 442 539.5 386 c 128,-1,29
 564 330 564 330 564 254 c 0,30,31
 564 170 564 170 533.5 110 c 128,-1,32
 503 50 503 50 453 19 c 128,-1,33
 403 -12 403 -12 347 -12 c 0,0,1
312 111 m 0,34,35
 340 111 340 111 362 125.5 c 128,-1,36
 384 140 384 140 397.5 171.5 c 128,-1,37
 411 203 411 203 411 252 c 0,38,39
 411 295 411 295 400.5 323 c 128,-1,40
 390 351 390 351 370 365.5 c 128,-1,41
 350 380 350 380 318 380 c 0,42,43
 293 380 293 380 270.5 369 c 128,-1,44
 248 358 248 358 224 333 c 1,45,-1
 224 144 l 1,46,47
 246 126 246 126 269 118.5 c 128,-1,48
 292 111 292 111 312 111 c 0,34,35
EndSplineSet
EndChar

StartChar: uni0254
Encoding: 596 596 470
Width: 614
GlyphClass: 2
Flags: W
AnchorPoint: "Anchor-3" 287 -20 basechar 0
AnchorPoint: "Anchor-2" 287 0 basechar 0
AnchorPoint: "Anchor-0" 297 528 basechar 0
LayerCount: 2
Fore
SplineSet
259 -12 m 0,0,1
 205 -12 205 -12 150.5 6.5 c 128,-1,2
 96 25 96 25 53 62 c 1,3,-1
 115 158 l 1,4,5
 141 139 141 139 172.5 124.5 c 128,-1,6
 204 110 204 110 242 110 c 0,7,8
 287 110 287 110 320.5 127 c 128,-1,9
 354 144 354 144 372.5 177 c 128,-1,10
 391 210 391 210 391 254 c 256,11,12
 391 298 391 298 373 331 c 128,-1,13
 355 364 355 364 324 381 c 128,-1,14
 293 398 293 398 255 398 c 0,15,16
 223 398 223 398 193.5 389 c 128,-1,17
 164 380 164 380 131 358 c 1,18,-1
 61 452 l 1,19,20
 95 483 95 483 148.5 501.5 c 128,-1,21
 202 520 202 520 265 520 c 0,22,23
 340 520 340 520 404 489 c 128,-1,24
 468 458 468 458 507 398 c 128,-1,25
 546 338 546 338 546 254 c 256,26,27
 546 170 546 170 507.5 110 c 128,-1,28
 469 50 469 50 404 19 c 128,-1,29
 339 -12 339 -12 259 -12 c 0,0,1
EndSplineSet
EndChar

StartChar: uni0255
Encoding: 597 597 471
Width: 614
GlyphClass: 2
Flags: W
AnchorPoint: "Anchor-3" 369 -20 basechar 0
AnchorPoint: "Anchor-0" 348 528 basechar 0
LayerCount: 2
Fore
SplineSet
198 -98 m 1,0,-1
 81 -48 l 1,1,2
 121 60 121 60 180 133 c 128,-1,3
 239 206 239 206 303 242.5 c 128,-1,4
 367 279 367 279 420 279 c 0,5,6
 491 279 491 279 530.5 243.5 c 128,-1,7
 570 208 570 208 570 145 c 0,8,9
 570 102 570 102 547 66.5 c 128,-1,10
 524 31 524 31 479.5 9.5 c 128,-1,11
 435 -12 435 -12 372 -12 c 0,12,13
 286 -12 286 -12 217 19 c 128,-1,14
 148 50 148 50 108.5 110 c 128,-1,15
 69 170 69 170 69 254 c 256,16,17
 69 338 69 338 110 398 c 128,-1,18
 151 458 151 458 217.5 489 c 128,-1,19
 284 520 284 520 361 520 c 0,20,21
 423 520 423 520 471 501 c 128,-1,22
 519 482 519 482 552 452 c 1,23,-1
 486 361 l 1,24,25
 460 384 460 384 430.5 395 c 128,-1,26
 401 406 401 406 370 406 c 0,27,28
 326 406 326 406 290.5 387.5 c 128,-1,29
 255 369 255 369 234.5 334.5 c 128,-1,30
 214 300 214 300 214 254 c 0,31,32
 214 203 214 203 236 169.5 c 128,-1,33
 258 136 258 136 295 119 c 128,-1,34
 332 102 332 102 377 102 c 0,35,36
 417 102 417 102 438 115.5 c 128,-1,37
 459 129 459 129 459 145 c 256,38,39
 459 161 459 161 447 170 c 128,-1,40
 435 179 435 179 409 179 c 0,41,42
 387 179 387 179 358.5 159.5 c 128,-1,43
 330 140 330 140 300 103.5 c 128,-1,44
 270 67 270 67 243 16 c 128,-1,45
 216 -35 216 -35 198 -98 c 1,0,-1
EndSplineSet
EndChar

StartChar: uni0256
Encoding: 598 598 472
Width: 614
GlyphClass: 2
Flags: W
AnchorPoint: "Anchor-3" 324 -210 basechar 0
AnchorPoint: "Anchor-0" 425 750 basechar 0
LayerCount: 2
Fore
SplineSet
556 -174 m 0,0,1
 500 -174 500 -174 463 -152.5 c 128,-1,2
 426 -131 426 -131 408 -95.5 c 128,-1,3
 390 -60 390 -60 390 -19 c 2,4,-1
 392 45 l 1,5,-1
 388 45 l 1,6,7
 364 20 364 20 330.5 4 c 128,-1,8
 297 -12 297 -12 260 -12 c 0,9,10
 197 -12 197 -12 148.5 19.5 c 128,-1,11
 100 51 100 51 74 111 c 128,-1,12
 48 171 48 171 48 254 c 256,13,14
 48 337 48 337 79.5 396.5 c 128,-1,15
 111 456 111 456 160 488 c 128,-1,16
 209 520 209 520 263 520 c 0,17,18
 306 520 306 520 335 505 c 128,-1,19
 364 490 364 490 388 466 c 1,20,-1
 392 466 l 1,21,-1
 385 545 l 1,22,-1
 385 718 l 1,23,-1
 536 718 l 1,24,-1
 536 16 l 2,25,26
 536 -22 536 -22 545.5 -39 c 128,-1,27
 555 -56 555 -56 580 -56 c 0,28,29
 588 -56 588 -56 595 -54 c 128,-1,30
 602 -52 602 -52 609 -49 c 1,31,-1
 636 -160 l 1,32,33
 622 -166 622 -166 603.5 -170 c 128,-1,34
 585 -174 585 -174 556 -174 c 0,0,1
299 111 m 0,35,36
 324 111 324 111 345.5 121.5 c 128,-1,37
 367 132 367 132 385 158 c 1,38,-1
 385 364 l 1,39,40
 365 382 365 382 342 389.5 c 128,-1,41
 319 397 319 397 298 397 c 0,42,43
 273 397 273 397 251 382 c 128,-1,44
 229 367 229 367 216 335.5 c 128,-1,45
 203 304 203 304 203 256 c 0,46,47
 203 181 203 181 229 146 c 128,-1,48
 255 111 255 111 299 111 c 0,35,36
EndSplineSet
EndChar

StartChar: uni0257
Encoding: 599 599 473
Width: 614
GlyphClass: 2
Flags: W
AnchorPoint: "Anchor-3" 307 -20 basechar 0
AnchorPoint: "Anchor-0" 459 750 basechar 0
LayerCount: 2
Fore
SplineSet
258 -12 m 0,0,1
 163 -12 163 -12 105.5 59 c 128,-1,2
 48 130 48 130 48 254 c 0,3,4
 48 337 48 337 79 396.5 c 128,-1,5
 110 456 110 456 159 488 c 128,-1,6
 208 520 208 520 261 520 c 0,7,8
 302 520 302 520 331.5 506 c 128,-1,9
 361 492 361 492 387 466 c 1,10,-1
 390 466 l 1,11,-1
 388 545 l 1,12,-1
 388 566 l 2,13,14
 388 610 388 610 405.5 647.5 c 128,-1,15
 423 685 423 685 461.5 707.5 c 128,-1,16
 500 730 500 730 564 730 c 0,17,18
 589 730 589 730 606 727.5 c 128,-1,19
 623 725 623 725 635 720 c 1,20,-1
 608 609 l 1,21,22
 603 611 603 611 598.5 611.5 c 128,-1,23
 594 612 594 612 588 612 c 0,24,25
 558 612 558 612 546 594.5 c 128,-1,26
 534 577 534 577 534 539 c 2,27,-1
 534 0 l 1,28,-1
 411 0 l 1,29,-1
 400 52 l 1,30,-1
 396 52 l 1,31,32
 369 24 369 24 332.5 6 c 128,-1,33
 296 -12 296 -12 258 -12 c 0,0,1
298 111 m 0,34,35
 323 111 323 111 344 121.5 c 128,-1,36
 365 132 365 132 383 158 c 1,37,-1
 383 364 l 1,38,39
 363 382 363 382 340 389.5 c 128,-1,40
 317 397 317 397 296 397 c 0,41,42
 271 397 271 397 249.5 382 c 128,-1,43
 228 367 228 367 215.5 335.5 c 128,-1,44
 203 304 203 304 203 256 c 0,45,46
 203 181 203 181 228.5 146 c 128,-1,47
 254 111 254 111 298 111 c 0,34,35
EndSplineSet
EndChar

StartChar: uni0258
Encoding: 600 600 474
Width: 614
GlyphClass: 2
Flags: W
AnchorPoint: "Anchor-3" 305 -20 basechar 0
AnchorPoint: "Anchor-0" 324 528 basechar 0
LayerCount: 2
Fore
SplineSet
276 -12 m 0,0,1
 226 -12 226 -12 172.5 3.5 c 128,-1,2
 119 19 119 19 76 47 c 1,3,-1
 125 137 l 1,4,5
 159 121 159 121 190.5 111.5 c 128,-1,6
 222 102 222 102 256 102 c 0,7,8
 305 102 305 102 340 118.5 c 128,-1,9
 375 135 375 135 393.5 168.5 c 128,-1,10
 412 202 412 202 412 254 c 0,11,12
 412 305 412 305 397.5 339 c 128,-1,13
 383 373 383 373 356 389.5 c 128,-1,14
 329 406 329 406 291 406 c 0,15,16
 257 406 257 406 234 392 c 128,-1,17
 211 378 211 378 198.5 350.5 c 128,-1,18
 186 323 186 323 186 282 c 1,19,-1
 163 310 l 1,20,-1
 446 310 l 1,21,-1
 446 209 l 1,22,-1
 61 209 l 1,23,24
 60 218 60 218 57.5 237.5 c 128,-1,25
 55 257 55 257 55 276 c 0,26,27
 55 346 55 346 85 401 c 128,-1,28
 115 456 115 456 170.5 488 c 128,-1,29
 226 520 226 520 304 520 c 0,30,31
 372 520 372 520 429.5 488 c 128,-1,32
 487 456 487 456 522.5 396.5 c 128,-1,33
 558 337 558 337 558 254 c 0,34,35
 558 170 558 170 520.5 110.5 c 128,-1,36
 483 51 483 51 419 19.5 c 128,-1,37
 355 -12 355 -12 276 -12 c 0,0,1
EndSplineSet
EndChar

StartChar: uni0251
Encoding: 593 593 475
Width: 614
GlyphClass: 2
Flags: W
AnchorPoint: "Anchor-3" 315 -20 basechar 0
AnchorPoint: "Anchor-2" 478 0 basechar 0
AnchorPoint: "Anchor-0" 315 528 basechar 0
LayerCount: 2
Fore
SplineSet
262 -12 m 0,0,1
 197 -12 197 -12 149 19.5 c 128,-1,2
 101 51 101 51 74.5 111 c 128,-1,3
 48 171 48 171 48 254 c 256,4,5
 48 337 48 337 79.5 396.5 c 128,-1,6
 111 456 111 456 161 488 c 128,-1,7
 211 520 211 520 268 520 c 0,8,9
 307 520 307 520 341.5 504.5 c 128,-1,10
 376 489 376 489 407 456 c 1,11,-1
 411 456 l 1,12,-1
 423 508 l 1,13,-1
 541 508 l 1,14,-1
 541 0 l 1,15,-1
 418 0 l 1,16,-1
 407 52 l 1,17,-1
 403 52 l 1,18,19
 375 24 375 24 337 6 c 128,-1,20
 299 -12 299 -12 262 -12 c 0,0,1
301 111 m 0,21,22
 327 111 327 111 349 121.5 c 128,-1,23
 371 132 371 132 390 158 c 1,24,-1
 390 364 l 1,25,26
 370 382 370 382 349 389.5 c 128,-1,27
 328 397 328 397 305 397 c 0,28,29
 277 397 277 397 253.5 382 c 128,-1,30
 230 367 230 367 216.5 335.5 c 128,-1,31
 203 304 203 304 203 256 c 0,32,33
 203 181 203 181 228.5 146 c 128,-1,34
 254 111 254 111 301 111 c 0,21,22
EndSplineSet
EndChar

StartChar: uni0259
Encoding: 601 601 477
Width: 614
GlyphClass: 2
Flags: W
AnchorPoint: "Anchor-6" 299 0 basechar 0
AnchorPoint: "Anchor-3" 299 -20 basechar 0
AnchorPoint: "Anchor-2" 299 0 basechar 0
AnchorPoint: "Anchor-0" 317 528 basechar 0
LayerCount: 2
Fore
SplineSet
298 -12 m 0,0,1
 218 -12 218 -12 164.5 20.5 c 128,-1,2
 111 53 111 53 83.5 109 c 128,-1,3
 56 165 56 165 56 233 c 0,4,5
 56 255 56 255 58.5 273.5 c 128,-1,6
 61 292 61 292 62 301 c 1,7,-1
 449 301 l 1,8,-1
 449 201 l 1,9,-1
 165 201 l 1,10,-1
 188 229 l 1,11,12
 188 168 188 168 214.5 135 c 128,-1,13
 241 102 241 102 293 102 c 0,14,15
 350 102 350 102 382 140 c 128,-1,16
 414 178 414 178 414 254 c 0,17,18
 414 333 414 333 376.5 369.5 c 128,-1,19
 339 406 339 406 268 406 c 0,20,21
 234 406 234 406 202.5 396.5 c 128,-1,22
 171 387 171 387 137 371 c 1,23,-1
 88 461 l 1,24,25
 131 490 131 490 185 505 c 128,-1,26
 239 520 239 520 289 520 c 0,27,28
 367 520 367 520 427.5 488.5 c 128,-1,29
 488 457 488 457 523.5 397.5 c 128,-1,30
 559 338 559 338 559 254 c 0,31,32
 559 171 559 171 522 111 c 128,-1,33
 485 51 485 51 426 19.5 c 128,-1,34
 367 -12 367 -12 298 -12 c 0,0,1
EndSplineSet
Substitution2: "'sups' Superscript lookup 23 subtable" uni0259.sups
EndChar

StartChar: uni025A
Encoding: 602 602 478
Width: 614
GlyphClass: 2
Flags: W
AnchorPoint: "Anchor-3" 212 -20 basechar 0
AnchorPoint: "Anchor-0" 220 528 basechar 0
LayerCount: 2
Fore
SplineSet
208 -12 m 0,0,1
 139 -12 139 -12 95 19.5 c 128,-1,2
 51 51 51 51 28 104.5 c 128,-1,3
 5 158 5 158 2 222 c 1,4,-1
 464 442 l 1,5,-1
 532 416 l 1,6,7
 533 378 533 378 538 356.5 c 128,-1,8
 543 335 543 335 553 326 c 128,-1,9
 563 317 563 317 578 317 c 0,10,11
 587 317 587 317 594 321 c 128,-1,12
 601 325 601 325 607 329 c 1,13,-1
 638 257 l 1,14,15
 624 248 624 248 606.5 239.5 c 128,-1,16
 589 231 589 231 568 231 c 0,17,18
 545 231 545 231 523 239 c 128,-1,19
 501 247 501 247 483 268 c 128,-1,20
 465 289 465 289 454 328 c 1,21,-1
 110 161 l 1,22,-1
 122 199 l 1,23,24
 132 140 132 140 154.5 120 c 128,-1,25
 177 100 177 100 207 100 c 0,26,27
 229 100 229 100 246 112.5 c 128,-1,28
 263 125 263 125 272.5 149 c 128,-1,29
 282 173 282 173 282 208 c 0,30,31
 282 286 282 286 269 329 c 128,-1,32
 256 372 256 372 232 390 c 128,-1,33
 208 408 208 408 175 408 c 0,34,35
 148 408 148 408 124 398.5 c 128,-1,36
 100 389 100 389 78 374 c 1,37,-1
 28 469 l 1,38,39
 68 496 68 496 109.5 508 c 128,-1,40
 151 520 151 520 189 520 c 0,41,42
 264 520 264 520 316 487 c 128,-1,43
 368 454 368 454 394.5 392 c 128,-1,44
 421 330 421 330 421 245 c 0,45,46
 421 169 421 169 395 111 c 128,-1,47
 369 53 369 53 321 20.5 c 128,-1,48
 273 -12 273 -12 208 -12 c 0,0,1
EndSplineSet
EndChar

StartChar: uni025B
Encoding: 603 603 479
Width: 614
GlyphClass: 2
Flags: W
AnchorPoint: "Anchor-3" 319 -20 basechar 0
AnchorPoint: "Anchor-2" 319 0 basechar 0
AnchorPoint: "Anchor-0" 338 528 basechar 0
LayerCount: 2
Fore
SplineSet
325 -12 m 0,0,1
 253 -12 253 -12 195.5 6 c 128,-1,2
 138 24 138 24 105 59 c 128,-1,3
 72 94 72 94 72 146 c 0,4,5
 72 197 72 197 103.5 225 c 128,-1,6
 135 253 135 253 189 266 c 1,7,-1
 189 270 l 1,8,9
 142 285 142 285 117.5 315.5 c 128,-1,10
 93 346 93 346 93 377 c 0,11,12
 93 428 93 428 125 459 c 128,-1,13
 157 490 157 490 213 505 c 128,-1,14
 269 520 269 520 341 520 c 0,15,16
 397 520 397 520 451 504.5 c 128,-1,17
 505 489 505 489 550 461 c 1,18,-1
 496 366 l 1,19,20
 463 386 463 386 425.5 396 c 128,-1,21
 388 406 388 406 350 406 c 0,22,23
 292 406 292 406 267 392.5 c 128,-1,24
 242 379 242 379 242 355 c 0,25,26
 242 330 242 330 268.5 320 c 128,-1,27
 295 310 295 310 345 310 c 2,28,-1
 414 310 l 1,29,-1
 414 209 l 1,30,-1
 330 209 l 2,31,32
 274 209 274 209 246.5 198 c 128,-1,33
 219 187 219 187 219 161 c 0,34,35
 219 133 219 133 251 117.5 c 128,-1,36
 283 102 283 102 353 102 c 0,37,38
 397 102 397 102 434.5 115.5 c 128,-1,39
 472 129 472 129 500 152 c 1,40,-1
 559 56 l 1,41,42
 512 18 512 18 457.5 3 c 128,-1,43
 403 -12 403 -12 325 -12 c 0,0,1
EndSplineSet
EndChar

StartChar: uni025E
Encoding: 606 606 481
Width: 614
GlyphClass: 2
Flags: W
AnchorPoint: "Anchor-3" 310 -20 basechar 0
AnchorPoint: "Anchor-0" 328 528 basechar 0
LayerCount: 2
Fore
SplineSet
324 -12 m 0,0,1
 246 -12 246 -12 184 17.5 c 128,-1,2
 122 47 122 47 85 106 c 128,-1,3
 48 165 48 165 48 253 c 0,4,5
 48 343 48 343 86.5 402 c 128,-1,6
 125 461 125 461 187.5 490.5 c 128,-1,7
 250 520 250 520 321 520 c 0,8,9
 380 520 380 520 429 505 c 128,-1,10
 478 490 478 490 508 458 c 128,-1,11
 538 426 538 426 538 375 c 0,12,13
 538 340 538 340 517 310.5 c 128,-1,14
 496 281 496 281 449 269 c 1,15,-1
 449 265 l 1,16,17
 484 259 484 259 509 243 c 128,-1,18
 534 227 534 227 546.5 203 c 128,-1,19
 559 179 559 179 559 144 c 0,20,21
 559 93 559 93 528.5 58.5 c 128,-1,22
 498 24 498 24 445 6 c 128,-1,23
 392 -12 392 -12 324 -12 c 0,0,1
329 102 m 0,24,25
 366 102 366 102 389 117 c 128,-1,26
 412 132 412 132 412 160 c 0,27,28
 412 187 412 187 390 198 c 128,-1,29
 368 209 368 209 331 209 c 2,30,-1
 298 209 l 1,31,-1
 298 310 l 1,32,-1
 330 310 l 2,33,34
 360 310 360 310 377.5 321.5 c 128,-1,35
 395 333 395 333 395 356 c 256,36,37
 395 380 395 380 377 393 c 128,-1,38
 359 406 359 406 328 406 c 0,39,40
 289 406 289 406 259.5 390 c 128,-1,41
 230 374 230 374 214 340 c 128,-1,42
 198 306 198 306 198 253 c 0,43,44
 198 170 198 170 233 136 c 128,-1,45
 268 102 268 102 329 102 c 0,24,25
EndSplineSet
EndChar

StartChar: uni025F
Encoding: 607 607 482
Width: 614
GlyphClass: 2
Flags: W
AnchorPoint: "Anchor-3" 252 -210 basechar 0
AnchorPoint: "Anchor-0" 353 528 basechar 0
LayerCount: 2
Fore
SplineSet
108 191 m 1,0,-1
 108 263 l 1,1,-1
 286 269 l 1,2,-1
 571 269 l 1,3,-1
 571 191 l 1,4,-1
 108 191 l 1,0,-1
200 -201 m 0,5,6
 153 -201 153 -201 114.5 -191 c 128,-1,7
 76 -181 76 -181 43 -166 c 1,8,-1
 87 -58 l 1,9,10
 118 -71 118 -71 143 -77 c 128,-1,11
 168 -83 168 -83 190 -83 c 0,12,13
 227 -83 227 -83 247.5 -71 c 128,-1,14
 268 -59 268 -59 276.5 -35.5 c 128,-1,15
 285 -12 285 -12 285 25 c 2,16,-1
 285 390 l 1,17,-1
 80 390 l 1,18,-1
 80 508 l 1,19,-1
 435 508 l 1,20,-1
 435 31 l 2,21,22
 435 -16 435 -16 424 -57.5 c 128,-1,23
 413 -99 413 -99 386 -131.5 c 128,-1,24
 359 -164 359 -164 314 -182.5 c 128,-1,25
 269 -201 269 -201 200 -201 c 0,5,6
EndSplineSet
EndChar

StartChar: uni0260
Encoding: 608 608 483
Width: 614
GlyphClass: 2
Flags: W
AnchorPoint: "Anchor-3" 305 -210 basechar 0
AnchorPoint: "Anchor-0" 315 528 basechar 0
LayerCount: 2
Fore
SplineSet
274 -199 m 0,0,1
 232 -199 232 -199 179.5 -184.5 c 128,-1,2
 127 -170 127 -170 82 -142 c 1,3,-1
 132 -43 l 1,4,5
 168 -63 168 -63 206 -72 c 128,-1,6
 244 -81 244 -81 274 -81 c 0,7,8
 331 -81 331 -81 356.5 -57.5 c 128,-1,9
 382 -34 382 -34 385 1 c 2,10,-1
 390 66 l 1,11,-1
 387 66 l 1,12,13
 362 42 362 42 328.5 27.5 c 128,-1,14
 295 13 295 13 260 13 c 0,15,16
 197 13 197 13 149 45 c 128,-1,17
 101 77 101 77 75.5 133 c 128,-1,18
 50 189 50 189 50 263 c 0,19,20
 50 341 50 341 82 399 c 128,-1,21
 114 457 114 457 163.5 488.5 c 128,-1,22
 213 520 213 520 266 520 c 0,23,24
 305 520 305 520 333.5 505 c 128,-1,25
 362 490 362 490 387 466 c 1,26,-1
 390 466 l 1,27,-1
 388 502 l 2,28,29
 388 543 388 543 405 581.5 c 128,-1,30
 422 620 422 620 461.5 644.5 c 128,-1,31
 501 669 501 669 566 669 c 0,32,33
 591 669 591 669 607.5 666.5 c 128,-1,34
 624 664 624 664 637 658 c 1,35,-1
 610 547 l 1,36,37
 605 550 605 550 600 550.5 c 128,-1,38
 595 551 595 551 589 551 c 0,39,40
 560 551 560 551 548 532 c 128,-1,41
 536 513 536 513 536 477 c 2,42,-1
 536 5 l 2,43,44
 536 -94 536 -94 467.5 -146.5 c 128,-1,45
 399 -199 399 -199 274 -199 c 0,0,1
299 134 m 0,46,47
 324 134 324 134 344.5 145.5 c 128,-1,48
 365 157 365 157 385 183 c 1,49,-1
 385 364 l 1,50,51
 365 383 365 383 342 390 c 128,-1,52
 319 397 319 397 298 397 c 0,53,54
 272 397 272 397 250 382 c 128,-1,55
 228 367 228 367 215.5 337.5 c 128,-1,56
 203 308 203 308 203 265 c 0,57,58
 203 203 203 203 229 168.5 c 128,-1,59
 255 134 255 134 299 134 c 0,46,47
EndSplineSet
EndChar

StartChar: uni0261
Encoding: 609 609 484
Width: 614
GlyphClass: 2
Flags: W
AnchorPoint: "Anchor-3" 305 -210 basechar 0
AnchorPoint: "Anchor-0" 317 528 basechar 0
LayerCount: 2
Fore
SplineSet
276 -201 m 0,0,1
 234 -201 234 -201 179.5 -188 c 128,-1,2
 125 -175 125 -175 80 -147 c 1,3,-1
 130 -45 l 1,4,5
 167 -65 167 -65 206.5 -74 c 128,-1,6
 246 -83 246 -83 276 -83 c 0,7,8
 333 -83 333 -83 362.5 -58.5 c 128,-1,9
 392 -34 392 -34 395 1 c 2,10,-1
 400 66 l 1,11,-1
 396 66 l 1,12,13
 371 42 371 42 334.5 27.5 c 128,-1,14
 298 13 298 13 262 13 c 0,15,16
 197 13 197 13 149 45 c 128,-1,17
 101 77 101 77 74.5 133 c 128,-1,18
 48 189 48 189 48 263 c 0,19,20
 48 341 48 341 79 399 c 128,-1,21
 110 457 110 457 160 488.5 c 128,-1,22
 210 520 210 520 268 520 c 0,23,24
 308 520 308 520 343 504 c 128,-1,25
 378 488 378 488 407 456 c 1,26,-1
 411 456 l 1,27,-1
 423 508 l 1,28,-1
 541 508 l 1,29,-1
 541 16 l 2,30,31
 541 -86 541 -86 473.5 -143.5 c 128,-1,32
 406 -201 406 -201 276 -201 c 0,0,1
301 134 m 0,33,34
 326 134 326 134 348 145.5 c 128,-1,35
 370 157 370 157 390 183 c 1,36,-1
 390 364 l 1,37,38
 370 382 370 382 349 389.5 c 128,-1,39
 328 397 328 397 303 397 c 0,40,41
 277 397 277 397 253.5 382 c 128,-1,42
 230 367 230 367 215.5 337.5 c 128,-1,43
 201 308 201 308 201 265 c 0,44,45
 201 203 201 203 229 168.5 c 128,-1,46
 257 134 257 134 301 134 c 0,33,34
EndSplineSet
EndChar

StartChar: uni0262
Encoding: 610 610 485
Width: 614
GlyphClass: 2
Flags: W
AnchorPoint: "Anchor-3" 330 -20 basechar 0
AnchorPoint: "Anchor-0" 346 528 basechar 0
LayerCount: 2
Fore
SplineSet
345 -12 m 0,0,1
 270 -12 270 -12 206.5 16 c 128,-1,2
 143 44 143 44 104.5 103 c 128,-1,3
 66 162 66 162 66 251 c 0,4,5
 66 317 66 317 89 366.5 c 128,-1,6
 112 416 112 416 152.5 450 c 128,-1,7
 193 484 193 484 244 502 c 128,-1,8
 295 520 295 520 349 520 c 0,9,10
 420 520 420 520 464 501 c 128,-1,11
 508 482 508 482 544 453 c 1,12,-1
 476 362 l 1,13,14
 448 381 448 381 424.5 393.5 c 128,-1,15
 401 406 401 406 359 406 c 0,16,17
 322 406 322 406 290 389.5 c 128,-1,18
 258 373 258 373 238 338.5 c 128,-1,19
 218 304 218 304 218 251 c 0,20,21
 218 204 218 204 235 170.5 c 128,-1,22
 252 137 252 137 281.5 119.5 c 128,-1,23
 311 102 311 102 350 102 c 0,24,25
 369 102 369 102 385 106.5 c 128,-1,26
 401 111 401 111 416 119 c 1,27,-1
 416 204 l 1,28,-1
 322 204 l 1,29,-1
 322 304 l 1,30,-1
 545 304 l 1,31,-1
 545 57 l 1,32,33
 511 26 511 26 457 7 c 128,-1,34
 403 -12 403 -12 345 -12 c 0,0,1
EndSplineSet
EndChar

StartChar: uni0263
Encoding: 611 611 486
Width: 614
GlyphClass: 2
Flags: W
AnchorPoint: "Anchor-3" 307 -225 basechar 0
AnchorPoint: "Anchor-0" 307 528 basechar 0
LayerCount: 2
Fore
SplineSet
223 61 m 1,0,-1
 32 508 l 1,1,-1
 183 508 l 1,2,-1
 267 279 l 2,3,4
 277 246 277 246 287.5 219.5 c 128,-1,5
 298 193 298 193 308 157 c 1,6,-1
 312 157 l 1,7,8
 323 193 323 193 333.5 219.5 c 128,-1,9
 344 246 344 246 354 279 c 2,10,-1
 438 508 l 1,11,-1
 583 508 l 1,12,-1
 396 61 l 1,13,-1
 223 61 l 1,0,-1
310 -216 m 0,14,15
 235 -216 235 -216 190.5 -175 c 128,-1,16
 146 -134 146 -134 146 -67 c 0,17,18
 146 -36 146 -36 157.5 -8.5 c 128,-1,19
 169 19 169 19 190.5 52.5 c 128,-1,20
 212 86 212 86 239 134 c 1,21,-1
 383 134 l 1,22,23
 411 86 411 86 431.5 52.5 c 128,-1,24
 452 19 452 19 463.5 -8.5 c 128,-1,25
 475 -36 475 -36 475 -67 c 0,26,27
 475 -135 475 -135 430.5 -175.5 c 128,-1,28
 386 -216 386 -216 310 -216 c 0,14,15
310 -122 m 0,29,30
 329 -122 329 -122 341 -107 c 128,-1,31
 353 -92 353 -92 353 -69 c 0,32,33
 353 -50 353 -50 342.5 -28.5 c 128,-1,34
 332 -7 332 -7 312 26 c 1,35,-1
 307 26 l 1,36,37
 289 -6 289 -6 278.5 -28 c 128,-1,38
 268 -50 268 -50 268 -69 c 0,39,40
 268 -93 268 -93 280.5 -107.5 c 128,-1,41
 293 -122 293 -122 310 -122 c 0,29,30
EndSplineSet
EndChar

StartChar: uni0264
Encoding: 612 612 487
Width: 614
GlyphClass: 2
Flags: W
AnchorPoint: "Anchor-3" 307 -20 basechar 0
AnchorPoint: "Anchor-0" 307 528 basechar 0
LayerCount: 2
Fore
SplineSet
307 -12 m 0,0,1
 216 -12 216 -12 159 36 c 128,-1,2
 102 84 102 84 102 174 c 0,3,4
 102 219 102 219 130 266 c 128,-1,5
 158 313 158 313 206 356 c 1,6,7
 186 379 186 379 164.5 388.5 c 128,-1,8
 143 398 143 398 122 398 c 0,9,10
 93 398 93 398 75 384 c 1,11,-1
 32 494 l 1,12,13
 50 507 50 507 81.5 513.5 c 128,-1,14
 113 520 113 520 143 520 c 0,15,16
 185 520 185 520 227 501 c 128,-1,17
 269 482 269 482 307 439 c 1,18,19
 345 482 345 482 387.5 501 c 128,-1,20
 430 520 430 520 471 520 c 0,21,22
 502 520 502 520 533.5 513.5 c 128,-1,23
 565 507 565 507 583 494 c 1,24,-1
 540 384 l 1,25,26
 521 398 521 398 493 398 c 0,27,28
 470 398 470 398 449.5 388.5 c 128,-1,29
 429 379 429 379 409 356 c 1,30,31
 457 313 457 313 484.5 266 c 128,-1,32
 512 219 512 219 512 174 c 0,33,34
 512 84 512 84 455.5 36 c 128,-1,35
 399 -12 399 -12 307 -12 c 0,0,1
307 110 m 256,36,37
 338 110 338 110 355 128.5 c 128,-1,38
 372 147 372 147 372 178 c 0,39,40
 372 206 372 206 354.5 234.5 c 128,-1,41
 337 263 337 263 307 289 c 1,42,43
 277 263 277 263 260 234.5 c 128,-1,44
 243 206 243 206 243 178 c 0,45,46
 243 147 243 147 259.5 128.5 c 128,-1,47
 276 110 276 110 307 110 c 256,36,37
EndSplineSet
EndChar

StartChar: uni0265
Encoding: 613 613 488
Width: 614
GlyphClass: 2
Flags: W
AnchorPoint: "Anchor-3" 429 -187 basechar 0
AnchorPoint: "Anchor-0" 300 528 basechar 0
LayerCount: 2
Fore
SplineSet
390 -188 m 1,0,-1
 390 -34 l 1,1,-1
 398 63 l 1,2,3
 368 34 368 34 326.5 11 c 128,-1,4
 285 -12 285 -12 226 -12 c 0,5,6
 141 -12 141 -12 101 43 c 128,-1,7
 61 98 61 98 61 195 c 2,8,-1
 61 508 l 1,9,-1
 212 508 l 1,10,-1
 212 214 l 2,11,12
 212 163 212 163 229 139.5 c 128,-1,13
 246 116 246 116 287 116 c 0,14,15
 318 116 318 116 341.5 129.5 c 128,-1,16
 365 143 365 143 390 169 c 1,17,-1
 390 508 l 1,18,-1
 541 508 l 1,19,-1
 541 -188 l 1,20,-1
 390 -188 l 1,0,-1
EndSplineSet
EndChar

StartChar: uni0266
Encoding: 614 614 489
Width: 614
GlyphClass: 2
Flags: W
AnchorPoint: "Anchor-3" 317 -20 basechar 0
AnchorPoint: "Anchor-0" 292 750 basechar 0
LayerCount: 2
Fore
SplineSet
74 0 m 1,0,-1
 74 512 l 2,1,2
 74 571 74 571 96 621 c 128,-1,3
 118 671 118 671 166.5 700.5 c 128,-1,4
 215 730 215 730 295 730 c 0,5,6
 332 730 332 730 361.5 722.5 c 128,-1,7
 391 715 391 715 411 708 c 1,8,-1
 383 597 l 1,9,10
 367 603 367 603 349.5 607 c 128,-1,11
 332 611 332 611 316 611 c 0,12,13
 272 611 272 611 250 590.5 c 128,-1,14
 228 570 228 570 224 523 c 2,15,-1
 215 428 l 1,16,-1
 219 428 l 1,17,18
 248 457 248 457 289.5 480.5 c 128,-1,19
 331 504 331 504 388 504 c 0,20,21
 474 504 474 504 513.5 448.5 c 128,-1,22
 553 393 553 393 553 297 c 2,23,-1
 553 0 l 1,24,-1
 402 0 l 1,25,-1
 402 278 l 2,26,27
 402 328 402 328 385.5 351.5 c 128,-1,28
 369 375 369 375 328 375 c 0,29,30
 297 375 297 375 274 361.5 c 128,-1,31
 251 348 251 348 224 323 c 1,32,-1
 224 0 l 1,33,-1
 74 0 l 1,0,-1
EndSplineSet
Substitution2: "'sups' Superscript lookup 23 subtable" uni0266.sups
EndChar

StartChar: uni0267
Encoding: 615 615 490
Width: 614
GlyphClass: 2
Flags: W
AnchorPoint: "Anchor-3" 332 -210 basechar 0
AnchorPoint: "Anchor-0" 292 750 basechar 0
LayerCount: 2
Fore
SplineSet
370 -191 m 0,0,1
 338 -191 338 -191 316 -186.5 c 128,-1,2
 294 -182 294 -182 278 -177 c 1,3,-1
 305 -66 l 1,4,5
 316 -69 316 -69 325.5 -71 c 128,-1,6
 335 -73 335 -73 346 -73 c 0,7,8
 378 -73 378 -73 390 -52.5 c 128,-1,9
 402 -32 402 -32 402 10 c 2,10,-1
 402 278 l 2,11,12
 402 328 402 328 385.5 351.5 c 128,-1,13
 369 375 369 375 328 375 c 0,14,15
 297 375 297 375 274 361.5 c 128,-1,16
 251 348 251 348 224 323 c 1,17,-1
 224 0 l 1,18,-1
 74 0 l 1,19,-1
 74 512 l 2,20,21
 74 571 74 571 96 621 c 128,-1,22
 118 671 118 671 166.5 700.5 c 128,-1,23
 215 730 215 730 295 730 c 0,24,25
 332 730 332 730 361.5 722.5 c 128,-1,26
 391 715 391 715 411 708 c 1,27,-1
 383 597 l 1,28,29
 366 602 366 602 349 606.5 c 128,-1,30
 332 611 332 611 316 611 c 0,31,32
 272 611 272 611 250 590.5 c 128,-1,33
 228 570 228 570 224 523 c 2,34,-1
 215 428 l 1,35,-1
 219 428 l 1,36,37
 248 457 248 457 289.5 480.5 c 128,-1,38
 331 504 331 504 388 504 c 0,39,40
 474 504 474 504 513.5 448.5 c 128,-1,41
 553 393 553 393 553 297 c 2,42,-1
 553 15 l 2,43,44
 553 -41 553 -41 536 -88 c 128,-1,45
 519 -135 519 -135 479.5 -163 c 128,-1,46
 440 -191 440 -191 370 -191 c 0,0,1
EndSplineSet
EndChar

StartChar: uni026A
Encoding: 618 618 493
Width: 614
GlyphClass: 2
Flags: W
AnchorPoint: "Anchor-3" 307 -20 basechar 0
AnchorPoint: "Anchor-0" 307 528 basechar 0
LayerCount: 2
Fore
SplineSet
81 0 m 1,0,-1
 81 118 l 1,1,-1
 231 118 l 1,2,-1
 231 390 l 1,3,-1
 81 390 l 1,4,-1
 81 508 l 1,5,-1
 534 508 l 1,6,-1
 534 390 l 1,7,-1
 382 390 l 1,8,-1
 382 118 l 1,9,-1
 534 118 l 1,10,-1
 534 0 l 1,11,-1
 81 0 l 1,0,-1
EndSplineSet
EndChar

StartChar: uni029E
Encoding: 670 670 495
Width: 614
GlyphClass: 2
Flags: W
AnchorPoint: "Anchor-3" 461 -210 basechar 0
AnchorPoint: "Anchor-0" 302 528 basechar 0
LayerCount: 2
Fore
SplineSet
386 -188 m 1,0,-1
 386 205 l 1,1,-1
 382 205 l 1,2,-1
 189 0 l 1,3,-1
 15 0 l 1,4,-1
 386 380 l 1,5,-1
 386 508 l 1,6,-1
 537 508 l 1,7,-1
 537 -188 l 1,8,-1
 386 -188 l 1,0,-1
250 184 m 1,9,-1
 32 508 l 1,10,-1
 184 508 l 1,11,-1
 334 278 l 1,12,-1
 250 184 l 1,9,-1
EndSplineSet
EndChar

StartChar: uni026C
Encoding: 620 620 497
Width: 614
GlyphClass: 2
Flags: W
AnchorPoint: "Anchor-3" 376 -20 basechar 0
AnchorPoint: "Anchor-0" 281 750 basechar 0
LayerCount: 2
Fore
SplineSet
202 280 m 2,0,1
 117 280 117 280 79.5 312 c 128,-1,2
 42 344 42 344 42 391 c 0,3,4
 42 436 42 436 72 465 c 128,-1,5
 102 494 102 494 150 494 c 0,6,7
 188 494 188 494 210 476.5 c 128,-1,8
 232 459 232 459 244 433 c 128,-1,9
 256 407 256 407 260 381.5 c 128,-1,10
 264 356 264 356 264 341 c 1,11,-1
 211 365 l 1,12,13
 211 382 211 382 198.5 401 c 128,-1,14
 186 420 186 420 156 420 c 0,15,16
 143 420 143 420 134.5 411.5 c 128,-1,17
 126 403 126 403 126 391 c 0,18,19
 126 376 126 376 140 366.5 c 128,-1,20
 154 357 154 357 184 357 c 2,21,-1
 495 357 l 1,22,-1
 495 280 l 1,23,-1
 202 280 l 2,0,1
404 -12 m 0,24,25
 309 -12 309 -12 260 45 c 128,-1,26
 211 102 211 102 211 199 c 2,27,-1
 211 599 l 1,28,-1
 52 599 l 1,29,-1
 52 717 l 1,30,-1
 361 717 l 1,31,-1
 361 193 l 2,32,33
 361 146 361 146 387 128 c 128,-1,34
 413 110 413 110 443 110 c 0,35,36
 461 110 461 110 480.5 114 c 128,-1,37
 500 118 500 118 523 126 c 1,38,-1
 556 15 l 1,39,40
 517 3 517 3 484.5 -4.5 c 128,-1,41
 452 -12 452 -12 404 -12 c 0,24,25
EndSplineSet
Substitution2: "'ss04' Style Set 4 lookup 31 subtable" uni026C.a
EndChar

StartChar: uni026D
Encoding: 621 621 498
Width: 614
GlyphClass: 2
Flags: W
AnchorPoint: "Anchor-3" 376 -210 basechar 0
AnchorPoint: "Anchor-0" 281 750 basechar 0
LayerCount: 2
Fore
SplineSet
404 -191 m 0,0,1
 309 -191 309 -191 260 -134 c 128,-1,2
 211 -77 211 -77 211 19 c 2,3,-1
 211 599 l 1,4,-1
 51 599 l 1,5,-1
 51 718 l 1,6,-1
 361 718 l 1,7,-1
 361 13 l 2,8,9
 361 -33 361 -33 387 -51.5 c 128,-1,10
 413 -70 413 -70 443 -70 c 0,11,12
 478 -70 478 -70 523 -53 c 1,13,-1
 557 -164 l 1,14,15
 518 -176 518 -176 485 -183.5 c 128,-1,16
 452 -191 452 -191 404 -191 c 0,0,1
EndSplineSet
EndChar

StartChar: uni026E
Encoding: 622 622 499
Width: 614
GlyphClass: 2
Flags: W
AnchorPoint: "Anchor-3" 375 -210 basechar 0
AnchorPoint: "Anchor-0" 117 750 basechar 0
LayerCount: 2
Fore
SplineSet
42 0 m 1,0,-1
 42 718 l 1,1,-1
 193 718 l 1,2,-1
 193 0 l 1,3,-1
 42 0 l 1,0,-1
378 -201 m 0,4,5
 305 -201 305 -201 253 -176.5 c 128,-1,6
 201 -152 201 -152 166 -118 c 1,7,-1
 233 -25 l 1,8,9
 258 -48 258 -48 290 -63.5 c 128,-1,10
 322 -79 322 -79 360 -79 c 0,11,12
 390 -79 390 -79 413 -66 c 128,-1,13
 436 -53 436 -53 449.5 -29 c 128,-1,14
 463 -5 463 -5 463 30 c 0,15,16
 463 76 463 76 436 100.5 c 128,-1,17
 409 125 409 125 365 125 c 0,18,19
 343 125 343 125 332 122.5 c 128,-1,20
 321 120 321 120 303 113 c 1,21,-1
 253 185 l 1,22,-1
 410 390 l 1,23,-1
 188 390 l 1,24,-1
 188 508 l 1,25,-1
 590 508 l 1,26,-1
 590 428 l 1,27,-1
 418 203 l 1,28,-1
 406 230 l 1,29,30
 476 229 476 229 522 202.5 c 128,-1,31
 568 176 568 176 590.5 131.5 c 128,-1,32
 613 87 613 87 613 33 c 0,33,34
 613 -42 613 -42 581 -94 c 128,-1,35
 549 -146 549 -146 496 -173.5 c 128,-1,36
 443 -201 443 -201 378 -201 c 0,4,5
EndSplineSet
EndChar

StartChar: uni029F
Encoding: 671 671 500
Width: 614
GlyphClass: 2
Flags: W
AnchorPoint: "Anchor-3" 342 -20 basechar 0
AnchorPoint: "Anchor-0" 198 528 basechar 0
LayerCount: 2
Fore
SplineSet
124 0 m 1,0,-1
 124 508 l 1,1,-1
 274 508 l 1,2,-1
 274 118 l 1,3,-1
 549 118 l 1,4,-1
 549 0 l 1,5,-1
 124 0 l 1,0,-1
EndSplineSet
EndChar

StartChar: uni0270
Encoding: 624 624 502
Width: 614
GlyphClass: 2
Flags: W
AnchorPoint: "Anchor-3" 504 -225 basechar 0
AnchorPoint: "Anchor-0" 307 528 basechar 0
LayerCount: 2
Fore
SplineSet
436 -188 m 1,0,-1
 436 -35 l 1,1,-1
 446 65 l 1,2,-1
 442 65 l 1,3,4
 427 33 427 33 404.5 10.5 c 128,-1,5
 382 -12 382 -12 340 -12 c 0,6,7
 307 -12 307 -12 284 9 c 128,-1,8
 261 30 261 30 252 71 c 1,9,10
 239 37 239 37 211 12.5 c 128,-1,11
 183 -12 183 -12 140 -12 c 0,12,13
 87 -12 87 -12 57 32 c 128,-1,14
 27 76 27 76 27 152 c 2,15,-1
 27 508 l 1,16,-1
 170 508 l 1,17,-1
 170 162 l 2,18,19
 170 116 170 116 198 116 c 0,20,21
 212 116 212 116 222.5 128 c 128,-1,22
 233 140 233 140 244 165 c 1,23,-1
 244 508 l 1,24,-1
 361 508 l 1,25,-1
 361 162 l 2,26,27
 361 138 361 138 368.5 127 c 128,-1,28
 376 116 376 116 390 116 c 256,29,30
 404 116 404 116 414.5 128 c 128,-1,31
 425 140 425 140 435 165 c 1,32,-1
 435 508 l 1,33,-1
 579 508 l 1,34,-1
 579 -188 l 1,35,-1
 436 -188 l 1,0,-1
EndSplineSet
EndChar

StartChar: uni0271
Encoding: 625 625 503
Width: 614
GlyphClass: 2
Flags: W
AnchorPoint: "Anchor-3" 315 -210 basechar 0
AnchorPoint: "Anchor-0" 315 528 basechar 0
LayerCount: 2
Fore
SplineSet
434 -191 m 0,0,1
 408 -191 408 -191 389.5 -187.5 c 128,-1,2
 371 -184 371 -184 356 -179 c 1,3,-1
 383 -68 l 1,4,5
 390 -70 390 -70 397 -71.5 c 128,-1,6
 404 -73 404 -73 411 -73 c 0,7,8
 431 -73 431 -73 437.5 -57 c 128,-1,9
 444 -41 444 -41 444 -8 c 2,10,-1
 444 346 l 2,11,12
 444 392 444 392 417 392 c 0,13,14
 403 392 403 392 392 380.5 c 128,-1,15
 381 369 381 369 371 343 c 1,16,-1
 371 0 l 1,17,-1
 253 0 l 1,18,-1
 253 346 l 2,19,20
 253 370 253 370 246 381 c 128,-1,21
 239 392 239 392 224 392 c 256,22,23
 210 392 210 392 199.5 380.5 c 128,-1,24
 189 369 189 369 179 343 c 1,25,-1
 179 0 l 1,26,-1
 36 0 l 1,27,-1
 36 508 l 1,28,-1
 150 508 l 1,29,-1
 160 444 l 1,30,-1
 164 444 l 1,31,32
 178 476 178 476 203.5 498 c 128,-1,33
 229 520 229 520 273 520 c 0,34,35
 306 520 306 520 329.5 499 c 128,-1,36
 353 478 353 478 361 437 c 1,37,38
 375 472 375 472 403 496 c 128,-1,39
 431 520 431 520 474 520 c 0,40,41
 527 520 527 520 557.5 476 c 128,-1,42
 588 432 588 432 588 356 c 2,43,-1
 588 -12 l 2,44,45
 588 -61 588 -61 573.5 -101.5 c 128,-1,46
 559 -142 559 -142 525.5 -166.5 c 128,-1,47
 492 -191 492 -191 434 -191 c 0,0,1
EndSplineSet
EndChar

StartChar: uni0272
Encoding: 626 626 504
Width: 614
GlyphClass: 2
Flags: W
AnchorPoint: "Anchor-3" 271 -210 basechar 0
AnchorPoint: "Anchor-0" 344 528 basechar 0
LayerCount: 2
Fore
SplineSet
63 -191 m 0,0,1
 34 -191 34 -191 16 -187 c 128,-1,2
 -2 -183 -2 -183 -16 -177 c 1,3,-1
 10 -67 l 1,4,5
 18 -70 18 -70 25 -71.5 c 128,-1,6
 32 -73 32 -73 40 -73 c 0,7,8
 65 -73 65 -73 74.5 -55.5 c 128,-1,9
 84 -38 84 -38 84 -1 c 2,10,-1
 84 508 l 1,11,-1
 207 508 l 1,12,-1
 218 440 l 1,13,-1
 222 440 l 1,14,15
 255 473 255 473 295.5 496.5 c 128,-1,16
 336 520 336 520 389 520 c 0,17,18
 475 520 475 520 514 465 c 128,-1,19
 553 410 553 410 553 313 c 2,20,-1
 553 0 l 1,21,-1
 402 0 l 1,22,-1
 402 294 l 2,23,24
 402 350 402 350 386 371 c 128,-1,25
 370 392 370 392 334 392 c 0,26,27
 304 392 304 392 282.5 378.5 c 128,-1,28
 261 365 261 365 234 339 c 1,29,-1
 234 4 l 2,30,31
 234 -50 234 -50 218.5 -94 c 128,-1,32
 203 -138 203 -138 166 -164.5 c 128,-1,33
 129 -191 129 -191 63 -191 c 0,0,1
EndSplineSet
EndChar

StartChar: uni0273
Encoding: 627 627 505
Width: 614
GlyphClass: 2
Flags: W
AnchorPoint: "Anchor-3" 351 -210 basechar 0
AnchorPoint: "Anchor-0" 336 528 basechar 0
LayerCount: 2
Fore
SplineSet
563 -191 m 0,0,1
 497 -191 497 -191 460 -164.5 c 128,-1,2
 423 -138 423 -138 407.5 -94 c 128,-1,3
 392 -50 392 -50 392 4 c 2,4,-1
 392 294 l 2,5,6
 392 350 392 350 375.5 371 c 128,-1,7
 359 392 359 392 324 392 c 0,8,9
 294 392 294 392 272.5 378.5 c 128,-1,10
 251 365 251 365 224 339 c 1,11,-1
 224 0 l 1,12,-1
 74 0 l 1,13,-1
 74 508 l 1,14,-1
 197 508 l 1,15,-1
 208 440 l 1,16,-1
 212 440 l 1,17,18
 245 473 245 473 285.5 496.5 c 128,-1,19
 326 520 326 520 380 520 c 0,20,21
 465 520 465 520 504 465 c 128,-1,22
 543 410 543 410 543 313 c 2,23,-1
 543 -1 l 2,24,25
 543 -38 543 -38 552.5 -55.5 c 128,-1,26
 562 -73 562 -73 587 -73 c 0,27,28
 594 -73 594 -73 601 -71.5 c 128,-1,29
 608 -70 608 -70 615 -67 c 1,30,-1
 643 -177 l 1,31,32
 629 -183 629 -183 610.5 -187 c 128,-1,33
 592 -191 592 -191 563 -191 c 0,0,1
EndSplineSet
EndChar

StartChar: uni0274
Encoding: 628 628 506
Width: 614
GlyphClass: 2
Flags: W
AnchorPoint: "Anchor-3" 312 -20 basechar 0
AnchorPoint: "Anchor-0" 314 528 basechar 0
LayerCount: 2
Fore
SplineSet
76 0 m 1,0,-1
 76 508 l 1,1,-1
 215 508 l 1,2,-1
 350 294 l 2,3,4
 363 271 363 271 379 240.5 c 128,-1,5
 395 210 395 210 408 187 c 1,6,-1
 411 187 l 1,7,8
 407 233 407 233 402 281 c 128,-1,9
 397 329 397 329 397 367 c 2,10,-1
 397 508 l 1,11,-1
 539 508 l 1,12,-1
 539 0 l 1,13,-1
 399 0 l 1,14,-1
 264 214 l 2,15,16
 251 236 251 236 235 266.5 c 128,-1,17
 219 297 219 297 207 321 c 1,18,-1
 203 321 l 1,19,20
 208 274 208 274 212.5 226.5 c 128,-1,21
 217 179 217 179 217 141 c 2,22,-1
 217 0 l 1,23,-1
 76 0 l 1,0,-1
EndSplineSet
EndChar

StartChar: uni0275
Encoding: 629 629 507
Width: 614
GlyphClass: 2
Flags: W
AnchorPoint: "Anchor-3" 307 -20 basechar 0
AnchorPoint: "Anchor-0" 307 528 basechar 0
LayerCount: 2
Fore
SplineSet
307 -12 m 0,0,1
 239 -12 239 -12 180 17.5 c 128,-1,2
 121 47 121 47 84.5 107 c 128,-1,3
 48 167 48 167 48 254 c 256,4,5
 48 341 48 341 84.5 400.5 c 128,-1,6
 121 460 121 460 180.5 490 c 128,-1,7
 240 520 240 520 307 520 c 0,8,9
 376 520 376 520 435 490 c 128,-1,10
 494 460 494 460 530 400.5 c 128,-1,11
 566 341 566 341 566 254 c 256,12,13
 566 167 566 167 530 107 c 128,-1,14
 494 47 494 47 435 17.5 c 128,-1,15
 376 -12 376 -12 307 -12 c 0,0,1
307 100 m 256,16,17
 345 100 345 100 371.5 118 c 128,-1,18
 398 136 398 136 412 170.5 c 128,-1,19
 426 205 426 205 426 254 c 256,20,21
 426 303 426 303 412 337.5 c 128,-1,22
 398 372 398 372 371.5 390.5 c 128,-1,23
 345 409 345 409 307 409 c 256,24,25
 269 409 269 409 242.5 390.5 c 128,-1,26
 216 372 216 372 202 337.5 c 128,-1,27
 188 303 188 303 188 254 c 256,28,29
 188 205 188 205 202 170.5 c 128,-1,30
 216 136 216 136 242.5 118 c 128,-1,31
 269 100 269 100 307 100 c 256,16,17
162 209 m 1,32,-1
 162 310 l 1,33,-1
 449 310 l 1,34,-1
 449 209 l 1,35,-1
 162 209 l 1,32,-1
EndSplineSet
EndChar

StartChar: uni0276
Encoding: 630 630 508
Width: 614
GlyphClass: 2
Flags: W
AnchorPoint: "Anchor-3" 358 -20 basechar 0
AnchorPoint: "Anchor-0" 367 528 basechar 0
LayerCount: 2
Fore
SplineSet
247 -12 m 0,0,1
 190 -12 190 -12 137.5 16.5 c 128,-1,2
 85 45 85 45 52 104 c 128,-1,3
 19 163 19 163 19 253 c 256,4,5
 19 343 19 343 52 402 c 128,-1,6
 85 461 85 461 137 490.5 c 128,-1,7
 189 520 189 520 247 520 c 0,8,9
 275 520 275 520 298 517.5 c 128,-1,10
 321 515 321 515 354 508 c 1,11,-1
 597 508 l 1,12,-1
 597 389 l 1,13,-1
 435 389 l 1,14,-1
 435 310 l 1,15,-1
 566 310 l 1,16,-1
 566 209 l 1,17,-1
 435 209 l 1,18,-1
 435 119 l 1,19,-1
 607 119 l 1,20,-1
 607 0 l 1,21,-1
 354 0 l 1,22,23
 322 -7 322 -7 298.5 -9.5 c 128,-1,24
 275 -12 275 -12 247 -12 c 0,0,1
260 105 m 0,25,26
 270 105 270 105 281 108 c 128,-1,27
 292 111 292 111 301 114 c 1,28,-1
 301 392 l 1,29,30
 293 395 293 395 282 397 c 128,-1,31
 271 399 271 399 260 399 c 0,32,33
 227 399 227 399 200.5 365.5 c 128,-1,34
 174 332 174 332 174 253 c 0,35,36
 174 198 174 198 186.5 165.5 c 128,-1,37
 199 133 199 133 218 119 c 128,-1,38
 237 105 237 105 260 105 c 0,25,26
EndSplineSet
EndChar

StartChar: uni0278
Encoding: 632 632 509
Width: 614
GlyphClass: 2
Flags: W
AnchorPoint: "Anchor-3" 307 -210 basechar 0
AnchorPoint: "Anchor-0" 307 750 basechar 0
LayerCount: 2
Fore
SplineSet
260 -8 m 1,0,1
 199 -8 199 -8 145.5 22.5 c 128,-1,2
 92 53 92 53 59 111.5 c 128,-1,3
 26 170 26 170 26 254 c 0,4,5
 26 339 26 339 59 397 c 128,-1,6
 92 455 92 455 145.5 485.5 c 128,-1,7
 199 516 199 516 260 516 c 1,8,-1
 252 403 l 1,9,10
 223 403 223 403 202 386 c 128,-1,11
 181 369 181 369 169.5 336 c 128,-1,12
 158 303 158 303 158 254 c 0,13,14
 158 206 158 206 169.5 172.5 c 128,-1,15
 181 139 181 139 202 122 c 128,-1,16
 223 105 223 105 252 104 c 1,17,-1
 260 -8 l 1,0,1
354 -8 m 1,18,-1
 362 104 l 1,19,20
 391 105 391 105 412 122 c 128,-1,21
 433 139 433 139 445 172.5 c 128,-1,22
 457 206 457 206 457 254 c 0,23,24
 457 303 457 303 445 336 c 128,-1,25
 433 369 433 369 412 386 c 128,-1,26
 391 403 391 403 362 403 c 1,27,-1
 354 516 l 1,28,29
 415 516 415 516 468.5 485.5 c 128,-1,30
 522 455 522 455 555.5 397 c 128,-1,31
 589 339 589 339 589 254 c 0,32,33
 589 170 589 170 555.5 111.5 c 128,-1,34
 522 53 522 53 468.5 22.5 c 128,-1,35
 415 -8 415 -8 354 -8 c 1,18,-1
244 -189 m 1,36,-1
 244 717 l 1,37,-1
 371 717 l 1,38,-1
 371 -188 l 1,39,-1
 244 -189 l 1,36,-1
EndSplineSet
EndChar

StartChar: uni027A
Encoding: 634 634 511
Width: 614
GlyphClass: 2
Flags: W
AnchorPoint: "Anchor-3" 292 -20 basechar 0
AnchorPoint: "Anchor-0" 420 750 basechar 0
LayerCount: 2
Fore
SplineSet
152 -12 m 0,0,1
 119 -12 119 -12 97.5 -7 c 128,-1,2
 76 -2 76 -2 53 8 c 1,3,-1
 84 135 l 1,4,5
 109 127 109 127 127.5 123.5 c 128,-1,6
 146 120 146 120 174 120 c 0,7,8
 221 120 221 120 266.5 147.5 c 128,-1,9
 312 175 312 175 345 244 c 1,10,-1
 345 718 l 1,11,-1
 496 718 l 1,12,-1
 496 0 l 1,13,-1
 373 0 l 1,14,-1
 360 111 l 1,15,-1
 357 111 l 1,16,17
 319 50 319 50 265.5 19 c 128,-1,18
 212 -12 212 -12 152 -12 c 0,0,1
EndSplineSet
EndChar

StartChar: uni027B
Encoding: 635 635 512
Width: 614
GlyphClass: 2
Flags: W
AnchorPoint: "Anchor-3" 315 -210 basechar 0
AnchorPoint: "Anchor-0" 367 528 basechar 0
LayerCount: 2
Fore
SplineSet
476 -191 m 0,0,1
 413 -191 413 -191 377.5 -166.5 c 128,-1,2
 342 -142 342 -142 327 -102 c 128,-1,3
 312 -62 312 -62 312 -14 c 2,4,-1
 312 97 l 1,5,-1
 308 97 l 1,6,7
 279 43 279 43 233.5 15.5 c 128,-1,8
 188 -12 188 -12 139 -12 c 0,9,10
 120 -12 120 -12 98 -7 c 128,-1,11
 76 -2 76 -2 53 8 c 1,12,-1
 84 135 l 1,13,14
 102 127 102 127 118 123.5 c 128,-1,15
 134 120 134 120 155 120 c 0,16,17
 178 120 178 120 204 130 c 128,-1,18
 230 140 230 140 255 164.5 c 128,-1,19
 280 189 280 189 295 230 c 1,20,-1
 295 508 l 1,21,-1
 445 508 l 1,22,-1
 445 3 l 2,23,24
 445 -39 445 -39 457.5 -56 c 128,-1,25
 470 -73 470 -73 499 -73 c 0,26,27
 510 -73 510 -73 522 -69.5 c 128,-1,28
 534 -66 534 -66 544 -61 c 1,29,-1
 575 -171 l 1,30,31
 557 -178 557 -178 533 -184.5 c 128,-1,32
 509 -191 509 -191 476 -191 c 0,0,1
EndSplineSet
EndChar

StartChar: uni027D
Encoding: 637 637 513
Width: 614
GlyphClass: 2
Flags: W
AnchorPoint: "Anchor-3" 308 -210 basechar 0
AnchorPoint: "Anchor-0" 360 528 basechar 0
LayerCount: 2
Fore
SplineSet
337 -191 m 0,0,1
 257 -191 257 -191 209 -163 c 128,-1,2
 161 -135 161 -135 140 -85 c 128,-1,3
 119 -35 119 -35 119 32 c 2,4,-1
 119 508 l 1,5,-1
 242 508 l 1,6,-1
 254 397 l 1,7,-1
 257 397 l 1,8,9
 295 459 295 459 348.5 489.5 c 128,-1,10
 402 520 402 520 463 520 c 0,11,12
 497 520 497 520 518 515 c 128,-1,13
 539 510 539 510 561 500 c 1,14,-1
 530 374 l 1,15,16
 506 381 506 381 487.5 384.5 c 128,-1,17
 469 388 469 388 440 388 c 0,18,19
 393 388 393 388 347.5 360.5 c 128,-1,20
 302 333 302 333 269 264 c 1,21,-1
 269 34 l 2,22,23
 269 -4 269 -4 280.5 -28 c 128,-1,24
 292 -52 292 -52 315.5 -62.5 c 128,-1,25
 339 -73 339 -73 376 -73 c 0,26,27
 405 -73 405 -73 429.5 -67.5 c 128,-1,28
 454 -62 454 -62 476 -54 c 1,29,-1
 504 -164 l 1,30,31
 470 -174 470 -174 429 -182.5 c 128,-1,32
 388 -191 388 -191 337 -191 c 0,0,1
EndSplineSet
EndChar

StartChar: uni027E
Encoding: 638 638 514
Width: 614
GlyphClass: 2
Flags: W
AnchorPoint: "Anchor-3" 198 -20 basechar 0
AnchorPoint: "Anchor-0" 360 528 basechar 0
LayerCount: 2
Fore
SplineSet
119 0 m 1,0,-1
 119 263 l 2,1,2
 119 336 119 336 147.5 394 c 128,-1,3
 176 452 176 452 236.5 486 c 128,-1,4
 297 520 297 520 392 520 c 0,5,6
 447 520 447 520 489.5 514.5 c 128,-1,7
 532 509 532 509 561 500 c 1,8,-1
 530 374 l 1,9,10
 505 381 505 381 488.5 384 c 128,-1,11
 472 387 472 387 455 388.5 c 128,-1,12
 438 390 438 390 414 390 c 0,13,14
 382 390 382 390 348.5 375 c 128,-1,15
 315 360 315 360 292 325 c 128,-1,16
 269 290 269 290 269 230 c 2,17,-1
 269 0 l 1,18,-1
 119 0 l 1,0,-1
EndSplineSet
EndChar

StartChar: uni0280
Encoding: 640 640 515
Width: 614
GlyphClass: 2
Flags: W
AnchorPoint: "Anchor-3" 319 -20 basechar 0
AnchorPoint: "Anchor-0" 319 528 basechar 0
LayerCount: 2
Fore
SplineSet
76 0 m 1,0,-1
 76 508 l 1,1,-1
 334 508 l 2,2,3
 392 508 392 508 439.5 492 c 128,-1,4
 487 476 487 476 515.5 439.5 c 128,-1,5
 544 403 544 403 544 340 c 0,6,7
 544 292 544 292 525 258.5 c 128,-1,8
 506 225 506 225 474.5 204.5 c 128,-1,9
 443 184 443 184 406 174.5 c 128,-1,10
 369 165 369 165 333 165 c 2,11,-1
 226 165 l 1,12,-1
 226 0 l 1,13,-1
 76 0 l 1,0,-1
226 267 m 1,14,-1
 314 267 l 2,15,16
 355 267 355 267 375 286 c 128,-1,17
 395 305 395 305 395 336 c 0,18,19
 395 368 395 368 375 382.5 c 128,-1,20
 355 397 355 397 314 397 c 2,21,-1
 226 397 l 1,22,-1
 226 267 l 1,14,-1
411 0 m 1,23,-1
 272 205 l 1,24,-1
 401 246 l 1,25,-1
 580 0 l 1,26,-1
 411 0 l 1,23,-1
EndSplineSet
EndChar

StartChar: uni0282
Encoding: 642 642 517
Width: 614
GlyphClass: 2
Flags: W
AnchorPoint: "Anchor-3" 317 -210 basechar 0
AnchorPoint: "Anchor-0" 319 528 basechar 0
LayerCount: 2
Fore
SplineSet
219 -191 m 0,0,1
 129 -191 129 -191 91.5 -137 c 128,-1,2
 54 -83 54 -83 54 13 c 2,3,-1
 54 66 l 1,4,-1
 186 47 l 1,5,-1
 186 -13 l 2,6,7
 186 -44 186 -44 199 -60.5 c 128,-1,8
 212 -77 212 -77 242 -77 c 0,9,10
 252 -77 252 -77 261.5 -75 c 128,-1,11
 271 -73 271 -73 282 -70 c 1,12,-1
 308 -177 l 1,13,14
 293 -183 293 -183 272 -187 c 128,-1,15
 251 -191 251 -191 219 -191 c 0,0,1
303 -12 m 0,16,17
 235 -12 235 -12 168.5 11 c 128,-1,18
 102 34 102 34 54 66 c 1,19,-1
 119 160 l 1,20,21
 165 130 165 130 216.5 114.5 c 128,-1,22
 268 99 268 99 324 99 c 0,23,24
 366 99 366 99 385 112 c 128,-1,25
 404 125 404 125 404 142 c 0,26,27
 404 153 404 153 398.5 161 c 128,-1,28
 393 169 393 169 379.5 175.5 c 128,-1,29
 366 182 366 182 341.5 188.5 c 128,-1,30
 317 195 317 195 280 203 c 0,31,32
 177 226 177 226 131.5 264.5 c 128,-1,33
 86 303 86 303 86 361 c 0,34,35
 86 433 86 433 148.5 476.5 c 128,-1,36
 211 520 211 520 319 520 c 0,37,38
 388 520 388 520 444 498 c 128,-1,39
 500 476 500 476 540 451 c 1,40,-1
 472 360 l 1,41,42
 434 384 434 384 391 396.5 c 128,-1,43
 348 409 348 409 306 409 c 0,44,45
 282 409 282 409 267 404 c 128,-1,46
 252 399 252 399 244 389.5 c 128,-1,47
 236 380 236 380 236 369 c 0,48,49
 236 349 236 349 262.5 339 c 128,-1,50
 289 329 289 329 353 314 c 0,51,52
 431 297 431 297 475 274.5 c 128,-1,53
 519 252 519 252 536 223 c 128,-1,54
 553 194 553 194 553 152 c 0,55,56
 553 106 553 106 525 69 c 128,-1,57
 497 32 497 32 441 10 c 128,-1,58
 385 -12 385 -12 303 -12 c 0,16,17
EndSplineSet
EndChar

StartChar: uni0283
Encoding: 643 643 518
Width: 614
GlyphClass: 2
Flags: W
AnchorPoint: "Anchor-3" 232 -210 basechar 0
AnchorPoint: "Anchor-0" 398 750 basechar 0
LayerCount: 2
Fore
SplineSet
189 -201 m 0,0,1
 139 -201 139 -201 106 -191 c 128,-1,2
 73 -181 73 -181 44 -167 c 1,3,-1
 87 -62 l 1,4,5
 109 -71 109 -71 127.5 -77 c 128,-1,6
 146 -83 146 -83 166 -83 c 0,7,8
 192 -83 192 -83 206.5 -73 c 128,-1,9
 221 -63 221 -63 227 -43.5 c 128,-1,10
 233 -24 233 -24 233 6 c 2,11,-1
 233 518 l 2,12,13
 233 576 233 576 252 624.5 c 128,-1,14
 271 673 271 673 316 701.5 c 128,-1,15
 361 730 361 730 439 730 c 0,16,17
 486 730 486 730 517.5 721 c 128,-1,18
 549 712 549 712 573 700 c 1,19,-1
 537 593 l 1,20,21
 517 602 517 602 499 607 c 128,-1,22
 481 612 481 612 463 612 c 0,23,24
 433 612 433 612 416 602.5 c 128,-1,25
 399 593 399 593 391.5 573 c 128,-1,26
 384 553 384 553 384 523 c 2,27,-1
 384 10 l 2,28,29
 384 -47 384 -47 367 -95 c 128,-1,30
 350 -143 350 -143 307 -172 c 128,-1,31
 264 -201 264 -201 189 -201 c 0,0,1
EndSplineSet
EndChar

StartChar: uni0284
Encoding: 644 644 519
Width: 614
GlyphClass: 2
Flags: W
AnchorPoint: "Anchor-3" 232 -210 basechar 0
AnchorPoint: "Anchor-0" 398 750 basechar 0
LayerCount: 2
Fore
SplineSet
83 226 m 1,0,-1
 83 297 l 1,1,-1
 238 303 l 1,2,-1
 538 303 l 1,3,-1
 538 226 l 1,4,-1
 83 226 l 1,0,-1
189 -201 m 0,5,6
 139 -201 139 -201 106 -191 c 128,-1,7
 73 -181 73 -181 44 -167 c 1,8,-1
 87 -62 l 1,9,10
 109 -71 109 -71 127.5 -77 c 128,-1,11
 146 -83 146 -83 166 -83 c 0,12,13
 192 -83 192 -83 206.5 -73 c 128,-1,14
 221 -63 221 -63 227 -43.5 c 128,-1,15
 233 -24 233 -24 233 6 c 2,16,-1
 233 518 l 2,17,18
 233 576 233 576 252 624.5 c 128,-1,19
 271 673 271 673 316 701.5 c 128,-1,20
 361 730 361 730 439 730 c 0,21,22
 486 730 486 730 517.5 721 c 128,-1,23
 549 712 549 712 573 700 c 1,24,-1
 537 593 l 1,25,26
 517 602 517 602 499 607 c 128,-1,27
 481 612 481 612 463 612 c 0,28,29
 433 612 433 612 416 602.5 c 128,-1,30
 399 593 399 593 391.5 573 c 128,-1,31
 384 553 384 553 384 523 c 2,32,-1
 384 10 l 2,33,34
 384 -47 384 -47 367 -95 c 128,-1,35
 350 -143 350 -143 307 -172 c 128,-1,36
 264 -201 264 -201 189 -201 c 0,5,6
EndSplineSet
EndChar

StartChar: uni0288
Encoding: 648 648 521
Width: 614
GlyphClass: 2
Flags: W
AnchorPoint: "Anchor-3" 378 -210 basechar 0
AnchorPoint: "Anchor-0" 263 674 basechar 0
LayerCount: 2
Fore
SplineSet
397 -191 m 0,0,1
 316 -191 316 -191 268.5 -163 c 128,-1,2
 221 -135 221 -135 199.5 -85 c 128,-1,3
 178 -35 178 -35 178 32 c 2,4,-1
 178 390 l 1,5,-1
 50 390 l 1,6,-1
 50 502 l 1,7,-1
 185 508 l 1,8,-1
 205 664 l 1,9,-1
 329 664 l 1,10,-1
 329 508 l 1,11,-1
 544 508 l 1,12,-1
 544 390 l 1,13,-1
 329 390 l 1,14,-1
 329 34 l 2,15,16
 329 -4 329 -4 340 -28 c 128,-1,17
 351 -52 351 -52 374.5 -62.5 c 128,-1,18
 398 -73 398 -73 435 -73 c 0,19,20
 465 -73 465 -73 489.5 -67.5 c 128,-1,21
 514 -62 514 -62 537 -54 c 1,22,-1
 563 -164 l 1,23,24
 529 -174 529 -174 487.5 -182.5 c 128,-1,25
 446 -191 446 -191 397 -191 c 0,0,1
EndSplineSet
EndChar

StartChar: uni0289
Encoding: 649 649 522
Width: 614
GlyphClass: 2
Flags: W
AnchorPoint: "Anchor-3" 321 -20 basechar 0
AnchorPoint: "Anchor-2" 462 0 basechar 0
AnchorPoint: "Anchor-0" 303 528 basechar 0
LayerCount: 2
Fore
SplineSet
229 -12 m 0,0,1
 147 -12 147 -12 110 42.5 c 128,-1,2
 73 97 73 97 73 193 c 2,3,-1
 73 508 l 1,4,-1
 223 508 l 1,5,-1
 223 212 l 2,6,7
 223 157 223 157 238.5 136.5 c 128,-1,8
 254 116 254 116 286 116 c 0,9,10
 315 116 315 116 334.5 129 c 128,-1,11
 354 142 354 142 376 172 c 1,12,-1
 376 508 l 1,13,-1
 526 508 l 1,14,-1
 526 0 l 1,15,-1
 403 0 l 1,16,-1
 393 71 l 1,17,-1
 390 71 l 1,18,19
 357 33 357 33 319 10.5 c 128,-1,20
 281 -12 281 -12 229 -12 c 0,0,1
-11 272 m 1,21,-1
 -11 343 l 1,22,-1
 73 349 l 1,23,-1
 614 349 l 1,24,-1
 614 272 l 1,25,-1
 -11 272 l 1,21,-1
EndSplineSet
EndChar

StartChar: uni028A
Encoding: 650 650 523
Width: 614
GlyphClass: 2
Flags: W
AnchorPoint: "Anchor-3" 307 -20 basechar 0
AnchorPoint: "Anchor-0" 307 528 basechar 0
LayerCount: 2
Fore
SplineSet
307 -12 m 0,0,1
 226 -12 226 -12 169.5 19.5 c 128,-1,2
 113 51 113 51 82.5 102 c 128,-1,3
 52 153 52 153 52 206 c 0,4,5
 52 247 52 247 63 280.5 c 128,-1,6
 74 314 74 314 92 341 c 128,-1,7
 110 368 110 368 129 387 c 1,8,-1
 129 390 l 1,9,-1
 40 390 l 1,10,-1
 40 508 l 1,11,-1
 266 508 l 1,12,-1
 266 411 l 1,13,14
 236 373 236 373 219.5 335 c 128,-1,15
 203 297 203 297 203 238 c 0,16,17
 203 202 203 202 214 172.5 c 128,-1,18
 225 143 225 143 248 126.5 c 128,-1,19
 271 110 271 110 307 110 c 256,20,21
 343 110 343 110 366 126.5 c 128,-1,22
 389 143 389 143 400.5 172.5 c 128,-1,23
 412 202 412 202 412 238 c 0,24,25
 412 297 412 297 395 335 c 128,-1,26
 378 373 378 373 348 411 c 1,27,-1
 348 508 l 1,28,-1
 574 508 l 1,29,-1
 574 390 l 1,30,-1
 485 390 l 1,31,-1
 485 387 l 1,32,33
 505 368 505 368 523 341 c 128,-1,34
 541 314 541 314 551.5 280.5 c 128,-1,35
 562 247 562 247 562 206 c 0,36,37
 562 153 562 153 532.5 102 c 128,-1,38
 503 51 503 51 446 19.5 c 128,-1,39
 389 -12 389 -12 307 -12 c 0,0,1
EndSplineSet
EndChar

StartChar: uni028B
Encoding: 651 651 524
Width: 614
GlyphClass: 2
Flags: W
AnchorPoint: "Anchor-3" 314 -20 basechar 0
AnchorPoint: "Anchor-0" 314 528 basechar 0
LayerCount: 2
Fore
SplineSet
305 -12 m 0,0,1
 231 -12 231 -12 177 15.5 c 128,-1,2
 123 43 123 43 93 97.5 c 128,-1,3
 63 152 63 152 63 232 c 2,4,-1
 63 508 l 1,5,-1
 214 508 l 1,6,-1
 214 234 l 2,7,8
 214 191 214 191 226 163 c 128,-1,9
 238 135 238 135 260 122.5 c 128,-1,10
 282 110 282 110 311 110 c 0,11,12
 344 110 344 110 366 131 c 128,-1,13
 388 152 388 152 400 191.5 c 128,-1,14
 412 231 412 231 412 286 c 0,15,16
 412 346 412 346 398.5 374.5 c 128,-1,17
 385 403 385 403 354 403 c 0,18,19
 347 403 347 403 343 402.5 c 128,-1,20
 339 402 339 402 333 400 c 1,21,-1
 315 512 l 1,22,23
 329 517 329 517 345.5 518.5 c 128,-1,24
 362 520 362 520 387 520 c 0,25,26
 438 520 438 520 478.5 498 c 128,-1,27
 519 476 519 476 542.5 429 c 128,-1,28
 566 382 566 382 566 308 c 0,29,30
 566 212 566 212 537 140 c 128,-1,31
 508 68 508 68 450 28 c 128,-1,32
 392 -12 392 -12 305 -12 c 0,0,1
EndSplineSet
EndChar

StartChar: uni028E
Encoding: 654 654 527
Width: 614
GlyphClass: 2
Flags: W
AnchorPoint: "Anchor-3" 309 -20 basechar 0
AnchorPoint: "Anchor-0" 365 750 basechar 0
LayerCount: 2
Fore
SplineSet
30 0 m 1,0,-1
 239 534 l 2,1,2
 264 597 264 597 293.5 640.5 c 128,-1,3
 323 684 323 684 366 707 c 128,-1,4
 409 730 409 730 471 730 c 0,5,6
 494 730 494 730 512.5 727.5 c 128,-1,7
 531 725 531 725 548 720 c 1,8,-1
 520 605 l 1,9,10
 510 608 510 608 501 609.5 c 128,-1,11
 492 611 492 611 482 611 c 0,12,13
 440 611 440 611 416.5 591 c 128,-1,14
 393 571 393 571 381 541 c 2,15,-1
 362 495 l 1,16,-1
 583 0 l 1,17,-1
 433 0 l 1,18,-1
 348 218 l 2,19,20
 334 254 334 254 322 293 c 128,-1,21
 310 332 310 332 297 371 c 1,22,-1
 293 371 l 1,23,24
 283 334 283 334 270.5 295 c 128,-1,25
 258 256 258 256 247 218 c 2,26,-1
 172 0 l 1,27,-1
 30 0 l 1,0,-1
EndSplineSet
EndChar

StartChar: uni028F
Encoding: 655 655 528
Width: 614
GlyphClass: 2
Flags: W
AnchorPoint: "Anchor-3" 307 -20 basechar 0
AnchorPoint: "Anchor-0" 307 528 basechar 0
LayerCount: 2
Fore
SplineSet
233 0 m 1,0,-1
 233 154 l 1,1,-1
 34 508 l 1,2,-1
 193 508 l 1,3,-1
 248 398 l 2,4,5
 263 362 263 362 277 330 c 128,-1,6
 291 298 291 298 307 259 c 1,7,-1
 311 259 l 1,8,9
 326 297 326 297 340.5 329.5 c 128,-1,10
 355 362 355 362 373 398 c 2,11,-1
 426 508 l 1,12,-1
 583 508 l 1,13,-1
 384 154 l 1,14,-1
 384 0 l 1,15,-1
 233 0 l 1,0,-1
EndSplineSet
EndChar

StartChar: uni0290
Encoding: 656 656 529
Width: 614
GlyphClass: 2
Flags: W
AnchorPoint: "Anchor-0" 331 528 basechar 0
LayerCount: 2
Fore
SplineSet
570 -191 m 0,0,1
 504 -191 504 -191 467 -165 c 128,-1,2
 430 -139 430 -139 414.5 -98 c 128,-1,3
 399 -57 399 -57 399 -13 c 2,4,-1
 399 0 l 1,5,-1
 72 0 l 1,6,-1
 72 81 l 1,7,-1
 335 390 l 1,8,-1
 103 390 l 1,9,-1
 103 508 l 1,10,-1
 545 508 l 1,11,-1
 545 428 l 1,12,-1
 280 118 l 1,13,-1
 550 118 l 1,14,-1
 550 -1 l 2,15,16
 550 -38 550 -38 559 -55.5 c 128,-1,17
 568 -73 568 -73 593 -73 c 0,18,19
 601 -73 601 -73 608 -71.5 c 128,-1,20
 615 -70 615 -70 623 -67 c 1,21,-1
 649 -177 l 1,22,23
 636 -183 636 -183 617 -187 c 128,-1,24
 598 -191 598 -191 570 -191 c 0,0,1
EndSplineSet
EndChar

StartChar: uni0291
Encoding: 657 657 530
Width: 614
GlyphClass: 2
Flags: W
AnchorPoint: "Anchor-0" 310 528 basechar 0
LayerCount: 2
Fore
SplineSet
368 -116 m 1,0,-1
 292 -101 l 1,1,2
 312 10 312 10 340.5 91 c 128,-1,3
 369 172 369 172 407 216.5 c 128,-1,4
 445 261 445 261 494 261 c 0,5,6
 544 261 544 261 573.5 233 c 128,-1,7
 603 205 603 205 603 150 c 0,8,9
 603 109 603 109 583.5 74.5 c 128,-1,10
 564 40 564 40 524 20 c 128,-1,11
 484 0 484 0 422 0 c 2,12,-1
 72 0 l 1,13,-1
 72 81 l 1,14,-1
 316 390 l 1,15,-1
 103 390 l 1,16,-1
 103 508 l 1,17,-1
 504 508 l 1,18,-1
 504 427 l 1,19,-1
 261 118 l 1,20,21
 315 115 315 115 363 112.5 c 128,-1,22
 411 110 411 110 462 110 c 0,23,24
 492 110 492 110 506 123 c 128,-1,25
 520 136 520 136 520 153 c 0,26,27
 520 166 520 166 513 172.5 c 128,-1,28
 506 179 506 179 492 179 c 0,29,30
 474 179 474 179 451.5 151 c 128,-1,31
 429 123 429 123 407.5 58.5 c 128,-1,32
 386 -6 386 -6 368 -116 c 1,0,-1
EndSplineSet
EndChar

StartChar: uni0292
Encoding: 658 658 531
Width: 614
GlyphClass: 2
Flags: W
AnchorPoint: "Anchor-3" 289 -225 basechar 0
AnchorPoint: "Anchor-0" 304 528 basechar 0
LayerCount: 2
Fore
SplineSet
289 -201 m 0,0,1
 235 -201 235 -201 191.5 -187.5 c 128,-1,2
 148 -174 148 -174 114.5 -152.5 c 128,-1,3
 81 -131 81 -131 53 -106 c 1,4,-1
 122 -12 l 1,5,6
 141 -30 141 -30 164 -45.5 c 128,-1,7
 187 -61 187 -61 214 -70 c 128,-1,8
 241 -79 241 -79 270 -79 c 0,9,10
 307 -79 307 -79 335.5 -65.5 c 128,-1,11
 364 -52 364 -52 379.5 -27 c 128,-1,12
 395 -2 395 -2 395 34 c 0,13,14
 395 81 395 81 362 107.5 c 128,-1,15
 329 134 329 134 272 134 c 0,16,17
 243 134 243 134 229 129 c 128,-1,18
 215 124 215 124 189 113 c 1,19,-1
 140 185 l 1,20,-1
 341 390 l 1,21,-1
 87 390 l 1,22,-1
 87 508 l 1,23,-1
 522 508 l 1,24,-1
 522 428 l 1,25,-1
 310 199 l 1,26,-1
 286 214 l 1,27,28
 301 222 301 222 311.5 225.5 c 128,-1,29
 322 229 322 229 338 229 c 0,30,31
 401 229 401 229 448 203 c 128,-1,32
 495 177 495 177 521 133.5 c 128,-1,33
 547 90 547 90 547 37 c 0,34,35
 547 -39 547 -39 511 -92 c 128,-1,36
 475 -145 475 -145 417 -173 c 128,-1,37
 359 -201 359 -201 289 -201 c 0,0,1
EndSplineSet
EndChar

StartChar: uni02A4
Encoding: 676 676 532
Width: 614
GlyphClass: 2
Flags: W
AnchorPoint: "Anchor-3" 338 -210 basechar 0
AnchorPoint: "Anchor-0" 287 748 basechar 0
LayerCount: 2
Fore
SplineSet
150 -12 m 0,0,1
 105 -12 105 -12 69 20.5 c 128,-1,2
 33 53 33 53 13 112.5 c 128,-1,3
 -7 172 -7 172 -7 254 c 0,4,5
 -7 334 -7 334 14 394.5 c 128,-1,6
 35 455 35 455 70.5 487.5 c 128,-1,7
 106 520 106 520 151 520 c 0,8,9
 175 520 175 520 197 508.5 c 128,-1,10
 219 497 219 497 234 473 c 1,11,-1
 237 473 l 1,12,-1
 230 566 l 1,13,-1
 230 717 l 1,14,-1
 348 717 l 1,15,-1
 348 0 l 1,16,-1
 257 0 l 1,17,-1
 245 45 l 1,18,-1
 241 45 l 1,19,20
 223 17 223 17 200.5 2.5 c 128,-1,21
 178 -12 178 -12 150 -12 c 0,0,1
185 111 m 0,22,23
 200 111 200 111 212.5 124.5 c 128,-1,24
 225 138 225 138 230 163 c 1,25,-1
 230 364 l 1,26,27
 222 380 222 380 210.5 388.5 c 128,-1,28
 199 397 199 397 185 397 c 0,29,30
 168 397 168 397 153.5 381.5 c 128,-1,31
 139 366 139 366 131.5 334.5 c 128,-1,32
 124 303 124 303 124 255 c 0,33,34
 124 183 124 183 140 147 c 128,-1,35
 156 111 156 111 185 111 c 0,22,23
449 -201 m 0,36,37
 402 -201 402 -201 367.5 -186 c 128,-1,38
 333 -171 333 -171 305 -145 c 1,39,-1
 364 -49 l 1,40,41
 380 -63 380 -63 397 -71.5 c 128,-1,42
 414 -80 414 -80 432 -80 c 0,43,44
 462 -80 462 -80 482 -54 c 128,-1,45
 502 -28 502 -28 502 30 c 0,46,47
 502 78 502 78 483.5 101.5 c 128,-1,48
 465 125 465 125 438 125 c 0,49,50
 429 125 429 125 423 123.5 c 128,-1,51
 417 122 417 122 408 116 c 1,52,-1
 360 199 l 1,53,-1
 473 390 l 1,54,-1
 310 390 l 1,55,-1
 310 508 l 1,56,-1
 610 508 l 1,57,-1
 610 427 l 1,58,-1
 480 191 l 1,59,-1
 435 212 l 1,60,61
 443 219 443 219 453.5 225 c 128,-1,62
 464 231 464 231 478 231 c 0,63,64
 526 230 526 230 561 203.5 c 128,-1,65
 596 177 596 177 614.5 131.5 c 128,-1,66
 633 86 633 86 633 28 c 0,67,68
 633 -37 633 -37 611 -88.5 c 128,-1,69
 589 -140 589 -140 548 -170.5 c 128,-1,70
 507 -201 507 -201 449 -201 c 0,36,37
EndSplineSet
EndChar

StartChar: uni02A6
Encoding: 678 678 533
Width: 614
GlyphClass: 2
Flags: W
AnchorPoint: "Anchor-3" 346 -20 basechar 0
AnchorPoint: "Anchor-0" 338 674 basechar 0
LayerCount: 2
Fore
SplineSet
339 -12 m 0,0,1
 246 -12 246 -12 188 13 c 128,-1,2
 130 38 130 38 103.5 84 c 128,-1,3
 77 130 77 130 77 191 c 2,4,-1
 77 390 l 1,5,-1
 7 390 l 1,6,-1
 7 502 l 1,7,-1
 83 508 l 1,8,-1
 102 664 l 1,9,-1
 227 664 l 1,10,-1
 227 508 l 1,11,-1
 420 508 l 1,12,-1
 420 390 l 1,13,-1
 227 390 l 1,14,-1
 227 195 l 2,15,16
 227 160 227 160 242 139 c 128,-1,17
 257 118 257 118 284.5 108.5 c 128,-1,18
 312 99 312 99 353 99 c 0,19,20
 399 99 399 99 425 106 c 128,-1,21
 451 113 451 113 461.5 125 c 128,-1,22
 472 137 472 137 472 155 c 0,23,24
 472 177 472 177 459 192 c 128,-1,25
 446 207 446 207 426 220.5 c 128,-1,26
 406 234 406 234 383 249.5 c 128,-1,27
 360 265 360 265 339.5 283.5 c 128,-1,28
 319 302 319 302 306.5 327 c 128,-1,29
 294 352 294 352 294 386 c 0,30,31
 294 447 294 447 339 483.5 c 128,-1,32
 384 520 384 520 457 520 c 0,33,34
 498 520 498 520 535 507 c 128,-1,35
 572 494 572 494 602 468 c 1,36,-1
 552 387 l 1,37,38
 529 403 529 403 511 409.5 c 128,-1,39
 493 416 493 416 473 416 c 256,40,41
 454 416 454 416 443.5 406.5 c 128,-1,42
 433 397 433 397 433 380 c 0,43,44
 433 367 433 367 445.5 355 c 128,-1,45
 458 343 458 343 477.5 330 c 128,-1,46
 497 317 497 317 519 302.5 c 128,-1,47
 541 288 541 288 560.5 267.5 c 128,-1,48
 580 247 580 247 592 218 c 128,-1,49
 604 189 604 189 604 151 c 0,50,51
 604 101 604 101 579 64.5 c 128,-1,52
 554 28 554 28 496 8 c 128,-1,53
 438 -12 438 -12 339 -12 c 0,0,1
EndSplineSet
EndChar

StartChar: uni02A7
Encoding: 679 679 534
Width: 614
GlyphClass: 2
Flags: W
AnchorPoint: "Anchor-3" 339 -210 basechar 0
AnchorPoint: "Anchor-0" 272 748 basechar 0
LayerCount: 2
Fore
SplineSet
246 -12 m 0,0,1
 155 -12 155 -12 115.5 42.5 c 128,-1,2
 76 97 76 97 76 184 c 2,3,-1
 76 390 l 1,4,-1
 6 390 l 1,5,-1
 6 502 l 1,6,-1
 83 508 l 1,7,-1
 101 664 l 1,8,-1
 226 664 l 1,9,-1
 226 508 l 1,10,-1
 449 508 l 1,11,-1
 449 390 l 1,12,-1
 226 390 l 1,13,-1
 226 186 l 2,14,15
 226 143 226 143 241 124 c 128,-1,16
 256 105 256 105 279 105 c 0,17,18
 294 105 294 105 306.5 108 c 128,-1,19
 319 111 319 111 332 116 c 1,20,-1
 355 6 l 1,21,22
 336 0 336 0 309.5 -6 c 128,-1,23
 283 -12 283 -12 246 -12 c 0,0,1
379 -201 m 0,24,25
 348 -201 348 -201 327.5 -197 c 128,-1,26
 307 -193 307 -193 292 -186 c 1,27,-1
 318 -76 l 1,28,29
 329 -79 329 -79 338.5 -81 c 128,-1,30
 348 -83 348 -83 358 -83 c 0,31,32
 384 -83 384 -83 394 -63 c 128,-1,33
 404 -43 404 -43 404 -1 c 2,34,-1
 404 532 l 2,35,36
 404 584 404 584 422 629.5 c 128,-1,37
 440 675 440 675 480.5 702.5 c 128,-1,38
 521 730 521 730 591 730 c 0,39,40
 618 730 618 730 635 726 c 128,-1,41
 652 722 652 722 667 716 c 1,42,-1
 640 605 l 1,43,44
 633 608 633 608 625.5 610 c 128,-1,45
 618 612 618 612 610 612 c 0,46,47
 579 612 579 612 567 592.5 c 128,-1,48
 555 573 555 573 555 530 c 2,49,-1
 555 3 l 2,50,51
 555 -52 555 -52 538 -98.5 c 128,-1,52
 521 -145 521 -145 483 -173 c 128,-1,53
 445 -201 445 -201 379 -201 c 0,24,25
EndSplineSet
EndChar

StartChar: uni0294
Encoding: 660 660 535
Width: 614
GlyphClass: 2
Flags: W
AnchorPoint: "Anchor-3" 285 -20 basechar 0
AnchorPoint: "Anchor-0" 307 750 basechar 0
LayerCount: 2
Fore
SplineSet
210 0 m 1,0,-1
 210 321 l 1,1,2
 279 362 279 362 317 391 c 128,-1,3
 355 420 355 420 372 447.5 c 128,-1,4
 389 475 389 475 389 508 c 0,5,6
 389 556 389 556 356 582 c 128,-1,7
 323 608 323 608 265 608 c 0,8,9
 222 608 222 608 186.5 587 c 128,-1,10
 151 566 151 566 126 537 c 1,11,-1
 51 632 l 1,12,13
 76 659 76 659 109.5 681 c 128,-1,14
 143 703 143 703 186 716.5 c 128,-1,15
 229 730 229 730 282 730 c 0,16,17
 352 730 352 730 410.5 706 c 128,-1,18
 469 682 469 682 504.5 634.5 c 128,-1,19
 540 587 540 587 540 514 c 0,20,21
 540 459 540 459 517.5 417 c 128,-1,22
 495 375 495 375 455 339 c 128,-1,23
 415 303 415 303 360 264 c 1,24,-1
 360 0 l 1,25,-1
 210 0 l 1,0,-1
EndSplineSet
EndChar

StartChar: uni0295
Encoding: 661 661 536
Width: 614
GlyphClass: 2
Flags: W
AnchorPoint: "Anchor-3" 328 -20 basechar 0
AnchorPoint: "Anchor-0" 309 750 basechar 0
LayerCount: 2
Fore
SplineSet
251 0 m 1,0,-1
 251 264 l 1,1,2
 197 303 197 303 156.5 339 c 128,-1,3
 116 375 116 375 93.5 417 c 128,-1,4
 71 459 71 459 71 514 c 0,5,6
 71 587 71 587 106.5 634.5 c 128,-1,7
 142 682 142 682 201 706 c 128,-1,8
 260 730 260 730 330 730 c 0,9,10
 382 730 382 730 425 716.5 c 128,-1,11
 468 703 468 703 501.5 680.5 c 128,-1,12
 535 658 535 658 560 632 c 1,13,-1
 485 537 l 1,14,15
 460 567 460 567 424 587.5 c 128,-1,16
 388 608 388 608 346 608 c 0,17,18
 290 608 290 608 256 582 c 128,-1,19
 222 556 222 556 222 508 c 0,20,21
 222 475 222 475 238.5 447.5 c 128,-1,22
 255 420 255 420 294.5 390.5 c 128,-1,23
 334 361 334 361 401 321 c 1,24,-1
 401 0 l 1,25,-1
 251 0 l 1,0,-1
EndSplineSet
EndChar

StartChar: uni02A1
Encoding: 673 673 537
Width: 614
GlyphClass: 2
Flags: W
AnchorPoint: "Anchor-3" 285 -20 basechar 0
AnchorPoint: "Anchor-0" 307 750 basechar 0
LayerCount: 2
Fore
SplineSet
210 0 m 1,0,-1
 210 245 l 1,1,-1
 55 245 l 1,2,-1
 55 315 l 1,3,-1
 133 322 l 1,4,-1
 228 322 l 1,5,6
 311 371 311 371 350 418 c 128,-1,7
 389 465 389 465 389 508 c 0,8,9
 389 557 389 557 358 582.5 c 128,-1,10
 327 608 327 608 273 608 c 0,11,12
 228 608 228 608 190.5 587 c 128,-1,13
 153 566 153 566 126 537 c 1,14,-1
 51 631 l 1,15,16
 77 659 77 659 111.5 681 c 128,-1,17
 146 703 146 703 191 716 c 128,-1,18
 236 729 236 729 290 729 c 0,19,20
 359 729 359 729 415 705.5 c 128,-1,21
 471 682 471 682 505.5 634.5 c 128,-1,22
 540 587 540 587 540 514 c 0,23,24
 540 476 540 476 523.5 441.5 c 128,-1,25
 507 407 507 407 479 377 c 128,-1,26
 451 347 451 347 418 322 c 1,27,-1
 553 322 l 1,28,-1
 553 245 l 1,29,-1
 360 245 l 1,30,-1
 360 0 l 1,31,-1
 210 0 l 1,0,-1
EndSplineSet
EndChar

StartChar: uni02A2
Encoding: 674 674 538
Width: 614
GlyphClass: 2
Flags: W
AnchorPoint: "Anchor-3" 328 -20 basechar 0
AnchorPoint: "Anchor-0" 309 750 basechar 0
LayerCount: 2
Fore
SplineSet
251 0 m 1,0,-1
 251 245 l 1,1,-1
 58 245 l 1,2,-1
 58 315 l 1,3,-1
 136 322 l 1,4,-1
 194 322 l 1,5,6
 161 348 161 348 133 377.5 c 128,-1,7
 105 407 105 407 88.5 441.5 c 128,-1,8
 72 476 72 476 72 514 c 0,9,10
 72 587 72 587 106 634.5 c 128,-1,11
 140 682 140 682 197 705.5 c 128,-1,12
 254 729 254 729 322 729 c 0,13,14
 376 729 376 729 420.5 716 c 128,-1,15
 465 703 465 703 500 680.5 c 128,-1,16
 535 658 535 658 560 631 c 1,17,-1
 485 537 l 1,18,19
 458 567 458 567 420.5 587.5 c 128,-1,20
 383 608 383 608 338 608 c 0,21,22
 285 608 285 608 253.5 582.5 c 128,-1,23
 222 557 222 557 222 508 c 0,24,25
 222 465 222 465 261.5 418 c 128,-1,26
 301 371 301 371 383 322 c 1,27,-1
 556 322 l 1,28,-1
 556 245 l 1,29,-1
 401 245 l 1,30,-1
 401 0 l 1,31,-1
 251 0 l 1,0,-1
EndSplineSet
EndChar

StartChar: uni01C2
Encoding: 450 450 539
Width: 614
GlyphClass: 1
Flags: W
LayerCount: 2
Fore
SplineSet
232 -188 m 1,0,-1
 232 717 l 1,1,-1
 382 717 l 1,2,-1
 382 -188 l 1,3,-1
 232 -188 l 1,0,-1
69 336 m 1,4,-1
 69 408 l 1,5,-1
 234 413 l 1,6,-1
 546 413 l 1,7,-1
 546 336 l 1,8,-1
 69 336 l 1,4,-1
69 135 m 1,9,-1
 69 207 l 1,10,-1
 234 212 l 1,11,-1
 546 212 l 1,12,-1
 546 135 l 1,13,-1
 69 135 l 1,9,-1
EndSplineSet
EndChar

StartChar: uni0298
Encoding: 664 664 540
Width: 614
GlyphClass: 1
Flags: W
LayerCount: 2
Fore
SplineSet
307 -12 m 256,0,1
 232 -12 232 -12 173.5 29 c 128,-1,2
 115 70 115 70 81.5 153 c 128,-1,3
 48 236 48 236 48 360 c 256,4,5
 48 485 48 485 81.5 567.5 c 128,-1,6
 115 650 115 650 173.5 690 c 128,-1,7
 232 730 232 730 307 730 c 256,8,9
 382 730 382 730 441 689.5 c 128,-1,10
 500 649 500 649 533.5 567 c 128,-1,11
 567 485 567 485 567 360 c 256,12,13
 567 235 567 235 533.5 152.5 c 128,-1,14
 500 70 500 70 441 29 c 128,-1,15
 382 -12 382 -12 307 -12 c 256,0,1
307 110 m 256,16,17
 339 110 339 110 366 132.5 c 128,-1,18
 393 155 393 155 410.5 209.5 c 128,-1,19
 428 264 428 264 428 360 c 0,20,21
 428 454 428 454 410.5 508.5 c 128,-1,22
 393 563 393 563 366 585.5 c 128,-1,23
 339 608 339 608 307 608 c 256,24,25
 275 608 275 608 248 585.5 c 128,-1,26
 221 563 221 563 204 509 c 128,-1,27
 187 455 187 455 187 360 c 0,28,29
 187 264 187 264 204 209.5 c 128,-1,30
 221 155 221 155 248 132.5 c 128,-1,31
 275 110 275 110 307 110 c 256,16,17
307 289 m 0,32,33
 277 289 277 289 255 310 c 128,-1,34
 233 331 233 331 233 360 c 0,35,36
 233 393 233 393 255.5 415 c 128,-1,37
 278 437 278 437 307 437 c 0,38,39
 338 437 338 437 359.5 415 c 128,-1,40
 381 393 381 393 381 360 c 0,41,42
 381 330 381 330 359.5 309.5 c 128,-1,43
 338 289 338 289 307 289 c 0,32,33
EndSplineSet
EndChar

StartChar: uni014A.a
Encoding: 1114119 -1 541
Width: 614
GlyphClass: 2
Flags: W
AnchorPoint: "Anchor-0" 317 688 basechar 0
LayerCount: 2
Fore
SplineSet
387 -186 m 0,0,1
 355 -186 355 -186 334 -182 c 128,-1,2
 313 -178 313 -178 297 -172 c 1,3,-1
 325 -60 l 1,4,5
 334 -63 334 -63 342.5 -65.5 c 128,-1,6
 351 -68 351 -68 359 -68 c 0,7,8
 384 -68 384 -68 393 -48 c 128,-1,9
 402 -28 402 -28 402 0 c 1,10,-1
 392 0 l 1,11,-1
 252 333 l 1,12,-1
 195 478 l 1,13,-1
 190 478 l 1,14,15
 195 424 195 424 203.5 360 c 128,-1,16
 212 296 212 296 212 237 c 2,17,-1
 212 0 l 1,18,-1
 68 0 l 1,19,-1
 68 668 l 1,20,-1
 222 668 l 1,21,-1
 362 336 l 1,22,-1
 420 188 l 1,23,-1
 424 188 l 1,24,25
 419 241 419 241 410.5 307 c 128,-1,26
 402 373 402 373 402 431 c 2,27,-1
 402 668 l 1,28,-1
 547 668 l 1,29,-1
 547 18 l 2,30,31
 547 -37 547 -37 531.5 -83.5 c 128,-1,32
 516 -130 516 -130 481 -158 c 128,-1,33
 446 -186 446 -186 387 -186 c 0,0,1
EndSplineSet
EndChar

StartChar: aringacute.a
Encoding: 1114129 -1 551
Width: 614
GlyphClass: 1
Flags: W
LayerCount: 2
Fore
SplineSet
287 752 m 1,0,-1
 223 768 l 1,1,-1
 384 899 l 1,2,-1
 444 823 l 1,3,-1
 287 752 l 1,0,-1
262 -12 m 0,4,5
 197 -12 197 -12 149 19.5 c 128,-1,6
 101 51 101 51 74.5 111 c 128,-1,7
 48 171 48 171 48 254 c 256,8,9
 48 337 48 337 79.5 396.5 c 128,-1,10
 111 456 111 456 161 488 c 128,-1,11
 211 520 211 520 268 520 c 0,12,13
 307 520 307 520 341.5 504.5 c 128,-1,14
 376 489 376 489 407 456 c 1,15,-1
 411 456 l 1,16,-1
 423 508 l 1,17,-1
 541 508 l 1,18,-1
 541 0 l 1,19,-1
 418 0 l 1,20,-1
 407 52 l 1,21,-1
 403 52 l 1,22,23
 375 24 375 24 337 6 c 128,-1,24
 299 -12 299 -12 262 -12 c 0,4,5
301 111 m 0,25,26
 327 111 327 111 349 121.5 c 128,-1,27
 371 132 371 132 390 158 c 1,28,-1
 390 364 l 1,29,30
 370 382 370 382 349 389.5 c 128,-1,31
 328 397 328 397 305 397 c 0,32,33
 277 397 277 397 253.5 382 c 128,-1,34
 230 367 230 367 216.5 335.5 c 128,-1,35
 203 304 203 304 203 256 c 0,36,37
 203 181 203 181 228.5 146 c 128,-1,38
 254 111 254 111 301 111 c 0,25,26
315 582 m 0,39,40
 249 582 249 582 215 613 c 128,-1,41
 181 644 181 644 181 688 c 256,42,43
 181 732 181 732 215.5 763 c 128,-1,44
 250 794 250 794 315 794 c 0,45,46
 383 794 383 794 417 763 c 128,-1,47
 451 732 451 732 451 688 c 256,48,49
 451 644 451 644 417 613 c 128,-1,50
 383 582 383 582 315 582 c 0,39,40
315 638 m 0,51,52
 334 638 334 638 347 652.5 c 128,-1,53
 360 667 360 667 360 688 c 256,54,55
 360 710 360 710 347.5 723.5 c 128,-1,56
 335 737 335 737 315 737 c 0,57,58
 297 737 297 737 284 723.5 c 128,-1,59
 271 710 271 710 271 688 c 256,60,61
 271 666 271 666 284 652 c 128,-1,62
 297 638 297 638 315 638 c 0,51,52
EndSplineSet
EndChar

StartChar: aogonek.a
Encoding: 1114143 -1 565
Width: 614
GlyphClass: 2
Flags: W
AnchorPoint: "Anchor-0" 321 528 basechar 0
LayerCount: 2
Fore
SplineSet
458 -232 m 0,0,1
 412 -232 412 -232 379.5 -206.5 c 128,-1,2
 347 -181 347 -181 347 -131 c 0,3,4
 347 -99 347 -99 359.5 -73.5 c 128,-1,5
 372 -48 372 -48 389 -30 c 128,-1,6
 406 -12 406 -12 420 -3 c 1,7,-1
 407 52 l 1,8,-1
 403 52 l 1,9,10
 375 24 375 24 337 6 c 128,-1,11
 299 -12 299 -12 262 -12 c 0,12,13
 197 -12 197 -12 149 19.5 c 128,-1,14
 101 51 101 51 74.5 111 c 128,-1,15
 48 171 48 171 48 254 c 256,16,17
 48 337 48 337 79.5 396.5 c 128,-1,18
 111 456 111 456 161 488 c 128,-1,19
 211 520 211 520 268 520 c 0,20,21
 307 520 307 520 341.5 504.5 c 128,-1,22
 376 489 376 489 407 456 c 1,23,-1
 411 456 l 1,24,-1
 423 508 l 1,25,-1
 541 508 l 1,26,-1
 541 -1 l 1,27,28
 489 -17 489 -17 469 -44.5 c 128,-1,29
 449 -72 449 -72 449 -96 c 0,30,31
 449 -120 449 -120 462.5 -131.5 c 128,-1,32
 476 -143 476 -143 494 -143 c 0,33,34
 505 -143 505 -143 515.5 -138.5 c 128,-1,35
 526 -134 526 -134 534 -129 c 1,36,-1
 565 -196 l 1,37,38
 545 -212 545 -212 515.5 -222 c 128,-1,39
 486 -232 486 -232 458 -232 c 0,0,1
301 111 m 0,40,41
 327 111 327 111 349 121.5 c 128,-1,42
 371 132 371 132 390 158 c 1,43,-1
 390 364 l 1,44,45
 370 382 370 382 349 389.5 c 128,-1,46
 328 397 328 397 305 397 c 0,47,48
 277 397 277 397 253.5 382 c 128,-1,49
 230 367 230 367 216.5 335.5 c 128,-1,50
 203 304 203 304 203 256 c 0,51,52
 203 181 203 181 228.5 146 c 128,-1,53
 254 111 254 111 301 111 c 0,40,41
EndSplineSet
EndChar

StartChar: dotlessi.a
Encoding: 1114154 -1 576
Width: 614
GlyphClass: 2
Flags: W
AnchorPoint: "Anchor-6" 340 0 basechar 0
AnchorPoint: "Anchor-3" 333 -20 basechar 0
AnchorPoint: "Anchor-2" 342 0 basechar 0
AnchorPoint: "Anchor-0" 333 528 basechar 0
LayerCount: 2
Fore
SplineSet
264 0 m 1,0,-1
 264 390 l 1,1,-1
 104 390 l 1,2,-1
 104 508 l 1,3,-1
 415 508 l 1,4,-1
 415 0 l 1,5,-1
 264 0 l 1,0,-1
83 0 m 1,6,-1
 83 118 l 1,7,-1
 578 118 l 1,8,-1
 578 0 l 1,9,-1
 83 0 l 1,6,-1
EndSplineSet
EndChar

StartChar: iogonek.d
Encoding: 1114167 -1 589
Width: 614
GlyphClass: 2
Flags: W
AnchorPoint: "Anchor-0" 353 528 basechar 0
LayerCount: 2
Fore
SplineSet
359 -232 m 0,0,1
 309 -232 309 -232 274.5 -206.5 c 128,-1,2
 240 -181 240 -181 240 -131 c 0,3,4
 240 -84 240 -84 267.5 -51 c 128,-1,5
 295 -18 295 -18 328 0 c 1,6,-1
 285 0 l 1,7,-1
 285 390 l 1,8,-1
 81 390 l 1,9,-1
 81 508 l 1,10,-1
 435 508 l 1,11,-1
 435 -1 l 1,12,13
 384 -18 384 -18 362.5 -45 c 128,-1,14
 341 -72 341 -72 341 -96 c 0,15,16
 341 -120 341 -120 357.5 -131.5 c 128,-1,17
 374 -143 374 -143 395 -143 c 0,18,19
 408 -143 408 -143 420 -138.5 c 128,-1,20
 432 -134 432 -134 442 -129 c 1,21,-1
 474 -196 l 1,22,23
 454 -213 454 -213 421 -222.5 c 128,-1,24
 388 -232 388 -232 359 -232 c 0,0,1
EndSplineSet
Substitution2: "'ss04' Style Set 4 lookup 31 subtable" iogonek.da
Ligature2: "Ligature Substitution lookup 7 subtable" i uni0328
EndChar

StartChar: iogonek.da
Encoding: 1114168 -1 590
Width: 614
GlyphClass: 2
Flags: W
AnchorPoint: "Anchor-0" 333 532 basechar 0
LayerCount: 2
Fore
SplineSet
342 -232 m 0,0,1
 293 -232 293 -232 258 -206.5 c 128,-1,2
 223 -181 223 -181 223 -131 c 0,3,4
 223 -84 223 -84 249.5 -51 c 128,-1,5
 276 -18 276 -18 307 0 c 1,6,-1
 83 0 l 1,7,-1
 83 118 l 1,8,-1
 264 118 l 1,9,-1
 264 390 l 1,10,-1
 104 390 l 1,11,-1
 104 508 l 1,12,-1
 415 508 l 1,13,-1
 415 118 l 1,14,-1
 578 118 l 1,15,-1
 578 0 l 1,16,-1
 417 0 l 1,17,18
 366 -19 366 -19 345.5 -45.5 c 128,-1,19
 325 -72 325 -72 325 -96 c 0,20,21
 325 -120 325 -120 340.5 -131.5 c 128,-1,22
 356 -143 356 -143 379 -143 c 0,23,24
 392 -143 392 -143 404 -138.5 c 128,-1,25
 416 -134 416 -134 426 -129 c 1,26,-1
 458 -196 l 1,27,28
 436 -213 436 -213 403.5 -222.5 c 128,-1,29
 371 -232 371 -232 342 -232 c 0,0,1
EndSplineSet
Ligature2: "Ligature Substitution lookup 8 subtable" i.a uni0328
EndChar

StartChar: uni0268.d
Encoding: 1114169 -1 591
Width: 614
GlyphClass: 2
Flags: W
AnchorPoint: "Anchor-3" 353 -20 basechar 0
AnchorPoint: "Anchor-0" 353 528 basechar 0
LayerCount: 2
Fore
SplineSet
118 193 m 1,0,-1
 118 263 l 1,1,-1
 286 269 l 1,2,-1
 571 269 l 1,3,-1
 571 193 l 1,4,-1
 118 193 l 1,0,-1
285 0 m 1,5,-1
 285 390 l 1,6,-1
 80 390 l 1,7,-1
 80 508 l 1,8,-1
 435 508 l 1,9,-1
 435 0 l 1,10,-1
 285 0 l 1,5,-1
EndSplineSet
Substitution2: "'ss04' Style Set 4 lookup 31 subtable" uni0268.da
EndChar

StartChar: uni0268.da
Encoding: 1114170 -1 592
Width: 614
GlyphClass: 2
Flags: W
AnchorPoint: "Anchor-3" 333 -20 basechar 0
AnchorPoint: "Anchor-0" 333 528 basechar 0
LayerCount: 2
Fore
SplineSet
105 221 m 1,0,-1
 105 292 l 1,1,-1
 266 298 l 1,2,-1
 560 298 l 1,3,-1
 560 221 l 1,4,-1
 105 221 l 1,0,-1
264 0 m 1,5,-1
 264 390 l 1,6,-1
 104 390 l 1,7,-1
 104 508 l 1,8,-1
 415 508 l 1,9,-1
 415 0 l 1,10,-1
 264 0 l 1,5,-1
83 0 m 1,11,-1
 83 118 l 1,12,-1
 578 118 l 1,13,-1
 578 0 l 1,14,-1
 83 0 l 1,11,-1
EndSplineSet
EndChar

StartChar: uni029D.d
Encoding: 1114171 -1 593
Width: 614
GlyphClass: 2
Flags: W
AnchorPoint: "Anchor-3" 219 -210 basechar 0
AnchorPoint: "Anchor-0" 353 528 basechar 0
LayerCount: 2
Fore
SplineSet
424 -233 m 1,0,1
 374 -114 374 -114 315.5 -63 c 128,-1,2
 257 -12 257 -12 195 -12 c 0,3,4
 165 -12 165 -12 151.5 -21.5 c 128,-1,5
 138 -31 138 -31 138 -46 c 256,6,7
 138 -61 138 -61 154.5 -73.5 c 128,-1,8
 171 -86 171 -86 205 -86 c 0,9,10
 233 -86 233 -86 250.5 -77 c 128,-1,11
 268 -68 268 -68 276.5 -50.5 c 128,-1,12
 285 -33 285 -33 285 -10 c 2,13,-1
 285 390 l 1,14,-1
 81 390 l 1,15,-1
 81 508 l 1,16,-1
 435 508 l 1,17,-1
 435 22 l 2,18,19
 435 -37 435 -37 410.5 -88 c 128,-1,20
 386 -139 386 -139 336 -170 c 128,-1,21
 286 -201 286 -201 210 -201 c 0,22,23
 153 -201 153 -201 111.5 -180.5 c 128,-1,24
 70 -160 70 -160 48.5 -126 c 128,-1,25
 27 -92 27 -92 27 -49 c 0,26,27
 27 12 27 12 71.5 49.5 c 128,-1,28
 116 87 116 87 197 87 c 0,29,30
 254 87 254 87 317 62 c 128,-1,31
 380 37 380 37 438 -22 c 128,-1,32
 496 -81 496 -81 540 -182 c 1,33,-1
 424 -233 l 1,0,1
EndSplineSet
EndChar

StartChar: l.a
Encoding: 1114172 -1 594
Width: 614
GlyphClass: 2
Flags: W
AnchorPoint: "Anchor-4" 338 376 basechar 0
AnchorPoint: "Anchor-3" 333 -20 basechar 0
AnchorPoint: "Anchor-2" 342 0 basechar 0
AnchorPoint: "Anchor-0" 335 750 basechar 0
LayerCount: 2
Fore
SplineSet
264 0 m 1,0,-1
 264 599 l 1,1,-1
 104 599 l 1,2,-1
 104 718 l 1,3,-1
 415 718 l 1,4,-1
 415 0 l 1,5,-1
 264 0 l 1,0,-1
83 0 m 1,6,-1
 83 118 l 1,7,-1
 578 118 l 1,8,-1
 578 0 l 1,9,-1
 83 0 l 1,6,-1
EndSplineSet
EndChar

StartChar: lslash.a
Encoding: 1114179 -1 601
Width: 614
GlyphClass: 2
Flags: W
AnchorPoint: "Anchor-3" 333 -20 basechar 0
AnchorPoint: "Anchor-2" 342 0 basechar 0
AnchorPoint: "Anchor-0" 335 750 basechar 0
LayerCount: 2
Fore
SplineSet
264 0 m 1,0,-1
 264 599 l 1,1,-1
 104 599 l 1,2,-1
 104 718 l 1,3,-1
 415 718 l 1,4,-1
 415 0 l 1,5,-1
 264 0 l 1,0,-1
83 0 m 1,6,-1
 83 118 l 1,7,-1
 578 118 l 1,8,-1
 578 0 l 1,9,-1
 83 0 l 1,6,-1
178 236 m 1,10,-1
 127 329 l 1,11,-1
 271 410 l 1,12,-1
 387 461 l 1,13,-1
 540 547 l 1,14,-1
 591 453 l 1,15,-1
 387 341 l 1,16,-1
 271 290 l 1,17,-1
 178 236 l 1,10,-1
EndSplineSet
EndChar

StartChar: uni006C00B7006C.a
Encoding: 1114181 -1 603
Width: 614
GlyphClass: 1
Flags: W
LayerCount: 2
Fore
SplineSet
83 0 m 1,0,-1
 83 599 l 1,1,-1
 -11 599 l 1,2,-1
 -11 718 l 1,3,-1
 216 718 l 1,4,-1
 216 0 l 1,5,-1
 83 0 l 1,0,-1
-15 0 m 1,6,-1
 -15 118 l 1,7,-1
 296 118 l 1,8,-1
 296 0 l 1,9,-1
 -15 0 l 1,6,-1
402 0 m 1,10,-1
 402 599 l 1,11,-1
 308 599 l 1,12,-1
 308 718 l 1,13,-1
 536 718 l 1,14,-1
 536 0 l 1,15,-1
 402 0 l 1,10,-1
321 0 m 1,16,-1
 321 118 l 1,17,-1
 632 118 l 1,18,-1
 632 0 l 1,19,-1
 321 0 l 1,16,-1
309 309 m 0,20,21
 280 309 280 309 261 329 c 128,-1,22
 242 349 242 349 242 379 c 256,23,24
 242 409 242 409 261.5 429 c 128,-1,25
 281 449 281 449 309 449 c 0,26,27
 341 449 341 449 360 429 c 128,-1,28
 379 409 379 409 379 379 c 256,29,30
 379 349 379 349 360 329 c 128,-1,31
 341 309 341 309 309 309 c 0,20,21
EndSplineSet
EndChar

StartChar: uni026C.a
Encoding: 1114183 -1 605
Width: 614
GlyphClass: 2
Flags: W
AnchorPoint: "Anchor-3" 333 -20 basechar 0
AnchorPoint: "Anchor-2" 341 0 basechar 0
AnchorPoint: "Anchor-0" 335 750 basechar 0
LayerCount: 2
Fore
SplineSet
253 283 m 2,0,1
 171 283 171 283 134.5 313.5 c 128,-1,2
 98 344 98 344 98 389 c 0,3,4
 98 432 98 432 128.5 460.5 c 128,-1,5
 159 489 159 489 205 489 c 0,6,7
 243 489 243 489 265 471.5 c 128,-1,8
 287 454 287 454 298.5 428.5 c 128,-1,9
 310 403 310 403 314 378 c 128,-1,10
 318 353 318 353 318 338 c 1,11,-1
 264 364 l 1,12,13
 264 380 264 380 252.5 399.5 c 128,-1,14
 241 419 241 419 211 419 c 0,15,16
 195 419 195 419 187 410.5 c 128,-1,17
 179 402 179 402 179 389 c 0,18,19
 179 375 179 375 192 365 c 128,-1,20
 205 355 205 355 239 355 c 2,21,-1
 548 355 l 1,22,-1
 548 283 l 1,23,-1
 253 283 l 2,0,1
264 0 m 1,24,-1
 264 599 l 1,25,-1
 104 599 l 1,26,-1
 104 718 l 1,27,-1
 415 718 l 1,28,-1
 415 0 l 1,29,-1
 264 0 l 1,24,-1
83 0 m 1,30,-1
 83 118 l 1,31,-1
 578 118 l 1,32,-1
 578 0 l 1,33,-1
 83 0 l 1,30,-1
EndSplineSet
EndChar

StartChar: Gamma
Encoding: 915 915 608
Width: 614
GlyphClass: 1
Flags: W
LayerCount: 2
Fore
SplineSet
111 0 m 1,0,-1
 111 668 l 1,1,-1
 550 668 l 1,2,-1
 550 541 l 1,3,-1
 262 541 l 1,4,-1
 262 0 l 1,5,-1
 111 0 l 1,0,-1
EndSplineSet
EndChar

StartChar: uni0394
Encoding: 916 916 609
Width: 614
GlyphClass: 1
Flags: W
LayerCount: 2
Fore
SplineSet
32 0 m 1,0,-1
 32 91 l 1,1,-1
 217 668 l 1,2,-1
 397 668 l 1,3,-1
 583 91 l 1,4,-1
 583 0 l 1,5,-1
 32 0 l 1,0,-1
194 127 m 1,6,-1
 418 127 l 1,7,-1
 359 337 l 2,8,9
 347 387 347 387 332.5 443.5 c 128,-1,10
 318 500 318 500 306 553 c 1,11,-1
 302 553 l 1,12,13
 290 500 290 500 276 443.5 c 128,-1,14
 262 387 262 387 250 337 c 2,15,-1
 194 127 l 1,6,-1
EndSplineSet
EndChar

StartChar: Theta
Encoding: 920 920 613
Width: 614
GlyphClass: 1
Flags: W
LayerCount: 2
Fore
SplineSet
307 -12 m 256,0,1
 227 -12 227 -12 166.5 30 c 128,-1,2
 106 72 106 72 72.5 149.5 c 128,-1,3
 39 227 39 227 39 337 c 0,4,5
 39 446 39 446 72.5 522.5 c 128,-1,6
 106 599 106 599 166.5 639.5 c 128,-1,7
 227 680 227 680 307 680 c 256,8,9
 387 680 387 680 447.5 639.5 c 128,-1,10
 508 599 508 599 541.5 522 c 128,-1,11
 575 445 575 445 575 337 c 0,12,13
 575 227 575 227 541.5 149.5 c 128,-1,14
 508 72 508 72 447.5 30 c 128,-1,15
 387 -12 387 -12 307 -12 c 256,0,1
307 118 m 256,16,17
 342 118 342 118 367.5 145 c 128,-1,18
 393 172 393 172 407 220.5 c 128,-1,19
 421 269 421 269 421 337 c 0,20,21
 421 404 421 404 407 451.5 c 128,-1,22
 393 499 393 499 367.5 524.5 c 128,-1,23
 342 550 342 550 307 550 c 256,24,25
 272 550 272 550 246.5 524.5 c 128,-1,26
 221 499 221 499 207.5 451 c 128,-1,27
 194 403 194 403 194 337 c 0,28,29
 194 269 194 269 207.5 220.5 c 128,-1,30
 221 172 221 172 246.5 145 c 128,-1,31
 272 118 272 118 307 118 c 256,16,17
238 279 m 1,32,-1
 238 411 l 1,33,-1
 377 411 l 1,34,-1
 377 279 l 1,35,-1
 238 279 l 1,32,-1
EndSplineSet
EndChar

StartChar: Lambda
Encoding: 923 923 616
Width: 614
GlyphClass: 1
Flags: W
LayerCount: 2
Fore
SplineSet
15 0 m 1,0,-1
 216 668 l 1,1,-1
 397 668 l 1,2,-1
 599 0 l 1,3,-1
 439 0 l 1,4,-1
 359 311 l 2,5,6
 345 365 345 365 333.5 417.5 c 128,-1,7
 322 470 322 470 306 525 c 1,8,-1
 302 525 l 1,9,10
 287 470 287 470 275 418 c 128,-1,11
 263 366 263 366 248 311 c 2,12,-1
 169 0 l 1,13,-1
 15 0 l 1,0,-1
EndSplineSet
EndChar

StartChar: Xi
Encoding: 926 926 619
Width: 614
GlyphClass: 1
Flags: W
LayerCount: 2
Fore
SplineSet
68 0 m 1,0,-1
 68 127 l 1,1,-1
 547 127 l 1,2,-1
 547 0 l 1,3,-1
 68 0 l 1,0,-1
137 281 m 1,4,-1
 137 407 l 1,5,-1
 477 407 l 1,6,-1
 477 281 l 1,7,-1
 137 281 l 1,4,-1
78 541 m 1,8,-1
 78 668 l 1,9,-1
 537 668 l 1,10,-1
 537 541 l 1,11,-1
 78 541 l 1,8,-1
EndSplineSet
EndChar

StartChar: Pi
Encoding: 928 928 621
Width: 614
GlyphClass: 1
Flags: W
LayerCount: 2
Fore
SplineSet
66 0 m 1,0,-1
 66 668 l 1,1,-1
 549 668 l 1,2,-1
 549 0 l 1,3,-1
 398 0 l 1,4,-1
 398 541 l 1,5,-1
 216 541 l 1,6,-1
 216 0 l 1,7,-1
 66 0 l 1,0,-1
EndSplineSet
EndChar

StartChar: Sigma
Encoding: 931 931 623
Width: 614
GlyphClass: 1
Flags: W
LayerCount: 2
Fore
SplineSet
65 0 m 1,0,-1
 65 91 l 1,1,-1
 271 337 l 1,2,-1
 68 577 l 1,3,-1
 68 668 l 1,4,-1
 525 668 l 1,5,-1
 525 541 l 1,6,-1
 256 541 l 1,7,-1
 423 341 l 1,8,-1
 253 127 l 1,9,-1
 553 127 l 1,10,-1
 553 0 l 1,11,-1
 65 0 l 1,0,-1
EndSplineSet
EndChar

StartChar: Phi
Encoding: 934 934 626
Width: 614
GlyphClass: 1
Flags: W
LayerCount: 2
Fore
SplineSet
284 62 m 2,0,1
 204 62 204 62 143.5 94 c 128,-1,2
 83 126 83 126 49.5 187.5 c 128,-1,3
 16 249 16 249 16 337 c 256,4,5
 16 425 16 425 49.5 485 c 128,-1,6
 83 545 83 545 143.5 575.5 c 128,-1,7
 204 606 204 606 284 606 c 2,8,-1
 331 606 l 2,9,10
 411 606 411 606 471 575.5 c 128,-1,11
 531 545 531 545 564.5 485 c 128,-1,12
 598 425 598 425 598 337 c 256,13,14
 598 249 598 249 564.5 187.5 c 128,-1,15
 531 126 531 126 471 94 c 128,-1,16
 411 62 411 62 331 62 c 2,17,-1
 284 62 l 2,0,1
274 176 m 2,18,-1
 340 176 l 2,19,20
 377 176 377 176 405 195.5 c 128,-1,21
 433 215 433 215 449 251.5 c 128,-1,22
 465 288 465 288 465 337 c 256,23,24
 465 386 465 386 449 421 c 128,-1,25
 433 456 433 456 405 475 c 128,-1,26
 377 494 377 494 340 494 c 2,27,-1
 274 494 l 2,28,29
 237 494 237 494 209 475 c 128,-1,30
 181 456 181 456 165.5 421 c 128,-1,31
 150 386 150 386 150 337 c 256,32,33
 150 288 150 288 165.5 251.5 c 128,-1,34
 181 215 181 215 209 195.5 c 128,-1,35
 237 176 237 176 274 176 c 2,18,-1
248 -23 m 1,36,-1
 248 690 l 1,37,-1
 367 690 l 1,38,-1
 367 -23 l 1,39,-1
 248 -23 l 1,36,-1
EndSplineSet
EndChar

StartChar: Psi
Encoding: 936 936 628
Width: 614
GlyphClass: 1
Flags: W
LayerCount: 2
Fore
SplineSet
280 222 m 2,0,1
 161 222 161 222 91.5 281.5 c 128,-1,2
 22 341 22 341 22 462 c 2,3,-1
 22 668 l 1,4,-1
 161 668 l 1,5,-1
 161 470 l 2,6,7
 161 403 161 403 189.5 372 c 128,-1,8
 218 341 218 341 271 341 c 2,9,-1
 343 341 l 2,10,11
 397 341 397 341 425.5 372 c 128,-1,12
 454 403 454 403 454 470 c 2,13,-1
 454 668 l 1,14,-1
 593 668 l 1,15,-1
 593 462 l 2,16,17
 593 341 593 341 523.5 281.5 c 128,-1,18
 454 222 454 222 335 222 c 2,19,-1
 280 222 l 2,0,1
244 0 m 1,20,-1
 244 668 l 1,21,-1
 371 668 l 1,22,-1
 371 0 l 1,23,-1
 244 0 l 1,20,-1
EndSplineSet
EndChar

StartChar: uni03A9
Encoding: 937 937 629
Width: 614
GlyphClass: 2
Flags: W
AnchorPoint: "Anchor-3" 307 -20 basechar 0
AnchorPoint: "Anchor-0" 307 688 basechar 0
LayerCount: 2
Fore
SplineSet
32 0 m 1,0,-1
 32 122 l 1,1,-1
 134 122 l 1,2,-1
 134 126 l 1,3,4
 112 149 112 149 90 184 c 128,-1,5
 68 219 68 219 53.5 265 c 128,-1,6
 39 311 39 311 39 367 c 0,7,8
 39 459 39 459 72 529.5 c 128,-1,9
 105 600 105 600 165.5 640 c 128,-1,10
 226 680 226 680 307 680 c 0,11,12
 389 680 389 680 449 640 c 128,-1,13
 509 600 509 600 542 529.5 c 128,-1,14
 575 459 575 459 575 367 c 0,15,16
 575 312 575 312 561 265.5 c 128,-1,17
 547 219 547 219 525 183.5 c 128,-1,18
 503 148 503 148 480 126 c 1,19,-1
 480 122 l 1,20,-1
 583 122 l 1,21,-1
 583 0 l 1,22,-1
 350 0 l 1,23,-1
 350 109 l 1,24,25
 375 148 375 148 391 183.5 c 128,-1,26
 407 219 407 219 414 259 c 128,-1,27
 421 299 421 299 421 351 c 0,28,29
 421 409 421 409 407.5 454 c 128,-1,30
 394 499 394 499 369 524.5 c 128,-1,31
 344 550 344 550 307 550 c 256,32,33
 270 550 270 550 245 524.5 c 128,-1,34
 220 499 220 499 207 454.5 c 128,-1,35
 194 410 194 410 194 351 c 0,36,37
 194 299 194 299 201.5 259 c 128,-1,38
 209 219 209 219 224.5 183 c 128,-1,39
 240 147 240 147 264 109 c 1,40,-1
 264 0 l 1,41,-1
 32 0 l 1,0,-1
EndSplineSet
EndChar

StartChar: Alphatonos
Encoding: 902 902 630
Width: 614
GlyphClass: 1
Flags: W
LayerCount: 2
Fore
SplineSet
59 0 m 1,0,-1
 243 668 l 1,1,-1
 423 668 l 1,2,-1
 605 0 l 1,3,-1
 445 0 l 1,4,-1
 375 338 l 2,5,6
 364 388 364 388 354 433.5 c 128,-1,7
 344 479 344 479 331 537 c 1,8,-1
 327 537 l 1,9,10
 316 480 316 480 306.5 434 c 128,-1,11
 297 388 297 388 287 338 c 2,12,-1
 214 0 l 1,13,-1
 59 0 l 1,0,-1
197 159 m 1,14,-1
 197 276 l 1,15,-1
 466 276 l 1,16,-1
 466 159 l 1,17,-1
 197 159 l 1,14,-1
99 355 m 1,18,-1
 3 373 l 1,19,-1
 49 707 l 1,20,-1
 178 689 l 1,21,-1
 99 355 l 1,18,-1
EndSplineSet
EndChar

StartChar: Epsilontonos
Encoding: 904 904 631
Width: 614
GlyphClass: 1
Flags: W
LayerCount: 2
Fore
SplineSet
215 0 m 1,0,-1
 215 668 l 1,1,-1
 537 668 l 1,2,-1
 537 541 l 1,3,-1
 349 541 l 1,4,-1
 349 407 l 1,5,-1
 493 407 l 1,6,-1
 493 281 l 1,7,-1
 349 281 l 1,8,-1
 349 127 l 1,9,-1
 547 127 l 1,10,-1
 547 0 l 1,11,-1
 215 0 l 1,0,-1
95 355 m 1,12,-1
 0 373 l 1,13,-1
 45 707 l 1,14,-1
 174 689 l 1,15,-1
 95 355 l 1,12,-1
EndSplineSet
EndChar

StartChar: Etatonos
Encoding: 905 905 632
Width: 614
GlyphClass: 1
Flags: W
LayerCount: 2
Fore
SplineSet
202 0 m 1,0,-1
 202 668 l 1,1,-1
 336 668 l 1,2,-1
 336 411 l 1,3,-1
 432 411 l 1,4,-1
 432 668 l 1,5,-1
 565 668 l 1,6,-1
 565 0 l 1,7,-1
 432 0 l 1,8,-1
 432 279 l 1,9,-1
 336 279 l 1,10,-1
 336 0 l 1,11,-1
 202 0 l 1,0,-1
95 355 m 1,12,-1
 0 373 l 1,13,-1
 45 707 l 1,14,-1
 174 689 l 1,15,-1
 95 355 l 1,12,-1
EndSplineSet
EndChar

StartChar: Iotatonos
Encoding: 906 906 633
Width: 614
GlyphClass: 1
Flags: W
LayerCount: 2
Fore
SplineSet
205 0 m 1,0,-1
 205 127 l 1,1,-1
 296 127 l 1,2,-1
 296 541 l 1,3,-1
 205 541 l 1,4,-1
 205 668 l 1,5,-1
 539 668 l 1,6,-1
 539 541 l 1,7,-1
 447 541 l 1,8,-1
 447 127 l 1,9,-1
 539 127 l 1,10,-1
 539 0 l 1,11,-1
 205 0 l 1,0,-1
95 355 m 1,12,-1
 0 373 l 1,13,-1
 45 707 l 1,14,-1
 174 689 l 1,15,-1
 95 355 l 1,12,-1
EndSplineSet
EndChar

StartChar: Omicrontonos
Encoding: 908 908 635
Width: 614
GlyphClass: 1
Flags: W
LayerCount: 2
Fore
SplineSet
362 -12 m 0,0,1
 300 -12 300 -12 251.5 29.5 c 128,-1,2
 203 71 203 71 176.5 148.5 c 128,-1,3
 150 226 150 226 150 337 c 0,4,5
 150 451 150 451 176.5 527 c 128,-1,6
 203 603 203 603 251.5 641.5 c 128,-1,7
 300 680 300 680 362 680 c 0,8,9
 425 680 425 680 473 641.5 c 128,-1,10
 521 603 521 603 548 527 c 128,-1,11
 575 451 575 451 575 337 c 0,12,13
 575 222 575 222 548 145 c 128,-1,14
 521 68 521 68 473 28 c 128,-1,15
 425 -12 425 -12 362 -12 c 0,0,1
362 118 m 0,16,17
 385 118 385 118 400.5 139 c 128,-1,18
 416 160 416 160 424.5 208 c 128,-1,19
 433 256 433 256 433 337 c 0,20,21
 433 417 433 417 424.5 463.5 c 128,-1,22
 416 510 416 510 400.5 530 c 128,-1,23
 385 550 385 550 362 550 c 0,24,25
 340 550 340 550 324.5 530 c 128,-1,26
 309 510 309 510 300.5 463.5 c 128,-1,27
 292 417 292 417 292 337 c 0,28,29
 292 256 292 256 300.5 208 c 128,-1,30
 309 160 309 160 324.5 139 c 128,-1,31
 340 118 340 118 362 118 c 0,16,17
95 355 m 1,32,-1
 0 373 l 1,33,-1
 45 707 l 1,34,-1
 174 689 l 1,35,-1
 95 355 l 1,32,-1
EndSplineSet
EndChar

StartChar: Upsilontonos
Encoding: 910 910 636
Width: 614
GlyphClass: 1
Flags: W
LayerCount: 2
Fore
SplineSet
356 0 m 1,0,-1
 356 225 l 1,1,-1
 207 668 l 1,2,-1
 344 668 l 1,3,-1
 385 507 l 2,4,5
 395 466 395 466 404 429.5 c 128,-1,6
 413 393 413 393 422 354 c 1,7,-1
 426 354 l 1,8,9
 435 393 435 393 445.5 429.5 c 128,-1,10
 456 466 456 466 465 507 c 2,11,-1
 507 668 l 1,12,-1
 639 668 l 1,13,-1
 489 225 l 1,14,-1
 489 0 l 1,15,-1
 356 0 l 1,0,-1
108 355 m 1,16,-1
 11 373 l 1,17,-1
 57 707 l 1,18,-1
 186 689 l 1,19,-1
 108 355 l 1,16,-1
EndSplineSet
EndChar

StartChar: Omegatonos
Encoding: 911 911 638
Width: 614
GlyphClass: 1
Flags: W
LayerCount: 2
Fore
SplineSet
140 0 m 1,0,-1
 140 122 l 1,1,-1
 224 122 l 1,2,-1
 224 126 l 1,3,4
 192 177 192 177 171.5 238 c 128,-1,5
 151 299 151 299 151 385 c 0,6,7
 151 472 151 472 177.5 538.5 c 128,-1,8
 204 605 204 605 251 642.5 c 128,-1,9
 298 680 298 680 362 680 c 0,10,11
 425 680 425 680 473 642.5 c 128,-1,12
 521 605 521 605 547 538.5 c 128,-1,13
 573 472 573 472 573 385 c 0,14,15
 573 299 573 299 552 238 c 128,-1,16
 531 177 531 177 500 126 c 1,17,-1
 500 122 l 1,18,-1
 584 122 l 1,19,-1
 584 0 l 1,20,-1
 387 0 l 1,21,-1
 387 109 l 1,22,23
 404 153 404 153 414 189 c 128,-1,24
 424 225 424 225 428 263.5 c 128,-1,25
 432 302 432 302 432 353 c 0,26,27
 432 419 432 419 424 462.5 c 128,-1,28
 416 506 416 506 400.5 528 c 128,-1,29
 385 550 385 550 362 550 c 256,30,31
 339 550 339 550 324 528 c 128,-1,32
 309 506 309 506 300.5 462.5 c 128,-1,33
 292 419 292 419 292 353 c 0,34,35
 292 302 292 302 296 263.5 c 128,-1,36
 300 225 300 225 310.5 189 c 128,-1,37
 321 153 321 153 337 109 c 1,38,-1
 337 0 l 1,39,-1
 140 0 l 1,0,-1
95 355 m 1,40,-1
 0 373 l 1,41,-1
 45 707 l 1,42,-1
 174 689 l 1,43,-1
 95 355 l 1,40,-1
EndSplineSet
EndChar

